<mxfile host="app.diagrams.net" modified="2024-07-01T14:57:56.446Z" agent="Mozilla/5.0 (Windows NT 10.0; Win64; x64) AppleWebKit/537.36 (KHTML, like Gecko) Chrome/124.0.0.0 YaBrowser/24.6.0.0 Safari/537.36" etag="PeKwUSf4cpBmHlE1wZsF" version="24.6.4" type="device">
  <diagram name="Страница — 1" id="2NYfeQCXo3AVTHyajSkB">
    <mxGraphModel dx="4470" dy="1705" grid="0" gridSize="10" guides="1" tooltips="1" connect="1" arrows="1" fold="1" page="0" pageScale="1" pageWidth="827" pageHeight="1169" math="0" shadow="0">
      <root>
        <mxCell id="0" />
        <mxCell id="1" parent="0" />
        <mxCell id="ZpvMtTJbX905HuRhqaV7-266" value="&lt;p style=&quot;margin:0px;margin-top:4px;text-align:center;&quot;&gt;&lt;b&gt;Компания по продаже игрушечных паровозиков&lt;/b&gt;&lt;/p&gt;&lt;hr size=&quot;1&quot; style=&quot;border-style:solid;&quot;&gt;&lt;div style=&quot;height:2px;&quot;&gt;&lt;/div&gt;" style="verticalAlign=top;align=left;overflow=fill;html=1;whiteSpace=wrap;dashed=1;dashPattern=8 8;" parent="1" vertex="1">
          <mxGeometry x="-1525" y="622" width="1652" height="2048" as="geometry" />
        </mxCell>
        <mxCell id="ZpvMtTJbX905HuRhqaV7-303" style="edgeStyle=none;curved=1;rounded=0;orthogonalLoop=1;jettySize=auto;html=1;exitX=0.5;exitY=0.5;exitDx=0;exitDy=0;exitPerimeter=0;entryX=0;entryY=0;entryDx=0;entryDy=0;fontSize=12;startSize=8;endSize=8;endArrow=none;endFill=0;" parent="1" source="ZpvMtTJbX905HuRhqaV7-267" target="ZpvMtTJbX905HuRhqaV7-271" edge="1">
          <mxGeometry relative="1" as="geometry">
            <Array as="points">
              <mxPoint x="-1404" y="744" />
            </Array>
          </mxGeometry>
        </mxCell>
        <mxCell id="ZpvMtTJbX905HuRhqaV7-307" style="edgeStyle=none;curved=1;rounded=0;orthogonalLoop=1;jettySize=auto;html=1;exitX=0.5;exitY=0.5;exitDx=0;exitDy=0;exitPerimeter=0;fontSize=12;startSize=8;endSize=8;endArrow=none;endFill=0;" parent="1" source="ZpvMtTJbX905HuRhqaV7-267" target="ZpvMtTJbX905HuRhqaV7-274" edge="1">
          <mxGeometry relative="1" as="geometry" />
        </mxCell>
        <mxCell id="ZpvMtTJbX905HuRhqaV7-311" style="edgeStyle=none;curved=1;rounded=0;orthogonalLoop=1;jettySize=auto;html=1;exitX=0.5;exitY=0.5;exitDx=0;exitDy=0;exitPerimeter=0;entryX=0;entryY=0.5;entryDx=0;entryDy=0;fontSize=12;startSize=8;endSize=8;endArrow=none;endFill=0;" parent="1" source="ZpvMtTJbX905HuRhqaV7-267" target="ZpvMtTJbX905HuRhqaV7-275" edge="1">
          <mxGeometry relative="1" as="geometry" />
        </mxCell>
        <mxCell id="ZpvMtTJbX905HuRhqaV7-321" style="edgeStyle=none;curved=1;rounded=0;orthogonalLoop=1;jettySize=auto;html=1;exitX=0.5;exitY=0.5;exitDx=0;exitDy=0;exitPerimeter=0;entryX=0;entryY=0.5;entryDx=0;entryDy=0;fontSize=12;startSize=8;endSize=8;endArrow=none;endFill=0;" parent="1" source="ZpvMtTJbX905HuRhqaV7-267" target="ZpvMtTJbX905HuRhqaV7-276" edge="1">
          <mxGeometry relative="1" as="geometry" />
        </mxCell>
        <mxCell id="ZpvMtTJbX905HuRhqaV7-323" style="edgeStyle=none;curved=1;rounded=0;orthogonalLoop=1;jettySize=auto;html=1;exitX=0.5;exitY=0.5;exitDx=0;exitDy=0;exitPerimeter=0;entryX=0.042;entryY=0.294;entryDx=0;entryDy=0;fontSize=12;startSize=8;endSize=8;endArrow=none;endFill=0;entryPerimeter=0;" parent="1" source="ZpvMtTJbX905HuRhqaV7-267" target="ZpvMtTJbX905HuRhqaV7-286" edge="1">
          <mxGeometry relative="1" as="geometry" />
        </mxCell>
        <mxCell id="ZpvMtTJbX905HuRhqaV7-325" style="edgeStyle=none;curved=1;rounded=0;orthogonalLoop=1;jettySize=auto;html=1;exitX=0.5;exitY=0.5;exitDx=0;exitDy=0;exitPerimeter=0;entryX=0;entryY=0.5;entryDx=0;entryDy=0;fontSize=12;startSize=8;endSize=8;endArrow=none;endFill=0;" parent="1" source="ZpvMtTJbX905HuRhqaV7-267" target="ZpvMtTJbX905HuRhqaV7-284" edge="1">
          <mxGeometry relative="1" as="geometry" />
        </mxCell>
        <mxCell id="ZpvMtTJbX905HuRhqaV7-332" style="edgeStyle=none;curved=1;rounded=0;orthogonalLoop=1;jettySize=auto;html=1;exitX=0.5;exitY=0.5;exitDx=0;exitDy=0;exitPerimeter=0;entryX=0;entryY=0;entryDx=0;entryDy=0;fontSize=12;startSize=8;endSize=8;endArrow=none;endFill=0;" parent="1" source="ZpvMtTJbX905HuRhqaV7-267" target="ZpvMtTJbX905HuRhqaV7-289" edge="1">
          <mxGeometry relative="1" as="geometry" />
        </mxCell>
        <mxCell id="ZpvMtTJbX905HuRhqaV7-340" style="edgeStyle=none;curved=1;rounded=0;orthogonalLoop=1;jettySize=auto;html=1;exitX=0.5;exitY=0.5;exitDx=0;exitDy=0;exitPerimeter=0;entryX=0;entryY=0.5;entryDx=0;entryDy=0;fontSize=12;startSize=8;endSize=8;endArrow=none;endFill=0;" parent="1" source="ZpvMtTJbX905HuRhqaV7-267" target="ZpvMtTJbX905HuRhqaV7-278" edge="1">
          <mxGeometry relative="1" as="geometry" />
        </mxCell>
        <mxCell id="ZpvMtTJbX905HuRhqaV7-351" style="edgeStyle=none;curved=1;rounded=0;orthogonalLoop=1;jettySize=auto;html=1;exitX=0.5;exitY=0.5;exitDx=0;exitDy=0;exitPerimeter=0;entryX=0;entryY=0;entryDx=0;entryDy=0;fontSize=12;startSize=8;endSize=8;endArrow=none;endFill=0;" parent="1" source="ZpvMtTJbX905HuRhqaV7-267" target="ZpvMtTJbX905HuRhqaV7-285" edge="1">
          <mxGeometry relative="1" as="geometry" />
        </mxCell>
        <mxCell id="ZpvMtTJbX905HuRhqaV7-267" value="Клиент" style="shape=umlActor;verticalLabelPosition=bottom;verticalAlign=top;html=1;" parent="1" vertex="1">
          <mxGeometry x="-1982" y="894" width="127" height="204" as="geometry" />
        </mxCell>
        <mxCell id="ZpvMtTJbX905HuRhqaV7-355" style="edgeStyle=none;curved=1;rounded=0;orthogonalLoop=1;jettySize=auto;html=1;exitX=0.5;exitY=0.5;exitDx=0;exitDy=0;exitPerimeter=0;entryX=1;entryY=0.5;entryDx=0;entryDy=0;fontSize=12;startSize=8;endSize=8;endArrow=none;endFill=0;" parent="1" source="ZpvMtTJbX905HuRhqaV7-269" target="ZpvMtTJbX905HuRhqaV7-280" edge="1">
          <mxGeometry relative="1" as="geometry" />
        </mxCell>
        <mxCell id="ZpvMtTJbX905HuRhqaV7-356" style="edgeStyle=none;curved=1;rounded=0;orthogonalLoop=1;jettySize=auto;html=1;exitX=0.5;exitY=0.5;exitDx=0;exitDy=0;exitPerimeter=0;entryX=1;entryY=0.5;entryDx=0;entryDy=0;fontSize=12;startSize=8;endSize=8;endArrow=none;endFill=0;" parent="1" source="ZpvMtTJbX905HuRhqaV7-269" target="ZpvMtTJbX905HuRhqaV7-281" edge="1">
          <mxGeometry relative="1" as="geometry" />
        </mxCell>
        <mxCell id="ZpvMtTJbX905HuRhqaV7-357" style="edgeStyle=none;curved=1;rounded=0;orthogonalLoop=1;jettySize=auto;html=1;exitX=0.5;exitY=0.5;exitDx=0;exitDy=0;exitPerimeter=0;entryX=1;entryY=0.5;entryDx=0;entryDy=0;fontSize=12;startSize=8;endSize=8;endArrow=none;endFill=0;" parent="1" source="ZpvMtTJbX905HuRhqaV7-269" target="ZpvMtTJbX905HuRhqaV7-283" edge="1">
          <mxGeometry relative="1" as="geometry" />
        </mxCell>
        <mxCell id="ZpvMtTJbX905HuRhqaV7-358" style="edgeStyle=none;curved=1;rounded=0;orthogonalLoop=1;jettySize=auto;html=1;exitX=0.5;exitY=0.5;exitDx=0;exitDy=0;exitPerimeter=0;entryX=1;entryY=0.5;entryDx=0;entryDy=0;fontSize=12;startSize=8;endSize=8;endArrow=none;endFill=0;" parent="1" source="ZpvMtTJbX905HuRhqaV7-269" target="ZpvMtTJbX905HuRhqaV7-291" edge="1">
          <mxGeometry relative="1" as="geometry" />
        </mxCell>
        <mxCell id="ZpvMtTJbX905HuRhqaV7-361" style="edgeStyle=none;curved=1;rounded=0;orthogonalLoop=1;jettySize=auto;html=1;exitX=0.5;exitY=0.5;exitDx=0;exitDy=0;exitPerimeter=0;entryX=1;entryY=0.5;entryDx=0;entryDy=0;fontSize=12;startSize=8;endSize=8;endArrow=none;endFill=0;" parent="1" source="ZpvMtTJbX905HuRhqaV7-269" target="ZpvMtTJbX905HuRhqaV7-282" edge="1">
          <mxGeometry relative="1" as="geometry" />
        </mxCell>
        <mxCell id="ZpvMtTJbX905HuRhqaV7-362" style="edgeStyle=none;curved=1;rounded=0;orthogonalLoop=1;jettySize=auto;html=1;exitX=0.5;exitY=0.5;exitDx=0;exitDy=0;exitPerimeter=0;entryX=1;entryY=0.5;entryDx=0;entryDy=0;fontSize=12;startSize=8;endSize=8;endArrow=none;endFill=0;" parent="1" source="ZpvMtTJbX905HuRhqaV7-269" target="ZpvMtTJbX905HuRhqaV7-292" edge="1">
          <mxGeometry relative="1" as="geometry" />
        </mxCell>
        <mxCell id="ZpvMtTJbX905HuRhqaV7-363" style="edgeStyle=none;curved=1;rounded=0;orthogonalLoop=1;jettySize=auto;html=1;exitX=0.5;exitY=0.5;exitDx=0;exitDy=0;exitPerimeter=0;entryX=1;entryY=0;entryDx=0;entryDy=0;fontSize=12;startSize=8;endSize=8;endArrow=none;endFill=0;" parent="1" source="ZpvMtTJbX905HuRhqaV7-269" target="ZpvMtTJbX905HuRhqaV7-279" edge="1">
          <mxGeometry relative="1" as="geometry" />
        </mxCell>
        <mxCell id="ZpvMtTJbX905HuRhqaV7-364" style="edgeStyle=none;curved=1;rounded=0;orthogonalLoop=1;jettySize=auto;html=1;exitX=0.5;exitY=0.5;exitDx=0;exitDy=0;exitPerimeter=0;entryX=1;entryY=0;entryDx=0;entryDy=0;fontSize=12;startSize=8;endSize=8;endArrow=none;endFill=0;" parent="1" source="ZpvMtTJbX905HuRhqaV7-269" target="ZpvMtTJbX905HuRhqaV7-294" edge="1">
          <mxGeometry relative="1" as="geometry" />
        </mxCell>
        <mxCell id="ZpvMtTJbX905HuRhqaV7-406" style="edgeStyle=none;curved=1;rounded=0;orthogonalLoop=1;jettySize=auto;html=1;exitX=0.5;exitY=0.5;exitDx=0;exitDy=0;exitPerimeter=0;entryX=1;entryY=1;entryDx=0;entryDy=0;fontSize=12;startSize=8;endSize=8;endArrow=none;endFill=0;" parent="1" source="ZpvMtTJbX905HuRhqaV7-269" target="ZpvMtTJbX905HuRhqaV7-288" edge="1">
          <mxGeometry relative="1" as="geometry" />
        </mxCell>
        <mxCell id="ZpvMtTJbX905HuRhqaV7-269" value="Сотрудник" style="shape=umlActor;verticalLabelPosition=bottom;verticalAlign=top;html=1;" parent="1" vertex="1">
          <mxGeometry x="335" y="1422" width="125" height="189" as="geometry" />
        </mxCell>
        <mxCell id="ZpvMtTJbX905HuRhqaV7-388" style="edgeStyle=none;curved=1;rounded=0;orthogonalLoop=1;jettySize=auto;html=1;exitX=0.5;exitY=0.5;exitDx=0;exitDy=0;exitPerimeter=0;entryX=0;entryY=0.5;entryDx=0;entryDy=0;fontSize=12;startSize=8;endSize=8;endArrow=none;endFill=0;" parent="1" source="ZpvMtTJbX905HuRhqaV7-270" target="ZpvMtTJbX905HuRhqaV7-299" edge="1">
          <mxGeometry relative="1" as="geometry" />
        </mxCell>
        <mxCell id="ZpvMtTJbX905HuRhqaV7-389" style="edgeStyle=none;curved=1;rounded=0;orthogonalLoop=1;jettySize=auto;html=1;exitX=0.5;exitY=0.5;exitDx=0;exitDy=0;exitPerimeter=0;entryX=0;entryY=0.5;entryDx=0;entryDy=0;fontSize=12;startSize=8;endSize=8;endArrow=none;endFill=0;" parent="1" source="ZpvMtTJbX905HuRhqaV7-270" target="ZpvMtTJbX905HuRhqaV7-297" edge="1">
          <mxGeometry relative="1" as="geometry" />
        </mxCell>
        <mxCell id="ZpvMtTJbX905HuRhqaV7-390" style="edgeStyle=none;curved=1;rounded=0;orthogonalLoop=1;jettySize=auto;html=1;exitX=0.5;exitY=0.5;exitDx=0;exitDy=0;exitPerimeter=0;entryX=0;entryY=0.5;entryDx=0;entryDy=0;fontSize=12;startSize=8;endSize=8;endArrow=none;endFill=0;" parent="1" source="ZpvMtTJbX905HuRhqaV7-270" target="ZpvMtTJbX905HuRhqaV7-295" edge="1">
          <mxGeometry relative="1" as="geometry" />
        </mxCell>
        <mxCell id="ZpvMtTJbX905HuRhqaV7-391" style="edgeStyle=none;curved=1;rounded=0;orthogonalLoop=1;jettySize=auto;html=1;exitX=0.5;exitY=0.5;exitDx=0;exitDy=0;exitPerimeter=0;fontSize=12;startSize=8;endSize=8;entryX=0;entryY=0.5;entryDx=0;entryDy=0;endArrow=none;endFill=0;" parent="1" source="ZpvMtTJbX905HuRhqaV7-270" target="ZpvMtTJbX905HuRhqaV7-301" edge="1">
          <mxGeometry relative="1" as="geometry" />
        </mxCell>
        <mxCell id="ZpvMtTJbX905HuRhqaV7-392" style="edgeStyle=none;curved=1;rounded=0;orthogonalLoop=1;jettySize=auto;html=1;exitX=0.5;exitY=0.5;exitDx=0;exitDy=0;exitPerimeter=0;entryX=0.5;entryY=1;entryDx=0;entryDy=0;fontSize=12;startSize=8;endSize=8;endArrow=none;endFill=0;" parent="1" source="ZpvMtTJbX905HuRhqaV7-270" target="ZpvMtTJbX905HuRhqaV7-298" edge="1">
          <mxGeometry relative="1" as="geometry" />
        </mxCell>
        <mxCell id="ZpvMtTJbX905HuRhqaV7-393" style="edgeStyle=none;curved=1;rounded=0;orthogonalLoop=1;jettySize=auto;html=1;exitX=0.5;exitY=0.5;exitDx=0;exitDy=0;exitPerimeter=0;fontSize=12;startSize=8;endSize=8;endArrow=none;endFill=0;" parent="1" source="ZpvMtTJbX905HuRhqaV7-270" target="ZpvMtTJbX905HuRhqaV7-302" edge="1">
          <mxGeometry relative="1" as="geometry" />
        </mxCell>
        <mxCell id="ZpvMtTJbX905HuRhqaV7-395" style="edgeStyle=none;curved=1;rounded=0;orthogonalLoop=1;jettySize=auto;html=1;exitX=0.5;exitY=0.5;exitDx=0;exitDy=0;exitPerimeter=0;entryX=0;entryY=1;entryDx=0;entryDy=0;fontSize=12;startSize=8;endSize=8;endArrow=none;endFill=0;" parent="1" source="ZpvMtTJbX905HuRhqaV7-270" target="ZpvMtTJbX905HuRhqaV7-296" edge="1">
          <mxGeometry relative="1" as="geometry" />
        </mxCell>
        <mxCell id="ZpvMtTJbX905HuRhqaV7-396" style="edgeStyle=none;curved=1;rounded=0;orthogonalLoop=1;jettySize=auto;html=1;exitX=0.5;exitY=0.5;exitDx=0;exitDy=0;exitPerimeter=0;entryX=0;entryY=1;entryDx=0;entryDy=0;fontSize=12;startSize=8;endSize=8;endArrow=none;endFill=0;" parent="1" source="ZpvMtTJbX905HuRhqaV7-270" target="ZpvMtTJbX905HuRhqaV7-300" edge="1">
          <mxGeometry relative="1" as="geometry" />
        </mxCell>
        <mxCell id="ZpvMtTJbX905HuRhqaV7-270" value="Администратор" style="shape=umlActor;verticalLabelPosition=bottom;verticalAlign=top;html=1;" parent="1" vertex="1">
          <mxGeometry x="-1932" y="2196" width="127" height="196" as="geometry" />
        </mxCell>
        <mxCell id="ZpvMtTJbX905HuRhqaV7-328" style="edgeStyle=none;curved=1;rounded=0;orthogonalLoop=1;jettySize=auto;html=1;exitX=0.685;exitY=0.963;exitDx=0;exitDy=0;fontSize=12;startSize=8;endSize=8;dashed=1;dashPattern=8 8;startArrow=classic;startFill=1;endArrow=none;endFill=0;exitPerimeter=0;" parent="1" source="ZpvMtTJbX905HuRhqaV7-271" target="ZpvMtTJbX905HuRhqaV7-286" edge="1">
          <mxGeometry relative="1" as="geometry" />
        </mxCell>
        <mxCell id="ZpvMtTJbX905HuRhqaV7-329" value="include" style="edgeLabel;html=1;align=center;verticalAlign=middle;resizable=0;points=[];fontSize=12;" parent="ZpvMtTJbX905HuRhqaV7-328" vertex="1" connectable="0">
          <mxGeometry x="-0.1307" y="4" relative="1" as="geometry">
            <mxPoint x="-57" y="-79" as="offset" />
          </mxGeometry>
        </mxCell>
        <mxCell id="ZpvMtTJbX905HuRhqaV7-335" style="edgeStyle=none;curved=1;rounded=0;orthogonalLoop=1;jettySize=auto;html=1;exitX=1;exitY=1;exitDx=0;exitDy=0;entryX=0.5;entryY=0;entryDx=0;entryDy=0;fontSize=12;startSize=8;endSize=8;startArrow=classic;startFill=1;dashed=1;dashPattern=8 8;endArrow=none;endFill=0;" parent="1" source="ZpvMtTJbX905HuRhqaV7-271" target="ZpvMtTJbX905HuRhqaV7-288" edge="1">
          <mxGeometry relative="1" as="geometry" />
        </mxCell>
        <mxCell id="ZpvMtTJbX905HuRhqaV7-336" value="include" style="edgeLabel;html=1;align=center;verticalAlign=middle;resizable=0;points=[];fontSize=12;" parent="ZpvMtTJbX905HuRhqaV7-335" vertex="1" connectable="0">
          <mxGeometry x="-0.1173" y="3" relative="1" as="geometry">
            <mxPoint x="-135" y="-105" as="offset" />
          </mxGeometry>
        </mxCell>
        <mxCell id="ZpvMtTJbX905HuRhqaV7-271" value="Регистрация" style="ellipse;whiteSpace=wrap;html=1;" parent="1" vertex="1">
          <mxGeometry x="-1303" y="698" width="140" height="70" as="geometry" />
        </mxCell>
        <mxCell id="ZpvMtTJbX905HuRhqaV7-274" value="Просмотр новостей" style="ellipse;whiteSpace=wrap;html=1;" parent="1" vertex="1">
          <mxGeometry x="-1358" y="1104" width="140" height="70" as="geometry" />
        </mxCell>
        <mxCell id="ZpvMtTJbX905HuRhqaV7-345" style="edgeStyle=none;curved=1;rounded=0;orthogonalLoop=1;jettySize=auto;html=1;exitX=0.62;exitY=-0.035;exitDx=0;exitDy=0;entryX=0.5;entryY=1;entryDx=0;entryDy=0;fontSize=12;startSize=8;endSize=8;dashed=1;dashPattern=8 8;exitPerimeter=0;" parent="1" source="ZpvMtTJbX905HuRhqaV7-275" target="ZpvMtTJbX905HuRhqaV7-271" edge="1">
          <mxGeometry relative="1" as="geometry" />
        </mxCell>
        <mxCell id="ZpvMtTJbX905HuRhqaV7-348" value="extend" style="edgeLabel;html=1;align=center;verticalAlign=middle;resizable=0;points=[];fontSize=12;rotation=-10;" parent="ZpvMtTJbX905HuRhqaV7-345" vertex="1" connectable="0">
          <mxGeometry x="-0.0688" y="-2" relative="1" as="geometry">
            <mxPoint x="-55" y="-94" as="offset" />
          </mxGeometry>
        </mxCell>
        <mxCell id="ZpvMtTJbX905HuRhqaV7-374" style="edgeStyle=none;curved=1;rounded=0;orthogonalLoop=1;jettySize=auto;html=1;exitX=1;exitY=0;exitDx=0;exitDy=0;entryX=0.5;entryY=1;entryDx=0;entryDy=0;fontSize=12;startSize=8;endSize=8;dashed=1;dashPattern=8 8;" parent="1" source="ZpvMtTJbX905HuRhqaV7-275" target="ZpvMtTJbX905HuRhqaV7-286" edge="1">
          <mxGeometry relative="1" as="geometry" />
        </mxCell>
        <mxCell id="ZpvMtTJbX905HuRhqaV7-375" value="extend" style="edgeLabel;html=1;align=center;verticalAlign=middle;resizable=0;points=[];fontSize=12;" parent="ZpvMtTJbX905HuRhqaV7-374" vertex="1" connectable="0">
          <mxGeometry x="0.0017" y="4" relative="1" as="geometry">
            <mxPoint as="offset" />
          </mxGeometry>
        </mxCell>
        <mxCell id="ZpvMtTJbX905HuRhqaV7-377" style="edgeStyle=none;curved=1;rounded=0;orthogonalLoop=1;jettySize=auto;html=1;exitX=1;exitY=0.5;exitDx=0;exitDy=0;entryX=0;entryY=1;entryDx=0;entryDy=0;fontSize=12;startSize=8;endSize=8;dashed=1;dashPattern=8 8;" parent="1" source="ZpvMtTJbX905HuRhqaV7-275" target="ZpvMtTJbX905HuRhqaV7-284" edge="1">
          <mxGeometry relative="1" as="geometry" />
        </mxCell>
        <mxCell id="ZpvMtTJbX905HuRhqaV7-378" value="extend" style="edgeLabel;html=1;align=center;verticalAlign=middle;resizable=0;points=[];fontSize=12;" parent="ZpvMtTJbX905HuRhqaV7-377" vertex="1" connectable="0">
          <mxGeometry x="0.5552" y="1" relative="1" as="geometry">
            <mxPoint as="offset" />
          </mxGeometry>
        </mxCell>
        <mxCell id="ZpvMtTJbX905HuRhqaV7-275" value="Просмотр каталога паровозиков" style="ellipse;whiteSpace=wrap;html=1;" parent="1" vertex="1">
          <mxGeometry x="-1096" y="1214" width="150" height="81" as="geometry" />
        </mxCell>
        <mxCell id="ZpvMtTJbX905HuRhqaV7-305" style="edgeStyle=none;curved=1;rounded=0;orthogonalLoop=1;jettySize=auto;html=1;exitX=0.5;exitY=0;exitDx=0;exitDy=0;fontSize=12;startSize=8;endSize=8;dashed=1;dashPattern=8 8;startArrow=none;startFill=0;endArrow=classic;endFill=1;entryX=0;entryY=0.5;entryDx=0;entryDy=0;" parent="1" source="ZpvMtTJbX905HuRhqaV7-276" target="ZpvMtTJbX905HuRhqaV7-271" edge="1">
          <mxGeometry relative="1" as="geometry">
            <mxPoint x="-1441" y="761" as="targetPoint" />
          </mxGeometry>
        </mxCell>
        <mxCell id="ZpvMtTJbX905HuRhqaV7-306" value="include" style="edgeLabel;html=1;align=center;verticalAlign=middle;resizable=0;points=[];fontSize=12;" parent="ZpvMtTJbX905HuRhqaV7-305" vertex="1" connectable="0">
          <mxGeometry x="0.0551" y="-1" relative="1" as="geometry">
            <mxPoint as="offset" />
          </mxGeometry>
        </mxCell>
        <mxCell id="ZpvMtTJbX905HuRhqaV7-317" style="edgeStyle=none;curved=1;rounded=0;orthogonalLoop=1;jettySize=auto;html=1;fontSize=12;startSize=8;endSize=8;dashed=1;dashPattern=8 8;endArrow=none;endFill=0;startArrow=classic;startFill=1;exitX=1;exitY=0;exitDx=0;exitDy=0;" parent="1" source="ZpvMtTJbX905HuRhqaV7-271" target="ZpvMtTJbX905HuRhqaV7-277" edge="1">
          <mxGeometry relative="1" as="geometry">
            <mxPoint x="-1260" y="907" as="sourcePoint" />
          </mxGeometry>
        </mxCell>
        <mxCell id="ZpvMtTJbX905HuRhqaV7-318" value="include" style="edgeLabel;html=1;align=center;verticalAlign=middle;resizable=0;points=[];fontSize=12;" parent="ZpvMtTJbX905HuRhqaV7-317" vertex="1" connectable="0">
          <mxGeometry x="-0.1356" relative="1" as="geometry">
            <mxPoint x="-10" as="offset" />
          </mxGeometry>
        </mxCell>
        <mxCell id="ZpvMtTJbX905HuRhqaV7-276" value="Вход в личный кабинет" style="ellipse;whiteSpace=wrap;html=1;" parent="1" vertex="1">
          <mxGeometry x="-1494" y="796" width="140" height="70" as="geometry" />
        </mxCell>
        <mxCell id="ZpvMtTJbX905HuRhqaV7-277" value="Просмотр и редактирование профиля" style="ellipse;whiteSpace=wrap;html=1;" parent="1" vertex="1">
          <mxGeometry x="-626" y="710" width="140" height="70" as="geometry" />
        </mxCell>
        <mxCell id="ZpvMtTJbX905HuRhqaV7-278" value="Поиск паровозиков" style="ellipse;whiteSpace=wrap;html=1;" parent="1" vertex="1">
          <mxGeometry x="-1276" y="972" width="140" height="70" as="geometry" />
        </mxCell>
        <mxCell id="ZpvMtTJbX905HuRhqaV7-279" value="Просмотр и редактирование профиля" style="ellipse;whiteSpace=wrap;html=1;" parent="1" vertex="1">
          <mxGeometry x="-423" y="1769" width="140" height="70" as="geometry" />
        </mxCell>
        <mxCell id="ZpvMtTJbX905HuRhqaV7-280" value="Вход в систему" style="ellipse;whiteSpace=wrap;html=1;" parent="1" vertex="1">
          <mxGeometry x="-512" y="1428" width="140" height="70" as="geometry" />
        </mxCell>
        <mxCell id="ZpvMtTJbX905HuRhqaV7-365" style="edgeStyle=none;curved=1;rounded=0;orthogonalLoop=1;jettySize=auto;html=1;exitX=0;exitY=0.5;exitDx=0;exitDy=0;fontSize=12;startSize=8;endSize=8;entryX=0;entryY=0;entryDx=0;entryDy=0;dashed=1;dashPattern=8 8;" parent="1" source="ZpvMtTJbX905HuRhqaV7-281" target="ZpvMtTJbX905HuRhqaV7-280" edge="1">
          <mxGeometry relative="1" as="geometry" />
        </mxCell>
        <mxCell id="ZpvMtTJbX905HuRhqaV7-380" value="include" style="edgeLabel;html=1;align=center;verticalAlign=middle;resizable=0;points=[];fontSize=12;" parent="ZpvMtTJbX905HuRhqaV7-365" vertex="1" connectable="0">
          <mxGeometry x="-0.0701" relative="1" as="geometry">
            <mxPoint as="offset" />
          </mxGeometry>
        </mxCell>
        <mxCell id="ZpvMtTJbX905HuRhqaV7-281" value="Добавление новых товаров" style="ellipse;whiteSpace=wrap;html=1;" parent="1" vertex="1">
          <mxGeometry x="-255" y="913" width="140" height="70" as="geometry" />
        </mxCell>
        <mxCell id="ZpvMtTJbX905HuRhqaV7-282" value="Удаление товаров" style="ellipse;whiteSpace=wrap;html=1;" parent="1" vertex="1">
          <mxGeometry x="-206" y="1515" width="140" height="70" as="geometry" />
        </mxCell>
        <mxCell id="ZpvMtTJbX905HuRhqaV7-366" style="edgeStyle=none;curved=1;rounded=0;orthogonalLoop=1;jettySize=auto;html=1;exitX=0;exitY=0.5;exitDx=0;exitDy=0;entryX=0.5;entryY=0;entryDx=0;entryDy=0;fontSize=12;startSize=8;endSize=8;dashed=1;dashPattern=8 8;" parent="1" source="ZpvMtTJbX905HuRhqaV7-283" target="ZpvMtTJbX905HuRhqaV7-280" edge="1">
          <mxGeometry relative="1" as="geometry" />
        </mxCell>
        <mxCell id="ZpvMtTJbX905HuRhqaV7-381" value="include" style="edgeLabel;html=1;align=center;verticalAlign=middle;resizable=0;points=[];fontSize=12;" parent="ZpvMtTJbX905HuRhqaV7-366" vertex="1" connectable="0">
          <mxGeometry x="-0.2746" y="-1" relative="1" as="geometry">
            <mxPoint as="offset" />
          </mxGeometry>
        </mxCell>
        <mxCell id="ZpvMtTJbX905HuRhqaV7-283" value="Редактирование существующих товаров" style="ellipse;whiteSpace=wrap;html=1;" parent="1" vertex="1">
          <mxGeometry x="-210" y="1084" width="140" height="70" as="geometry" />
        </mxCell>
        <mxCell id="ZpvMtTJbX905HuRhqaV7-326" style="edgeStyle=none;curved=1;rounded=0;orthogonalLoop=1;jettySize=auto;html=1;exitX=0.5;exitY=0;exitDx=0;exitDy=0;fontSize=12;startSize=8;endSize=8;startArrow=none;startFill=0;endArrow=classic;endFill=1;dashed=1;dashPattern=8 8;entryX=1;entryY=0.5;entryDx=0;entryDy=0;" parent="1" source="ZpvMtTJbX905HuRhqaV7-284" target="ZpvMtTJbX905HuRhqaV7-271" edge="1">
          <mxGeometry relative="1" as="geometry" />
        </mxCell>
        <mxCell id="ZpvMtTJbX905HuRhqaV7-327" value="include" style="edgeLabel;html=1;align=center;verticalAlign=middle;resizable=0;points=[];fontSize=12;" parent="ZpvMtTJbX905HuRhqaV7-326" vertex="1" connectable="0">
          <mxGeometry x="-0.2088" y="2" relative="1" as="geometry">
            <mxPoint x="-145" y="-43" as="offset" />
          </mxGeometry>
        </mxCell>
        <mxCell id="ZpvMtTJbX905HuRhqaV7-284" value="Оформление заказа" style="ellipse;whiteSpace=wrap;html=1;" parent="1" vertex="1">
          <mxGeometry x="-682" y="879" width="140" height="70" as="geometry" />
        </mxCell>
        <mxCell id="ZpvMtTJbX905HuRhqaV7-349" style="edgeStyle=none;curved=1;rounded=0;orthogonalLoop=1;jettySize=auto;html=1;exitX=0.5;exitY=0;exitDx=0;exitDy=0;entryX=0.5;entryY=1;entryDx=0;entryDy=0;fontSize=12;startSize=8;endSize=8;dashed=1;dashPattern=8 8;" parent="1" source="ZpvMtTJbX905HuRhqaV7-285" target="ZpvMtTJbX905HuRhqaV7-275" edge="1">
          <mxGeometry relative="1" as="geometry" />
        </mxCell>
        <mxCell id="ZpvMtTJbX905HuRhqaV7-350" value="extend" style="edgeLabel;html=1;align=center;verticalAlign=middle;resizable=0;points=[];fontSize=12;" parent="ZpvMtTJbX905HuRhqaV7-349" vertex="1" connectable="0">
          <mxGeometry x="-0.1194" y="-2" relative="1" as="geometry">
            <mxPoint y="-1" as="offset" />
          </mxGeometry>
        </mxCell>
        <mxCell id="ZpvMtTJbX905HuRhqaV7-285" value="Просмотр 3D- моделей паровозиков" style="ellipse;whiteSpace=wrap;html=1;" parent="1" vertex="1">
          <mxGeometry x="-1091" y="1359" width="140" height="70" as="geometry" />
        </mxCell>
        <mxCell id="ZpvMtTJbX905HuRhqaV7-331" style="edgeStyle=none;curved=1;rounded=0;orthogonalLoop=1;jettySize=auto;html=1;exitX=1;exitY=0;exitDx=0;exitDy=0;entryX=0.5;entryY=1;entryDx=0;entryDy=0;fontSize=12;startSize=8;endSize=8;endArrow=classic;endFill=1;dashed=1;dashPattern=8 8;" parent="1" source="ZpvMtTJbX905HuRhqaV7-288" target="ZpvMtTJbX905HuRhqaV7-284" edge="1">
          <mxGeometry relative="1" as="geometry" />
        </mxCell>
        <mxCell id="ZpvMtTJbX905HuRhqaV7-341" value="include" style="edgeLabel;html=1;align=center;verticalAlign=middle;resizable=0;points=[];fontSize=12;" parent="ZpvMtTJbX905HuRhqaV7-331" vertex="1" connectable="0">
          <mxGeometry x="0.056" y="-6" relative="1" as="geometry">
            <mxPoint x="-9" as="offset" />
          </mxGeometry>
        </mxCell>
        <mxCell id="ZpvMtTJbX905HuRhqaV7-288" value="Просмотр статуса заказа" style="ellipse;whiteSpace=wrap;html=1;" parent="1" vertex="1">
          <mxGeometry x="-763" y="1119" width="140" height="70" as="geometry" />
        </mxCell>
        <mxCell id="ZpvMtTJbX905HuRhqaV7-289" value="Получение скидок" style="ellipse;whiteSpace=wrap;html=1;" parent="1" vertex="1">
          <mxGeometry x="-1508" y="1247" width="140" height="70" as="geometry" />
        </mxCell>
        <mxCell id="ZpvMtTJbX905HuRhqaV7-367" style="edgeStyle=none;curved=1;rounded=0;orthogonalLoop=1;jettySize=auto;html=1;exitX=0;exitY=0.5;exitDx=0;exitDy=0;entryX=1;entryY=0;entryDx=0;entryDy=0;fontSize=12;startSize=8;endSize=8;dashed=1;dashPattern=8 8;" parent="1" source="ZpvMtTJbX905HuRhqaV7-291" target="ZpvMtTJbX905HuRhqaV7-280" edge="1">
          <mxGeometry relative="1" as="geometry" />
        </mxCell>
        <mxCell id="ZpvMtTJbX905HuRhqaV7-382" value="include" style="edgeLabel;html=1;align=center;verticalAlign=middle;resizable=0;points=[];fontSize=12;" parent="ZpvMtTJbX905HuRhqaV7-367" vertex="1" connectable="0">
          <mxGeometry x="-0.322" y="2" relative="1" as="geometry">
            <mxPoint x="24" y="-30" as="offset" />
          </mxGeometry>
        </mxCell>
        <mxCell id="ZpvMtTJbX905HuRhqaV7-291" value="Добавление 3D-моделей" style="ellipse;whiteSpace=wrap;html=1;" parent="1" vertex="1">
          <mxGeometry x="-139" y="1201" width="140" height="70" as="geometry" />
        </mxCell>
        <mxCell id="ZpvMtTJbX905HuRhqaV7-370" style="edgeStyle=none;curved=1;rounded=0;orthogonalLoop=1;jettySize=auto;html=1;exitX=0;exitY=0.5;exitDx=0;exitDy=0;entryX=0.5;entryY=1;entryDx=0;entryDy=0;fontSize=12;startSize=8;endSize=8;dashed=1;dashPattern=8 8;" parent="1" source="ZpvMtTJbX905HuRhqaV7-292" target="ZpvMtTJbX905HuRhqaV7-280" edge="1">
          <mxGeometry relative="1" as="geometry" />
        </mxCell>
        <mxCell id="ZpvMtTJbX905HuRhqaV7-385" value="include" style="edgeLabel;html=1;align=center;verticalAlign=middle;resizable=0;points=[];fontSize=12;" parent="ZpvMtTJbX905HuRhqaV7-370" vertex="1" connectable="0">
          <mxGeometry x="-0.1455" y="-5" relative="1" as="geometry">
            <mxPoint as="offset" />
          </mxGeometry>
        </mxCell>
        <mxCell id="ZpvMtTJbX905HuRhqaV7-292" value="Обновление 3D-моделей" style="ellipse;whiteSpace=wrap;html=1;" parent="1" vertex="1">
          <mxGeometry x="-302" y="1635" width="140" height="70" as="geometry" />
        </mxCell>
        <mxCell id="ZpvMtTJbX905HuRhqaV7-293" value="Просмотр и управление заказами клиентов" style="ellipse;whiteSpace=wrap;html=1;" parent="1" vertex="1">
          <mxGeometry x="-96" y="1279" width="157" height="80" as="geometry" />
        </mxCell>
        <mxCell id="ZpvMtTJbX905HuRhqaV7-373" style="edgeStyle=none;curved=1;rounded=0;orthogonalLoop=1;jettySize=auto;html=1;exitX=0;exitY=0;exitDx=0;exitDy=0;entryX=0;entryY=0.5;entryDx=0;entryDy=0;fontSize=12;startSize=8;endSize=8;dashed=1;dashPattern=8 8;" parent="1" source="ZpvMtTJbX905HuRhqaV7-294" target="ZpvMtTJbX905HuRhqaV7-280" edge="1">
          <mxGeometry relative="1" as="geometry" />
        </mxCell>
        <mxCell id="ZpvMtTJbX905HuRhqaV7-387" value="include" style="edgeLabel;html=1;align=center;verticalAlign=middle;resizable=0;points=[];fontSize=12;" parent="ZpvMtTJbX905HuRhqaV7-373" vertex="1" connectable="0">
          <mxGeometry x="-0.08" y="-3" relative="1" as="geometry">
            <mxPoint as="offset" />
          </mxGeometry>
        </mxCell>
        <mxCell id="ZpvMtTJbX905HuRhqaV7-294" value="Создание отчетов по продажам" style="ellipse;whiteSpace=wrap;html=1;" parent="1" vertex="1">
          <mxGeometry x="-479" y="1906" width="140" height="70" as="geometry" />
        </mxCell>
        <mxCell id="ZpvMtTJbX905HuRhqaV7-403" style="edgeStyle=none;curved=1;rounded=0;orthogonalLoop=1;jettySize=auto;html=1;exitX=0.5;exitY=0;exitDx=0;exitDy=0;entryX=1;entryY=0.5;entryDx=0;entryDy=0;fontSize=12;startSize=8;endSize=8;dashed=1;dashPattern=8 8;" parent="1" source="ZpvMtTJbX905HuRhqaV7-295" target="ZpvMtTJbX905HuRhqaV7-299" edge="1">
          <mxGeometry relative="1" as="geometry" />
        </mxCell>
        <mxCell id="ZpvMtTJbX905HuRhqaV7-413" value="include" style="edgeLabel;html=1;align=center;verticalAlign=middle;resizable=0;points=[];fontSize=12;" parent="ZpvMtTJbX905HuRhqaV7-403" vertex="1" connectable="0">
          <mxGeometry x="0.0869" y="-4" relative="1" as="geometry">
            <mxPoint y="1" as="offset" />
          </mxGeometry>
        </mxCell>
        <mxCell id="ZpvMtTJbX905HuRhqaV7-295" value="Удаление учетных записей" style="ellipse;whiteSpace=wrap;html=1;" parent="1" vertex="1">
          <mxGeometry x="-918" y="2514" width="140" height="70" as="geometry" />
        </mxCell>
        <mxCell id="ZpvMtTJbX905HuRhqaV7-404" style="edgeStyle=none;curved=1;rounded=0;orthogonalLoop=1;jettySize=auto;html=1;exitX=0.5;exitY=0;exitDx=0;exitDy=0;entryX=0.5;entryY=1;entryDx=0;entryDy=0;fontSize=12;startSize=8;endSize=8;dashed=1;dashPattern=8 8;" parent="1" source="ZpvMtTJbX905HuRhqaV7-296" target="ZpvMtTJbX905HuRhqaV7-299" edge="1">
          <mxGeometry relative="1" as="geometry" />
        </mxCell>
        <mxCell id="ZpvMtTJbX905HuRhqaV7-412" value="include" style="edgeLabel;html=1;align=center;verticalAlign=middle;resizable=0;points=[];fontSize=12;" parent="ZpvMtTJbX905HuRhqaV7-404" vertex="1" connectable="0">
          <mxGeometry x="0.2939" y="4" relative="1" as="geometry">
            <mxPoint y="1" as="offset" />
          </mxGeometry>
        </mxCell>
        <mxCell id="ZpvMtTJbX905HuRhqaV7-296" value="Создание шаблонов скидок" style="ellipse;whiteSpace=wrap;html=1;" parent="1" vertex="1">
          <mxGeometry x="-1097" y="2565" width="140" height="70" as="geometry" />
        </mxCell>
        <mxCell id="ZpvMtTJbX905HuRhqaV7-402" style="edgeStyle=none;curved=1;rounded=0;orthogonalLoop=1;jettySize=auto;html=1;exitX=0.5;exitY=0;exitDx=0;exitDy=0;fontSize=12;startSize=8;endSize=8;dashed=1;dashPattern=8 8;" parent="1" source="ZpvMtTJbX905HuRhqaV7-297" target="ZpvMtTJbX905HuRhqaV7-299" edge="1">
          <mxGeometry relative="1" as="geometry" />
        </mxCell>
        <mxCell id="ZpvMtTJbX905HuRhqaV7-411" value="include" style="edgeLabel;html=1;align=center;verticalAlign=middle;resizable=0;points=[];fontSize=12;" parent="ZpvMtTJbX905HuRhqaV7-402" vertex="1" connectable="0">
          <mxGeometry x="-0.0108" y="-1" relative="1" as="geometry">
            <mxPoint as="offset" />
          </mxGeometry>
        </mxCell>
        <mxCell id="ZpvMtTJbX905HuRhqaV7-297" value="Изменение прав доступа" style="ellipse;whiteSpace=wrap;html=1;" parent="1" vertex="1">
          <mxGeometry x="-1164" y="2404" width="140" height="70" as="geometry" />
        </mxCell>
        <mxCell id="ZpvMtTJbX905HuRhqaV7-298" value="Добавление учетных записей" style="ellipse;whiteSpace=wrap;html=1;" parent="1" vertex="1">
          <mxGeometry x="-1257" y="2151" width="140" height="70" as="geometry" />
        </mxCell>
        <mxCell id="ZpvMtTJbX905HuRhqaV7-299" value="Вход в систему" style="ellipse;whiteSpace=wrap;html=1;" parent="1" vertex="1">
          <mxGeometry x="-1025" y="2257" width="140" height="70" as="geometry" />
        </mxCell>
        <mxCell id="ZpvMtTJbX905HuRhqaV7-399" style="edgeStyle=none;curved=1;rounded=0;orthogonalLoop=1;jettySize=auto;html=1;exitX=1;exitY=0.5;exitDx=0;exitDy=0;entryX=0.5;entryY=0;entryDx=0;entryDy=0;fontSize=12;startSize=8;endSize=8;dashed=1;dashPattern=8 8;" parent="1" source="ZpvMtTJbX905HuRhqaV7-300" target="ZpvMtTJbX905HuRhqaV7-299" edge="1">
          <mxGeometry relative="1" as="geometry" />
        </mxCell>
        <mxCell id="ZpvMtTJbX905HuRhqaV7-408" value="include" style="edgeLabel;html=1;align=center;verticalAlign=middle;resizable=0;points=[];fontSize=12;" parent="ZpvMtTJbX905HuRhqaV7-399" vertex="1" connectable="0">
          <mxGeometry x="0.2844" y="3" relative="1" as="geometry">
            <mxPoint as="offset" />
          </mxGeometry>
        </mxCell>
        <mxCell id="ZpvMtTJbX905HuRhqaV7-300" value="Контроль качества контента" style="ellipse;whiteSpace=wrap;html=1;" parent="1" vertex="1">
          <mxGeometry x="-1353" y="2049" width="140" height="70" as="geometry" />
        </mxCell>
        <mxCell id="ZpvMtTJbX905HuRhqaV7-400" style="edgeStyle=none;curved=1;rounded=0;orthogonalLoop=1;jettySize=auto;html=1;exitX=0.791;exitY=0.92;exitDx=0;exitDy=0;entryX=1;entryY=0;entryDx=0;entryDy=0;fontSize=12;startSize=8;endSize=8;exitPerimeter=0;dashed=1;dashPattern=8 8;" parent="1" source="ZpvMtTJbX905HuRhqaV7-301" target="ZpvMtTJbX905HuRhqaV7-299" edge="1">
          <mxGeometry relative="1" as="geometry" />
        </mxCell>
        <mxCell id="ZpvMtTJbX905HuRhqaV7-407" value="include" style="edgeLabel;html=1;align=center;verticalAlign=middle;resizable=0;points=[];fontSize=12;" parent="ZpvMtTJbX905HuRhqaV7-400" vertex="1" connectable="0">
          <mxGeometry x="-0.0802" y="5" relative="1" as="geometry">
            <mxPoint as="offset" />
          </mxGeometry>
        </mxCell>
        <mxCell id="ZpvMtTJbX905HuRhqaV7-301" value="Одобрение или отклонение контента" style="ellipse;whiteSpace=wrap;html=1;" parent="1" vertex="1">
          <mxGeometry x="-1285" y="1944" width="140" height="70" as="geometry" />
        </mxCell>
        <mxCell id="ZpvMtTJbX905HuRhqaV7-302" value="Назначение скидок клиентам" style="ellipse;whiteSpace=wrap;html=1;" parent="1" vertex="1">
          <mxGeometry x="-1304" y="2331" width="140" height="70" as="geometry" />
        </mxCell>
        <mxCell id="ZpvMtTJbX905HuRhqaV7-322" style="edgeStyle=none;curved=1;rounded=0;orthogonalLoop=1;jettySize=auto;html=1;exitX=0.5;exitY=0.5;exitDx=0;exitDy=0;exitPerimeter=0;entryX=0.057;entryY=0.771;entryDx=0;entryDy=0;entryPerimeter=0;fontSize=12;startSize=8;endSize=8;endArrow=none;endFill=0;" parent="1" source="ZpvMtTJbX905HuRhqaV7-267" target="ZpvMtTJbX905HuRhqaV7-277" edge="1">
          <mxGeometry relative="1" as="geometry">
            <Array as="points" />
          </mxGeometry>
        </mxCell>
        <mxCell id="ZpvMtTJbX905HuRhqaV7-337" style="edgeStyle=none;curved=1;rounded=0;orthogonalLoop=1;jettySize=auto;html=1;exitX=0.5;exitY=0;exitDx=0;exitDy=0;fontSize=12;startSize=8;endSize=8;endArrow=classic;endFill=1;dashed=1;dashPattern=8 8;entryX=0.419;entryY=0.984;entryDx=0;entryDy=0;entryPerimeter=0;" parent="1" source="ZpvMtTJbX905HuRhqaV7-278" target="ZpvMtTJbX905HuRhqaV7-271" edge="1">
          <mxGeometry relative="1" as="geometry">
            <mxPoint x="-1261" y="763" as="targetPoint" />
          </mxGeometry>
        </mxCell>
        <mxCell id="ZpvMtTJbX905HuRhqaV7-338" value="extend" style="edgeLabel;html=1;align=center;verticalAlign=middle;resizable=0;points=[];fontSize=12;" parent="ZpvMtTJbX905HuRhqaV7-337" vertex="1" connectable="0">
          <mxGeometry x="0.0981" y="-1" relative="1" as="geometry">
            <mxPoint x="-2" y="-12" as="offset" />
          </mxGeometry>
        </mxCell>
        <mxCell id="ZpvMtTJbX905HuRhqaV7-343" style="edgeStyle=none;curved=1;rounded=0;orthogonalLoop=1;jettySize=auto;html=1;exitX=0.5;exitY=0;exitDx=0;exitDy=0;entryX=0.062;entryY=0.739;entryDx=0;entryDy=0;entryPerimeter=0;fontSize=12;startSize=8;endSize=8;dashed=1;dashPattern=8 8;" parent="1" source="ZpvMtTJbX905HuRhqaV7-289" target="ZpvMtTJbX905HuRhqaV7-271" edge="1">
          <mxGeometry relative="1" as="geometry" />
        </mxCell>
        <mxCell id="ZpvMtTJbX905HuRhqaV7-344" value="include" style="edgeLabel;html=1;align=center;verticalAlign=middle;resizable=0;points=[];fontSize=12;" parent="ZpvMtTJbX905HuRhqaV7-343" vertex="1" connectable="0">
          <mxGeometry x="0.3413" y="3" relative="1" as="geometry">
            <mxPoint y="14" as="offset" />
          </mxGeometry>
        </mxCell>
        <mxCell id="ZpvMtTJbX905HuRhqaV7-286" value="Добавление товаров в корзину" style="ellipse;whiteSpace=wrap;html=1;" parent="1" vertex="1">
          <mxGeometry x="-1034" y="1044" width="140" height="70" as="geometry" />
        </mxCell>
        <mxCell id="ZpvMtTJbX905HuRhqaV7-352" style="edgeStyle=none;curved=1;rounded=0;orthogonalLoop=1;jettySize=auto;html=1;exitX=0.5;exitY=0.5;exitDx=0;exitDy=0;exitPerimeter=0;entryX=0.053;entryY=0.68;entryDx=0;entryDy=0;entryPerimeter=0;fontSize=12;startSize=8;endSize=8;endArrow=none;endFill=0;" parent="1" source="ZpvMtTJbX905HuRhqaV7-267" target="ZpvMtTJbX905HuRhqaV7-288" edge="1">
          <mxGeometry relative="1" as="geometry" />
        </mxCell>
        <mxCell id="ZpvMtTJbX905HuRhqaV7-353" style="edgeStyle=none;curved=1;rounded=0;orthogonalLoop=1;jettySize=auto;html=1;exitX=0.5;exitY=0;exitDx=0;exitDy=0;entryX=0.256;entryY=0.943;entryDx=0;entryDy=0;entryPerimeter=0;fontSize=12;startSize=8;endSize=8;dashed=1;dashPattern=8 8;" parent="1" source="ZpvMtTJbX905HuRhqaV7-274" target="ZpvMtTJbX905HuRhqaV7-271" edge="1">
          <mxGeometry relative="1" as="geometry" />
        </mxCell>
        <mxCell id="ZpvMtTJbX905HuRhqaV7-354" value="extend" style="edgeLabel;html=1;align=center;verticalAlign=middle;resizable=0;points=[];fontSize=12;" parent="ZpvMtTJbX905HuRhqaV7-353" vertex="1" connectable="0">
          <mxGeometry x="0.6302" relative="1" as="geometry">
            <mxPoint y="-1" as="offset" />
          </mxGeometry>
        </mxCell>
        <mxCell id="ZpvMtTJbX905HuRhqaV7-360" style="edgeStyle=none;curved=1;rounded=0;orthogonalLoop=1;jettySize=auto;html=1;exitX=0.5;exitY=0.5;exitDx=0;exitDy=0;exitPerimeter=0;entryX=1;entryY=1;entryDx=0;entryDy=0;fontSize=12;startSize=8;endSize=8;endArrow=none;endFill=0;" parent="1" source="ZpvMtTJbX905HuRhqaV7-269" target="ZpvMtTJbX905HuRhqaV7-293" edge="1">
          <mxGeometry relative="1" as="geometry" />
        </mxCell>
        <mxCell id="ZpvMtTJbX905HuRhqaV7-368" style="edgeStyle=none;curved=1;rounded=0;orthogonalLoop=1;jettySize=auto;html=1;exitX=0;exitY=0.5;exitDx=0;exitDy=0;entryX=0.968;entryY=0.361;entryDx=0;entryDy=0;entryPerimeter=0;fontSize=12;startSize=8;endSize=8;dashed=1;dashPattern=8 8;" parent="1" source="ZpvMtTJbX905HuRhqaV7-293" target="ZpvMtTJbX905HuRhqaV7-280" edge="1">
          <mxGeometry relative="1" as="geometry" />
        </mxCell>
        <mxCell id="ZpvMtTJbX905HuRhqaV7-383" value="include" style="edgeLabel;html=1;align=center;verticalAlign=middle;resizable=0;points=[];fontSize=12;" parent="ZpvMtTJbX905HuRhqaV7-368" vertex="1" connectable="0">
          <mxGeometry x="-0.3916" y="-4" relative="1" as="geometry">
            <mxPoint x="-27" y="17" as="offset" />
          </mxGeometry>
        </mxCell>
        <mxCell id="ZpvMtTJbX905HuRhqaV7-369" style="edgeStyle=none;curved=1;rounded=0;orthogonalLoop=1;jettySize=auto;html=1;exitX=0;exitY=0.5;exitDx=0;exitDy=0;entryX=0.958;entryY=0.708;entryDx=0;entryDy=0;entryPerimeter=0;fontSize=12;startSize=8;endSize=8;dashed=1;dashPattern=8 8;" parent="1" source="ZpvMtTJbX905HuRhqaV7-282" target="ZpvMtTJbX905HuRhqaV7-280" edge="1">
          <mxGeometry relative="1" as="geometry" />
        </mxCell>
        <mxCell id="ZpvMtTJbX905HuRhqaV7-384" value="include" style="edgeLabel;html=1;align=center;verticalAlign=middle;resizable=0;points=[];fontSize=12;" parent="ZpvMtTJbX905HuRhqaV7-369" vertex="1" connectable="0">
          <mxGeometry x="-0.175" y="-1" relative="1" as="geometry">
            <mxPoint as="offset" />
          </mxGeometry>
        </mxCell>
        <mxCell id="ZpvMtTJbX905HuRhqaV7-372" style="edgeStyle=none;curved=1;rounded=0;orthogonalLoop=1;jettySize=auto;html=1;exitX=0.5;exitY=0;exitDx=0;exitDy=0;entryX=0.254;entryY=0.953;entryDx=0;entryDy=0;entryPerimeter=0;fontSize=12;startSize=8;endSize=8;dashed=1;dashPattern=8 8;" parent="1" source="ZpvMtTJbX905HuRhqaV7-279" target="ZpvMtTJbX905HuRhqaV7-280" edge="1">
          <mxGeometry relative="1" as="geometry" />
        </mxCell>
        <mxCell id="ZpvMtTJbX905HuRhqaV7-386" value="include" style="edgeLabel;html=1;align=center;verticalAlign=middle;resizable=0;points=[];fontSize=12;" parent="ZpvMtTJbX905HuRhqaV7-372" vertex="1" connectable="0">
          <mxGeometry x="-0.0833" y="-3" relative="1" as="geometry">
            <mxPoint x="1" as="offset" />
          </mxGeometry>
        </mxCell>
        <mxCell id="ZpvMtTJbX905HuRhqaV7-398" style="edgeStyle=none;curved=1;rounded=0;orthogonalLoop=1;jettySize=auto;html=1;exitX=1;exitY=1;exitDx=0;exitDy=0;entryX=0.056;entryY=0.306;entryDx=0;entryDy=0;entryPerimeter=0;fontSize=12;startSize=8;endSize=8;dashed=1;dashPattern=8 8;" parent="1" source="ZpvMtTJbX905HuRhqaV7-298" target="ZpvMtTJbX905HuRhqaV7-299" edge="1">
          <mxGeometry relative="1" as="geometry" />
        </mxCell>
        <mxCell id="ZpvMtTJbX905HuRhqaV7-409" value="include" style="edgeLabel;html=1;align=center;verticalAlign=middle;resizable=0;points=[];fontSize=12;" parent="ZpvMtTJbX905HuRhqaV7-398" vertex="1" connectable="0">
          <mxGeometry x="-0.1474" y="-5" relative="1" as="geometry">
            <mxPoint as="offset" />
          </mxGeometry>
        </mxCell>
        <mxCell id="ZpvMtTJbX905HuRhqaV7-401" style="edgeStyle=none;curved=1;rounded=0;orthogonalLoop=1;jettySize=auto;html=1;exitX=1;exitY=0;exitDx=0;exitDy=0;entryX=0.077;entryY=0.755;entryDx=0;entryDy=0;entryPerimeter=0;fontSize=12;startSize=8;endSize=8;dashed=1;dashPattern=8 8;" parent="1" source="ZpvMtTJbX905HuRhqaV7-302" target="ZpvMtTJbX905HuRhqaV7-299" edge="1">
          <mxGeometry relative="1" as="geometry" />
        </mxCell>
        <mxCell id="ZpvMtTJbX905HuRhqaV7-410" value="include" style="edgeLabel;html=1;align=center;verticalAlign=middle;resizable=0;points=[];fontSize=12;" parent="ZpvMtTJbX905HuRhqaV7-401" vertex="1" connectable="0">
          <mxGeometry x="0.2076" relative="1" as="geometry">
            <mxPoint as="offset" />
          </mxGeometry>
        </mxCell>
        <mxCell id="ZpvMtTJbX905HuRhqaV7-414" value="UML- Диаграмма использования" style="text;html=1;align=center;verticalAlign=middle;resizable=0;points=[];autosize=1;strokeColor=none;fillColor=none;fontSize=16;" parent="1" vertex="1">
          <mxGeometry x="-2286.5" y="612.5" width="261" height="31" as="geometry" />
        </mxCell>
        <mxCell id="Bd0whEzq2eXaBj5mWEO1-1" value="" style="shape=umlLifeline;perimeter=lifelinePerimeter;whiteSpace=wrap;html=1;container=1;dropTarget=0;collapsible=0;recursiveResize=0;outlineConnect=0;portConstraint=eastwest;newEdgeStyle={&quot;curved&quot;:0,&quot;rounded&quot;:0};participant=umlActor;" parent="1" vertex="1">
          <mxGeometry x="-903.5" y="3217" width="20" height="612" as="geometry" />
        </mxCell>
        <mxCell id="Bd0whEzq2eXaBj5mWEO1-11" value="" style="html=1;points=[[0,0,0,0,5],[0,1,0,0,-5],[1,0,0,0,5],[1,1,0,0,-5]];perimeter=orthogonalPerimeter;outlineConnect=0;targetShapes=umlLifeline;portConstraint=eastwest;newEdgeStyle={&quot;curved&quot;:0,&quot;rounded&quot;:0};" parent="Bd0whEzq2eXaBj5mWEO1-1" vertex="1">
          <mxGeometry x="5" y="63" width="10" height="283" as="geometry" />
        </mxCell>
        <mxCell id="Bd0whEzq2eXaBj5mWEO1-33" value="" style="html=1;points=[[0,0,0,0,5],[0,1,0,0,-5],[1,0,0,0,5],[1,1,0,0,-5]];perimeter=orthogonalPerimeter;outlineConnect=0;targetShapes=umlLifeline;portConstraint=eastwest;newEdgeStyle={&quot;curved&quot;:0,&quot;rounded&quot;:0};" parent="Bd0whEzq2eXaBj5mWEO1-1" vertex="1">
          <mxGeometry x="5" y="436" width="10" height="89" as="geometry" />
        </mxCell>
        <mxCell id="Bd0whEzq2eXaBj5mWEO1-2" value="UML-диаграмма последовательности" style="text;html=1;align=center;verticalAlign=middle;resizable=0;points=[];autosize=1;strokeColor=none;fillColor=none;" parent="1" vertex="1">
          <mxGeometry x="-1223" y="3144" width="227" height="26" as="geometry" />
        </mxCell>
        <mxCell id="Bd0whEzq2eXaBj5mWEO1-3" value="Диаграмма показывает процесс регистрации клиента" style="text;html=1;align=center;verticalAlign=middle;resizable=0;points=[];autosize=1;strokeColor=none;fillColor=none;" parent="1" vertex="1">
          <mxGeometry x="-1266" y="3173" width="317" height="26" as="geometry" />
        </mxCell>
        <mxCell id="Bd0whEzq2eXaBj5mWEO1-4" value="пользователь" style="text;html=1;align=center;verticalAlign=middle;resizable=0;points=[];autosize=1;strokeColor=none;fillColor=none;" parent="1" vertex="1">
          <mxGeometry x="-938" y="3245" width="94" height="26" as="geometry" />
        </mxCell>
        <mxCell id="Bd0whEzq2eXaBj5mWEO1-5" value="" style="shape=umlLifeline;perimeter=lifelinePerimeter;whiteSpace=wrap;html=1;container=1;dropTarget=0;collapsible=0;recursiveResize=0;outlineConnect=0;portConstraint=eastwest;newEdgeStyle={&quot;curved&quot;:0,&quot;rounded&quot;:0};participant=umlBoundary;" parent="1" vertex="1">
          <mxGeometry x="-630" y="3202" width="50" height="634" as="geometry" />
        </mxCell>
        <mxCell id="Bd0whEzq2eXaBj5mWEO1-12" value="" style="html=1;points=[[0,0,0,0,5],[0,1,0,0,-5],[1,0,0,0,5],[1,1,0,0,-5]];perimeter=orthogonalPerimeter;outlineConnect=0;targetShapes=umlLifeline;portConstraint=eastwest;newEdgeStyle={&quot;curved&quot;:0,&quot;rounded&quot;:0};" parent="Bd0whEzq2eXaBj5mWEO1-5" vertex="1">
          <mxGeometry x="20" y="85" width="10" height="203" as="geometry" />
        </mxCell>
        <mxCell id="Bd0whEzq2eXaBj5mWEO1-6" value="форма регистрации" style="text;html=1;align=center;verticalAlign=middle;resizable=0;points=[];autosize=1;strokeColor=none;fillColor=none;" parent="1" vertex="1">
          <mxGeometry x="-657" y="3238" width="129" height="26" as="geometry" />
        </mxCell>
        <mxCell id="Bd0whEzq2eXaBj5mWEO1-7" value="" style="shape=umlLifeline;perimeter=lifelinePerimeter;whiteSpace=wrap;html=1;container=1;dropTarget=0;collapsible=0;recursiveResize=0;outlineConnect=0;portConstraint=eastwest;newEdgeStyle={&quot;curved&quot;:0,&quot;rounded&quot;:0};participant=umlControl;" parent="1" vertex="1">
          <mxGeometry x="-367" y="3195" width="40" height="642" as="geometry" />
        </mxCell>
        <mxCell id="Bd0whEzq2eXaBj5mWEO1-16" value="" style="html=1;points=[[0,0,0,0,5],[0,1,0,0,-5],[1,0,0,0,5],[1,1,0,0,-5]];perimeter=orthogonalPerimeter;outlineConnect=0;targetShapes=umlLifeline;portConstraint=eastwest;newEdgeStyle={&quot;curved&quot;:0,&quot;rounded&quot;:0};" parent="Bd0whEzq2eXaBj5mWEO1-7" vertex="1">
          <mxGeometry x="15" y="102" width="10" height="167" as="geometry" />
        </mxCell>
        <mxCell id="Bd0whEzq2eXaBj5mWEO1-35" value="" style="html=1;points=[[0,0,0,0,5],[0,1,0,0,-5],[1,0,0,0,5],[1,1,0,0,-5]];perimeter=orthogonalPerimeter;outlineConnect=0;targetShapes=umlLifeline;portConstraint=eastwest;newEdgeStyle={&quot;curved&quot;:0,&quot;rounded&quot;:0};" parent="Bd0whEzq2eXaBj5mWEO1-7" vertex="1">
          <mxGeometry x="15" y="453" width="10" height="95" as="geometry" />
        </mxCell>
        <mxCell id="Bd0whEzq2eXaBj5mWEO1-8" value="программный модуль&lt;div&gt;регистрации&lt;/div&gt;" style="text;html=1;align=center;verticalAlign=middle;resizable=0;points=[];autosize=1;strokeColor=none;fillColor=none;" parent="1" vertex="1">
          <mxGeometry x="-412" y="3230.5" width="138" height="41" as="geometry" />
        </mxCell>
        <mxCell id="Bd0whEzq2eXaBj5mWEO1-9" value="" style="shape=umlLifeline;perimeter=lifelinePerimeter;whiteSpace=wrap;html=1;container=1;dropTarget=0;collapsible=0;recursiveResize=0;outlineConnect=0;portConstraint=eastwest;newEdgeStyle={&quot;curved&quot;:0,&quot;rounded&quot;:0};participant=umlEntity;" parent="1" vertex="1">
          <mxGeometry x="-106" y="3195" width="40" height="652" as="geometry" />
        </mxCell>
        <mxCell id="Bd0whEzq2eXaBj5mWEO1-10" value="БД" style="text;html=1;align=center;verticalAlign=middle;resizable=0;points=[];autosize=1;strokeColor=none;fillColor=none;" parent="1" vertex="1">
          <mxGeometry x="-104" y="3237.5" width="34" height="26" as="geometry" />
        </mxCell>
        <mxCell id="Bd0whEzq2eXaBj5mWEO1-13" value="" style="endArrow=open;endFill=1;endSize=12;html=1;rounded=0;" parent="1" edge="1">
          <mxGeometry width="160" relative="1" as="geometry">
            <mxPoint x="-888" y="3298" as="sourcePoint" />
            <mxPoint x="-610" y="3298" as="targetPoint" />
          </mxGeometry>
        </mxCell>
        <mxCell id="Bd0whEzq2eXaBj5mWEO1-14" value="ввод данных для регистрации" style="text;html=1;align=center;verticalAlign=middle;resizable=0;points=[];autosize=1;strokeColor=none;fillColor=none;" parent="1" vertex="1">
          <mxGeometry x="-876" y="3271" width="186" height="26" as="geometry" />
        </mxCell>
        <mxCell id="Bd0whEzq2eXaBj5mWEO1-17" value="" style="endArrow=open;endFill=1;endSize=12;html=1;rounded=0;" parent="1" target="Bd0whEzq2eXaBj5mWEO1-7" edge="1">
          <mxGeometry width="160" relative="1" as="geometry">
            <mxPoint x="-600" y="3322" as="sourcePoint" />
            <mxPoint x="-440" y="3322" as="targetPoint" />
          </mxGeometry>
        </mxCell>
        <mxCell id="Bd0whEzq2eXaBj5mWEO1-18" value="отправка данных для регистрации" style="text;html=1;align=center;verticalAlign=middle;resizable=0;points=[];autosize=1;strokeColor=none;fillColor=none;" parent="1" vertex="1">
          <mxGeometry x="-586" y="3297" width="210" height="26" as="geometry" />
        </mxCell>
        <mxCell id="Bd0whEzq2eXaBj5mWEO1-19" value="" style="endArrow=open;endFill=1;endSize=12;html=1;rounded=0;edgeStyle=orthogonalEdgeStyle;" parent="1" target="Bd0whEzq2eXaBj5mWEO1-16" edge="1">
          <mxGeometry width="160" relative="1" as="geometry">
            <mxPoint x="-342" y="3349" as="sourcePoint" />
            <mxPoint x="-317" y="3419" as="targetPoint" />
            <Array as="points">
              <mxPoint x="-309" y="3349" />
              <mxPoint x="-309" y="3416" />
            </Array>
          </mxGeometry>
        </mxCell>
        <mxCell id="Bd0whEzq2eXaBj5mWEO1-20" value="валидация&amp;nbsp;&lt;div&gt;данных&lt;/div&gt;" style="text;html=1;align=center;verticalAlign=middle;resizable=0;points=[];autosize=1;strokeColor=none;fillColor=none;" parent="1" vertex="1">
          <mxGeometry x="-310" y="3363" width="82" height="41" as="geometry" />
        </mxCell>
        <mxCell id="Bd0whEzq2eXaBj5mWEO1-24" value="alt" style="shape=umlFrame;whiteSpace=wrap;html=1;pointerEvents=0;" parent="1" vertex="1">
          <mxGeometry x="-973" y="3429" width="950" height="327" as="geometry" />
        </mxCell>
        <mxCell id="Bd0whEzq2eXaBj5mWEO1-26" value="" style="endArrow=open;endFill=1;endSize=12;html=1;rounded=0;dashed=1;dashPattern=8 8;" parent="1" target="Bd0whEzq2eXaBj5mWEO1-12" edge="1">
          <mxGeometry width="160" relative="1" as="geometry">
            <mxPoint x="-353" y="3448" as="sourcePoint" />
            <mxPoint x="-494" y="3448" as="targetPoint" />
          </mxGeometry>
        </mxCell>
        <mxCell id="Bd0whEzq2eXaBj5mWEO1-27" value="сообщение о некорректном вводе" style="text;html=1;align=center;verticalAlign=middle;resizable=0;points=[];autosize=1;strokeColor=none;fillColor=none;" parent="1" vertex="1">
          <mxGeometry x="-577" y="3445" width="208" height="26" as="geometry" />
        </mxCell>
        <mxCell id="Bd0whEzq2eXaBj5mWEO1-28" value="" style="endArrow=open;endFill=1;endSize=12;html=1;rounded=0;dashed=1;dashPattern=8 8;" parent="1" target="Bd0whEzq2eXaBj5mWEO1-11" edge="1">
          <mxGeometry width="160" relative="1" as="geometry">
            <mxPoint x="-613" y="3470.13" as="sourcePoint" />
            <mxPoint x="-860" y="3470.13" as="targetPoint" />
          </mxGeometry>
        </mxCell>
        <mxCell id="Bd0whEzq2eXaBj5mWEO1-29" value="регистрация не дошла" style="text;html=1;align=center;verticalAlign=middle;resizable=0;points=[];autosize=1;strokeColor=none;fillColor=none;" parent="1" vertex="1">
          <mxGeometry x="-841" y="3466" width="144" height="26" as="geometry" />
        </mxCell>
        <mxCell id="Bd0whEzq2eXaBj5mWEO1-30" value="фрейм alt - несколько альтернативных фрагментов,&amp;nbsp;&lt;div&gt;выполняется только тот фрагмент условие которого истина&lt;/div&gt;" style="text;html=1;align=center;verticalAlign=middle;resizable=0;points=[];autosize=1;strokeColor=none;fillColor=none;" parent="1" vertex="1">
          <mxGeometry x="-1358" y="3429" width="351" height="41" as="geometry" />
        </mxCell>
        <mxCell id="Bd0whEzq2eXaBj5mWEO1-31" value="[введены&amp;nbsp;&lt;div&gt;некорректные&lt;/div&gt;&lt;div&gt;&amp;nbsp;данные]&lt;/div&gt;" style="text;html=1;align=center;verticalAlign=middle;resizable=0;points=[];autosize=1;strokeColor=none;fillColor=none;" parent="1" vertex="1">
          <mxGeometry x="-940" y="3482" width="96" height="55" as="geometry" />
        </mxCell>
        <mxCell id="Bd0whEzq2eXaBj5mWEO1-32" value="" style="line;strokeWidth=1;fillColor=none;align=left;verticalAlign=middle;spacingTop=-1;spacingLeft=3;spacingRight=3;rotatable=0;labelPosition=right;points=[];portConstraint=eastwest;strokeColor=inherit;dashed=1;dashPattern=8 8;" parent="1" vertex="1">
          <mxGeometry x="-975" y="3588.5" width="958" height="8" as="geometry" />
        </mxCell>
        <mxCell id="Bd0whEzq2eXaBj5mWEO1-34" value="" style="html=1;points=[[0,0,0,0,5],[0,1,0,0,-5],[1,0,0,0,5],[1,1,0,0,-5]];perimeter=orthogonalPerimeter;outlineConnect=0;targetShapes=umlLifeline;portConstraint=eastwest;newEdgeStyle={&quot;curved&quot;:0,&quot;rounded&quot;:0};" parent="1" vertex="1">
          <mxGeometry x="-610" y="3651" width="10" height="92" as="geometry" />
        </mxCell>
        <mxCell id="Bd0whEzq2eXaBj5mWEO1-36" value="" style="html=1;points=[[0,0,0,0,5],[0,1,0,0,-5],[1,0,0,0,5],[1,1,0,0,-5]];perimeter=orthogonalPerimeter;outlineConnect=0;targetShapes=umlLifeline;portConstraint=eastwest;newEdgeStyle={&quot;curved&quot;:0,&quot;rounded&quot;:0};" parent="1" vertex="1">
          <mxGeometry x="-92" y="3647" width="10" height="96" as="geometry" />
        </mxCell>
        <mxCell id="Bd0whEzq2eXaBj5mWEO1-37" value="" style="endArrow=open;endFill=1;endSize=12;html=1;rounded=0;" parent="1" edge="1">
          <mxGeometry width="160" relative="1" as="geometry">
            <mxPoint x="-342.5" y="3666" as="sourcePoint" />
            <mxPoint x="-95.5" y="3666" as="targetPoint" />
          </mxGeometry>
        </mxCell>
        <mxCell id="Bd0whEzq2eXaBj5mWEO1-38" value="запрос на сохранение данных в бд" style="text;html=1;align=center;verticalAlign=middle;resizable=0;points=[];autosize=1;strokeColor=none;fillColor=none;" parent="1" vertex="1">
          <mxGeometry x="-333" y="3638" width="213" height="26" as="geometry" />
        </mxCell>
        <mxCell id="Bd0whEzq2eXaBj5mWEO1-39" value="" style="endArrow=open;endFill=1;endSize=12;html=1;rounded=0;dashed=1;dashPattern=8 8;" parent="1" edge="1">
          <mxGeometry width="160" relative="1" as="geometry">
            <mxPoint x="-92" y="3696.47" as="sourcePoint" />
            <mxPoint x="-341" y="3696.47" as="targetPoint" />
          </mxGeometry>
        </mxCell>
        <mxCell id="Bd0whEzq2eXaBj5mWEO1-40" value="результат" style="text;html=1;align=center;verticalAlign=middle;resizable=0;points=[];autosize=1;strokeColor=none;fillColor=none;" parent="1" vertex="1">
          <mxGeometry x="-260" y="3675" width="72" height="26" as="geometry" />
        </mxCell>
        <mxCell id="Bd0whEzq2eXaBj5mWEO1-41" value="" style="endArrow=open;endFill=1;endSize=12;html=1;rounded=0;dashed=1;dashPattern=8 8;" parent="1" edge="1">
          <mxGeometry width="160" relative="1" as="geometry">
            <mxPoint x="-351" y="3708" as="sourcePoint" />
            <mxPoint x="-600" y="3708" as="targetPoint" />
          </mxGeometry>
        </mxCell>
        <mxCell id="Bd0whEzq2eXaBj5mWEO1-42" value="сообщение об успешной регистрации" style="text;html=1;align=center;verticalAlign=middle;resizable=0;points=[];autosize=1;strokeColor=none;fillColor=none;" parent="1" vertex="1">
          <mxGeometry x="-590" y="3678" width="229" height="26" as="geometry" />
        </mxCell>
        <mxCell id="Bd0whEzq2eXaBj5mWEO1-43" value="" style="endArrow=open;endFill=1;endSize=12;html=1;rounded=0;dashed=1;dashPattern=8 8;" parent="1" source="Bd0whEzq2eXaBj5mWEO1-34" edge="1">
          <mxGeometry width="160" relative="1" as="geometry">
            <mxPoint x="-639" y="3732" as="sourcePoint" />
            <mxPoint x="-888" y="3732" as="targetPoint" />
          </mxGeometry>
        </mxCell>
        <mxCell id="Bd0whEzq2eXaBj5mWEO1-44" value="регистрация успешна" style="text;html=1;align=center;verticalAlign=middle;resizable=0;points=[];autosize=1;strokeColor=none;fillColor=none;" parent="1" vertex="1">
          <mxGeometry x="-832" y="3706" width="139" height="26" as="geometry" />
        </mxCell>
        <mxCell id="Bd0whEzq2eXaBj5mWEO1-45" value="UML - диаграмма компонентов заказа" style="text;html=1;align=center;verticalAlign=middle;resizable=0;points=[];autosize=1;strokeColor=none;fillColor=none;" parent="1" vertex="1">
          <mxGeometry x="127" y="3257" width="230" height="26" as="geometry" />
        </mxCell>
        <mxCell id="Bd0whEzq2eXaBj5mWEO1-64" style="rounded=0;orthogonalLoop=1;jettySize=auto;html=1;exitX=1;exitY=0.5;exitDx=0;exitDy=0;entryX=0;entryY=0.25;entryDx=0;entryDy=0;dashed=1;dashPattern=8 8;endArrow=open;endFill=0;" parent="1" source="Bd0whEzq2eXaBj5mWEO1-46" target="Bd0whEzq2eXaBj5mWEO1-62" edge="1">
          <mxGeometry relative="1" as="geometry" />
        </mxCell>
        <mxCell id="Bd0whEzq2eXaBj5mWEO1-46" value="&lt;b&gt;Склад&lt;/b&gt;" style="html=1;dropTarget=0;whiteSpace=wrap;" parent="1" vertex="1">
          <mxGeometry x="312" y="3408" width="180" height="90" as="geometry" />
        </mxCell>
        <mxCell id="Bd0whEzq2eXaBj5mWEO1-47" value="" style="shape=module;jettyWidth=8;jettyHeight=4;" parent="Bd0whEzq2eXaBj5mWEO1-46" vertex="1">
          <mxGeometry x="1" width="20" height="20" relative="1" as="geometry">
            <mxPoint x="-27" y="7" as="offset" />
          </mxGeometry>
        </mxCell>
        <mxCell id="Bd0whEzq2eXaBj5mWEO1-65" style="rounded=0;orthogonalLoop=1;jettySize=auto;html=1;exitX=1;exitY=0.5;exitDx=0;exitDy=0;entryX=0;entryY=0.5;entryDx=0;entryDy=0;dashed=1;dashPattern=8 8;endArrow=open;endFill=0;" parent="1" source="Bd0whEzq2eXaBj5mWEO1-48" target="Bd0whEzq2eXaBj5mWEO1-62" edge="1">
          <mxGeometry relative="1" as="geometry" />
        </mxCell>
        <mxCell id="Bd0whEzq2eXaBj5mWEO1-48" value="&lt;b&gt;Поставщик&lt;/b&gt;" style="html=1;dropTarget=0;whiteSpace=wrap;" parent="1" vertex="1">
          <mxGeometry x="307.5" y="3588.5" width="180" height="90" as="geometry" />
        </mxCell>
        <mxCell id="Bd0whEzq2eXaBj5mWEO1-49" value="" style="shape=module;jettyWidth=8;jettyHeight=4;" parent="Bd0whEzq2eXaBj5mWEO1-48" vertex="1">
          <mxGeometry x="1" width="20" height="20" relative="1" as="geometry">
            <mxPoint x="-27" y="7" as="offset" />
          </mxGeometry>
        </mxCell>
        <mxCell id="Bd0whEzq2eXaBj5mWEO1-66" style="rounded=0;orthogonalLoop=1;jettySize=auto;html=1;exitX=0.5;exitY=0;exitDx=0;exitDy=0;entryX=0.25;entryY=1;entryDx=0;entryDy=0;endArrow=open;endFill=0;dashed=1;dashPattern=8 8;" parent="1" source="Bd0whEzq2eXaBj5mWEO1-52" target="Bd0whEzq2eXaBj5mWEO1-62" edge="1">
          <mxGeometry relative="1" as="geometry" />
        </mxCell>
        <mxCell id="Bd0whEzq2eXaBj5mWEO1-52" value="&lt;b&gt;Сервис&lt;/b&gt;" style="html=1;dropTarget=0;whiteSpace=wrap;" parent="1" vertex="1">
          <mxGeometry x="469" y="3754" width="180" height="90" as="geometry" />
        </mxCell>
        <mxCell id="Bd0whEzq2eXaBj5mWEO1-53" value="" style="shape=module;jettyWidth=8;jettyHeight=4;" parent="Bd0whEzq2eXaBj5mWEO1-52" vertex="1">
          <mxGeometry x="1" width="20" height="20" relative="1" as="geometry">
            <mxPoint x="-27" y="7" as="offset" />
          </mxGeometry>
        </mxCell>
        <mxCell id="Bd0whEzq2eXaBj5mWEO1-54" value="&lt;b&gt;Товар&lt;/b&gt;&lt;span style=&quot;color: rgba(0, 0, 0, 0); font-family: monospace; font-size: 0px; text-align: start; text-wrap: nowrap;&quot;&gt;%3CmxGraphModel%3E%3Croot%3E%3CmxCell%20id%3D%220%22%2F%3E%3CmxCell%20id%3D%221%22%20parent%3D%220%22%2F%3E%3CmxCell%20id%3D%222%22%20value%3D%22%26lt%3Bb%26gt%3B%D0%9F%D0%BE%D1%81%D1%82%D0%B0%D0%B2%D1%89%D0%B8%D0%BA%26lt%3B%2Fb%26gt%3B%22%20style%3D%22html%3D1%3BdropTarget%3D0%3BwhiteSpace%3Dwrap%3B%22%20vertex%3D%221%22%20parent%3D%221%22%3E%3CmxGeometry%20x%3D%22307.5%22%20y%3D%223588.5%22%20width%3D%22180%22%20height%3D%2290%22%20as%3D%22geometry%22%2F%3E%3C%2FmxCell%3E%3CmxCell%20id%3D%223%22%20value%3D%22%22%20style%3D%22shape%3Dmodule%3BjettyWidth%3D8%3BjettyHeight%3D4%3B%22%20vertex%3D%221%22%20parent%3D%222%22%3E%3CmxGeometry%20x%3D%221%22%20width%3D%2220%22%20height%3D%2220%22%20relative%3D%221%22%20as%3D%22geometry%22%3E%3CmxPoint%20x%3D%22-27%22%20y%3D%227%22%20as%3D%22offset%22%2F%3E%3C%2FmxGeometry%3E%3C%2FmxCell%3E%3C%2Froot%3E%3C%2FmxGraphModel%3E&lt;/span&gt;&lt;span style=&quot;color: rgba(0, 0, 0, 0); font-family: monospace; font-size: 0px; text-align: start; text-wrap: nowrap;&quot;&gt;%3CmxGraphModel%3E%3Croot%3E%3CmxCell%20id%3D%220%22%2F%3E%3CmxCell%20id%3D%221%22%20parent%3D%220%22%2F%3E%3CmxCell%20id%3D%222%22%20value%3D%22%26lt%3Bb%26gt%3B%D0%9F%D0%BE%D1%81%D1%82%D0%B0%D0%B2%D1%89%D0%B8%D0%BA%26lt%3B%2Fb%26gt%3B%22%20style%3D%22html%3D1%3BdropTarget%3D0%3BwhiteSpace%3Dwrap%3B%22%20vertex%3D%221%22%20parent%3D%221%22%3E%3CmxGeometry%20x%3D%22307.5%22%20y%3D%223588.5%22%20width%3D%22180%22%20height%3D%2290%22%20as%3D%22geometry%22%2F%3E%3C%2FmxCell%3E%3CmxCell%20id%3D%223%22%20value%3D%22%22%20style%3D%22shape%3Dmodule%3BjettyWidth%3D8%3BjettyHeight%3D4%3B%22%20vertex%3D%221%22%20parent%3D%222%22%3E%3CmxGeometry%20x%3D%221%22%20width%3D%2220%22%20height%3D%2220%22%20relative%3D%221%22%20as%3D%22geometry%22%3E%3CmxPoint%20x%3D%22-27%22%20y%3D%227%22%20as%3D%22offset%22%2F%3E%3C%2FmxGeometry%3E%3C%2FmxCell%3E%3C%2Froot%3E%3C%2FmxGraphModel%3E&lt;/span&gt;" style="html=1;dropTarget=0;whiteSpace=wrap;" parent="1" vertex="1">
          <mxGeometry x="787" y="3761" width="180" height="90" as="geometry" />
        </mxCell>
        <mxCell id="Bd0whEzq2eXaBj5mWEO1-55" value="" style="shape=module;jettyWidth=8;jettyHeight=4;" parent="Bd0whEzq2eXaBj5mWEO1-54" vertex="1">
          <mxGeometry x="1" width="20" height="20" relative="1" as="geometry">
            <mxPoint x="-27" y="7" as="offset" />
          </mxGeometry>
        </mxCell>
        <mxCell id="Bd0whEzq2eXaBj5mWEO1-56" value="&lt;b&gt;Компания&lt;/b&gt;" style="html=1;dropTarget=0;whiteSpace=wrap;" parent="1" vertex="1">
          <mxGeometry x="989" y="3574" width="180" height="90" as="geometry" />
        </mxCell>
        <mxCell id="Bd0whEzq2eXaBj5mWEO1-57" value="" style="shape=module;jettyWidth=8;jettyHeight=4;" parent="Bd0whEzq2eXaBj5mWEO1-56" vertex="1">
          <mxGeometry x="1" width="20" height="20" relative="1" as="geometry">
            <mxPoint x="-27" y="7" as="offset" />
          </mxGeometry>
        </mxCell>
        <mxCell id="Bd0whEzq2eXaBj5mWEO1-58" value="&lt;b&gt;Физическое лицо&lt;/b&gt;" style="html=1;dropTarget=0;whiteSpace=wrap;" parent="1" vertex="1">
          <mxGeometry x="971" y="3392" width="180" height="90" as="geometry" />
        </mxCell>
        <mxCell id="Bd0whEzq2eXaBj5mWEO1-59" value="" style="shape=module;jettyWidth=8;jettyHeight=4;" parent="Bd0whEzq2eXaBj5mWEO1-58" vertex="1">
          <mxGeometry x="1" width="20" height="20" relative="1" as="geometry">
            <mxPoint x="-27" y="7" as="offset" />
          </mxGeometry>
        </mxCell>
        <mxCell id="Bd0whEzq2eXaBj5mWEO1-71" style="rounded=0;orthogonalLoop=1;jettySize=auto;html=1;exitX=0.5;exitY=1;exitDx=0;exitDy=0;entryX=0.007;entryY=0.344;entryDx=0;entryDy=0;startArrow=none;startFill=0;dashed=1;dashPattern=8 8;endArrow=open;endFill=0;entryPerimeter=0;" parent="1" source="Bd0whEzq2eXaBj5mWEO1-60" target="Bd0whEzq2eXaBj5mWEO1-56" edge="1">
          <mxGeometry relative="1" as="geometry" />
        </mxCell>
        <mxCell id="Bd0whEzq2eXaBj5mWEO1-72" style="rounded=0;orthogonalLoop=1;jettySize=auto;html=1;exitX=0.75;exitY=1;exitDx=0;exitDy=0;entryX=0;entryY=0.25;entryDx=0;entryDy=0;dashed=1;dashPattern=8 8;endArrow=open;endFill=0;" parent="1" source="Bd0whEzq2eXaBj5mWEO1-60" target="Bd0whEzq2eXaBj5mWEO1-58" edge="1">
          <mxGeometry relative="1" as="geometry" />
        </mxCell>
        <mxCell id="Bd0whEzq2eXaBj5mWEO1-60" value="&lt;b&gt;ОтмененныйЗаказ&lt;/b&gt;" style="html=1;dropTarget=0;whiteSpace=wrap;" parent="1" vertex="1">
          <mxGeometry x="654" y="3297" width="180" height="90" as="geometry" />
        </mxCell>
        <mxCell id="Bd0whEzq2eXaBj5mWEO1-61" value="" style="shape=module;jettyWidth=8;jettyHeight=4;" parent="Bd0whEzq2eXaBj5mWEO1-60" vertex="1">
          <mxGeometry x="1" width="20" height="20" relative="1" as="geometry">
            <mxPoint x="-27" y="7" as="offset" />
          </mxGeometry>
        </mxCell>
        <mxCell id="Bd0whEzq2eXaBj5mWEO1-67" style="rounded=0;orthogonalLoop=1;jettySize=auto;html=1;exitX=0.75;exitY=1;exitDx=0;exitDy=0;dashed=1;dashPattern=8 8;endArrow=open;endFill=0;" parent="1" source="Bd0whEzq2eXaBj5mWEO1-62" target="Bd0whEzq2eXaBj5mWEO1-54" edge="1">
          <mxGeometry relative="1" as="geometry" />
        </mxCell>
        <mxCell id="Bd0whEzq2eXaBj5mWEO1-68" style="rounded=0;orthogonalLoop=1;jettySize=auto;html=1;exitX=1;exitY=0.75;exitDx=0;exitDy=0;entryX=0;entryY=0.5;entryDx=0;entryDy=0;dashed=1;dashPattern=8 8;endArrow=open;endFill=0;" parent="1" source="Bd0whEzq2eXaBj5mWEO1-62" target="Bd0whEzq2eXaBj5mWEO1-56" edge="1">
          <mxGeometry relative="1" as="geometry" />
        </mxCell>
        <mxCell id="Bd0whEzq2eXaBj5mWEO1-69" style="rounded=0;orthogonalLoop=1;jettySize=auto;html=1;exitX=1;exitY=0.5;exitDx=0;exitDy=0;entryX=0;entryY=0.75;entryDx=0;entryDy=0;dashed=1;dashPattern=8 8;endArrow=open;endFill=0;" parent="1" source="Bd0whEzq2eXaBj5mWEO1-62" target="Bd0whEzq2eXaBj5mWEO1-58" edge="1">
          <mxGeometry relative="1" as="geometry" />
        </mxCell>
        <mxCell id="Bd0whEzq2eXaBj5mWEO1-62" value="&lt;b&gt;Заказ&lt;/b&gt;" style="html=1;dropTarget=0;whiteSpace=wrap;" parent="1" vertex="1">
          <mxGeometry x="651" y="3523" width="180" height="90" as="geometry" />
        </mxCell>
        <mxCell id="Bd0whEzq2eXaBj5mWEO1-63" value="" style="shape=module;jettyWidth=8;jettyHeight=4;" parent="Bd0whEzq2eXaBj5mWEO1-62" vertex="1">
          <mxGeometry x="1" width="20" height="20" relative="1" as="geometry">
            <mxPoint x="-27" y="7" as="offset" />
          </mxGeometry>
        </mxCell>
        <mxCell id="rVyHELz2HRK5AfnBP9B1-220" value="Пользователь" style="shape=table;startSize=30;container=1;collapsible=1;childLayout=tableLayout;fixedRows=1;rowLines=0;fontStyle=1;align=center;resizeLast=1;html=1;" vertex="1" parent="1">
          <mxGeometry x="-45" y="-307" width="180" height="364" as="geometry" />
        </mxCell>
        <mxCell id="rVyHELz2HRK5AfnBP9B1-221" value="" style="shape=tableRow;horizontal=0;startSize=0;swimlaneHead=0;swimlaneBody=0;fillColor=none;collapsible=0;dropTarget=0;points=[[0,0.5],[1,0.5]];portConstraint=eastwest;top=0;left=0;right=0;bottom=1;" vertex="1" parent="rVyHELz2HRK5AfnBP9B1-220">
          <mxGeometry y="30" width="180" height="41" as="geometry" />
        </mxCell>
        <mxCell id="rVyHELz2HRK5AfnBP9B1-222" value="PK" style="shape=partialRectangle;connectable=0;fillColor=none;top=0;left=0;bottom=0;right=0;fontStyle=1;overflow=hidden;whiteSpace=wrap;html=1;" vertex="1" parent="rVyHELz2HRK5AfnBP9B1-221">
          <mxGeometry width="30" height="41" as="geometry">
            <mxRectangle width="30" height="41" as="alternateBounds" />
          </mxGeometry>
        </mxCell>
        <mxCell id="rVyHELz2HRK5AfnBP9B1-223" value="ID Пользователь" style="shape=partialRectangle;connectable=0;fillColor=none;top=0;left=0;bottom=0;right=0;align=left;spacingLeft=6;fontStyle=5;overflow=hidden;whiteSpace=wrap;html=1;" vertex="1" parent="rVyHELz2HRK5AfnBP9B1-221">
          <mxGeometry x="30" width="150" height="41" as="geometry">
            <mxRectangle width="150" height="41" as="alternateBounds" />
          </mxGeometry>
        </mxCell>
        <mxCell id="rVyHELz2HRK5AfnBP9B1-224" value="" style="shape=tableRow;horizontal=0;startSize=0;swimlaneHead=0;swimlaneBody=0;fillColor=none;collapsible=0;dropTarget=0;points=[[0,0.5],[1,0.5]];portConstraint=eastwest;top=0;left=0;right=0;bottom=0;" vertex="1" parent="rVyHELz2HRK5AfnBP9B1-220">
          <mxGeometry y="71" width="180" height="30" as="geometry" />
        </mxCell>
        <mxCell id="rVyHELz2HRK5AfnBP9B1-225" value="" style="shape=partialRectangle;connectable=0;fillColor=none;top=0;left=0;bottom=0;right=0;editable=1;overflow=hidden;whiteSpace=wrap;html=1;" vertex="1" parent="rVyHELz2HRK5AfnBP9B1-224">
          <mxGeometry width="30" height="30" as="geometry">
            <mxRectangle width="30" height="30" as="alternateBounds" />
          </mxGeometry>
        </mxCell>
        <mxCell id="rVyHELz2HRK5AfnBP9B1-226" value="Логин" style="shape=partialRectangle;connectable=0;fillColor=none;top=0;left=0;bottom=0;right=0;align=left;spacingLeft=6;overflow=hidden;whiteSpace=wrap;html=1;" vertex="1" parent="rVyHELz2HRK5AfnBP9B1-224">
          <mxGeometry x="30" width="150" height="30" as="geometry">
            <mxRectangle width="150" height="30" as="alternateBounds" />
          </mxGeometry>
        </mxCell>
        <mxCell id="rVyHELz2HRK5AfnBP9B1-227" value="" style="shape=tableRow;horizontal=0;startSize=0;swimlaneHead=0;swimlaneBody=0;fillColor=none;collapsible=0;dropTarget=0;points=[[0,0.5],[1,0.5]];portConstraint=eastwest;top=0;left=0;right=0;bottom=0;" vertex="1" parent="rVyHELz2HRK5AfnBP9B1-220">
          <mxGeometry y="101" width="180" height="30" as="geometry" />
        </mxCell>
        <mxCell id="rVyHELz2HRK5AfnBP9B1-228" value="" style="shape=partialRectangle;connectable=0;fillColor=none;top=0;left=0;bottom=0;right=0;editable=1;overflow=hidden;whiteSpace=wrap;html=1;" vertex="1" parent="rVyHELz2HRK5AfnBP9B1-227">
          <mxGeometry width="30" height="30" as="geometry">
            <mxRectangle width="30" height="30" as="alternateBounds" />
          </mxGeometry>
        </mxCell>
        <mxCell id="rVyHELz2HRK5AfnBP9B1-229" value="Пароль" style="shape=partialRectangle;connectable=0;fillColor=none;top=0;left=0;bottom=0;right=0;align=left;spacingLeft=6;overflow=hidden;whiteSpace=wrap;html=1;" vertex="1" parent="rVyHELz2HRK5AfnBP9B1-227">
          <mxGeometry x="30" width="150" height="30" as="geometry">
            <mxRectangle width="150" height="30" as="alternateBounds" />
          </mxGeometry>
        </mxCell>
        <mxCell id="rVyHELz2HRK5AfnBP9B1-230" value="" style="shape=tableRow;horizontal=0;startSize=0;swimlaneHead=0;swimlaneBody=0;fillColor=none;collapsible=0;dropTarget=0;points=[[0,0.5],[1,0.5]];portConstraint=eastwest;top=0;left=0;right=0;bottom=0;" vertex="1" parent="rVyHELz2HRK5AfnBP9B1-220">
          <mxGeometry y="131" width="180" height="30" as="geometry" />
        </mxCell>
        <mxCell id="rVyHELz2HRK5AfnBP9B1-231" value="" style="shape=partialRectangle;connectable=0;fillColor=none;top=0;left=0;bottom=0;right=0;editable=1;overflow=hidden;whiteSpace=wrap;html=1;" vertex="1" parent="rVyHELz2HRK5AfnBP9B1-230">
          <mxGeometry width="30" height="30" as="geometry">
            <mxRectangle width="30" height="30" as="alternateBounds" />
          </mxGeometry>
        </mxCell>
        <mxCell id="rVyHELz2HRK5AfnBP9B1-232" value="Имя" style="shape=partialRectangle;connectable=0;fillColor=none;top=0;left=0;bottom=0;right=0;align=left;spacingLeft=6;overflow=hidden;whiteSpace=wrap;html=1;" vertex="1" parent="rVyHELz2HRK5AfnBP9B1-230">
          <mxGeometry x="30" width="150" height="30" as="geometry">
            <mxRectangle width="150" height="30" as="alternateBounds" />
          </mxGeometry>
        </mxCell>
        <mxCell id="rVyHELz2HRK5AfnBP9B1-233" value="" style="shape=tableRow;horizontal=0;startSize=0;swimlaneHead=0;swimlaneBody=0;fillColor=none;collapsible=0;dropTarget=0;points=[[0,0.5],[1,0.5]];portConstraint=eastwest;top=0;left=0;right=0;bottom=0;" vertex="1" parent="rVyHELz2HRK5AfnBP9B1-220">
          <mxGeometry y="161" width="180" height="30" as="geometry" />
        </mxCell>
        <mxCell id="rVyHELz2HRK5AfnBP9B1-234" value="" style="shape=partialRectangle;connectable=0;fillColor=none;top=0;left=0;bottom=0;right=0;editable=1;overflow=hidden;whiteSpace=wrap;html=1;" vertex="1" parent="rVyHELz2HRK5AfnBP9B1-233">
          <mxGeometry width="30" height="30" as="geometry">
            <mxRectangle width="30" height="30" as="alternateBounds" />
          </mxGeometry>
        </mxCell>
        <mxCell id="rVyHELz2HRK5AfnBP9B1-235" value="Фамилия" style="shape=partialRectangle;connectable=0;fillColor=none;top=0;left=0;bottom=0;right=0;align=left;spacingLeft=6;overflow=hidden;whiteSpace=wrap;html=1;" vertex="1" parent="rVyHELz2HRK5AfnBP9B1-233">
          <mxGeometry x="30" width="150" height="30" as="geometry">
            <mxRectangle width="150" height="30" as="alternateBounds" />
          </mxGeometry>
        </mxCell>
        <mxCell id="rVyHELz2HRK5AfnBP9B1-236" value="" style="shape=tableRow;horizontal=0;startSize=0;swimlaneHead=0;swimlaneBody=0;fillColor=none;collapsible=0;dropTarget=0;points=[[0,0.5],[1,0.5]];portConstraint=eastwest;top=0;left=0;right=0;bottom=0;" vertex="1" parent="rVyHELz2HRK5AfnBP9B1-220">
          <mxGeometry y="191" width="180" height="30" as="geometry" />
        </mxCell>
        <mxCell id="rVyHELz2HRK5AfnBP9B1-237" value="" style="shape=partialRectangle;connectable=0;fillColor=none;top=0;left=0;bottom=0;right=0;editable=1;overflow=hidden;whiteSpace=wrap;html=1;" vertex="1" parent="rVyHELz2HRK5AfnBP9B1-236">
          <mxGeometry width="30" height="30" as="geometry">
            <mxRectangle width="30" height="30" as="alternateBounds" />
          </mxGeometry>
        </mxCell>
        <mxCell id="rVyHELz2HRK5AfnBP9B1-238" value="Email" style="shape=partialRectangle;connectable=0;fillColor=none;top=0;left=0;bottom=0;right=0;align=left;spacingLeft=6;overflow=hidden;whiteSpace=wrap;html=1;" vertex="1" parent="rVyHELz2HRK5AfnBP9B1-236">
          <mxGeometry x="30" width="150" height="30" as="geometry">
            <mxRectangle width="150" height="30" as="alternateBounds" />
          </mxGeometry>
        </mxCell>
        <mxCell id="rVyHELz2HRK5AfnBP9B1-239" value="" style="shape=tableRow;horizontal=0;startSize=0;swimlaneHead=0;swimlaneBody=0;fillColor=none;collapsible=0;dropTarget=0;points=[[0,0.5],[1,0.5]];portConstraint=eastwest;top=0;left=0;right=0;bottom=0;" vertex="1" parent="rVyHELz2HRK5AfnBP9B1-220">
          <mxGeometry y="221" width="180" height="53" as="geometry" />
        </mxCell>
        <mxCell id="rVyHELz2HRK5AfnBP9B1-240" value="" style="shape=partialRectangle;connectable=0;fillColor=none;top=0;left=0;bottom=0;right=0;editable=1;overflow=hidden;whiteSpace=wrap;html=1;" vertex="1" parent="rVyHELz2HRK5AfnBP9B1-239">
          <mxGeometry width="30" height="53" as="geometry">
            <mxRectangle width="30" height="53" as="alternateBounds" />
          </mxGeometry>
        </mxCell>
        <mxCell id="rVyHELz2HRK5AfnBP9B1-241" value="Роль ( Клиент, Сотрудник, Администратор)" style="shape=partialRectangle;connectable=0;fillColor=none;top=0;left=0;bottom=0;right=0;align=left;spacingLeft=6;overflow=hidden;whiteSpace=wrap;html=1;" vertex="1" parent="rVyHELz2HRK5AfnBP9B1-239">
          <mxGeometry x="30" width="150" height="53" as="geometry">
            <mxRectangle width="150" height="53" as="alternateBounds" />
          </mxGeometry>
        </mxCell>
        <mxCell id="rVyHELz2HRK5AfnBP9B1-242" value="" style="shape=tableRow;horizontal=0;startSize=0;swimlaneHead=0;swimlaneBody=0;fillColor=none;collapsible=0;dropTarget=0;points=[[0,0.5],[1,0.5]];portConstraint=eastwest;top=0;left=0;right=0;bottom=0;" vertex="1" parent="rVyHELz2HRK5AfnBP9B1-220">
          <mxGeometry y="274" width="180" height="30" as="geometry" />
        </mxCell>
        <mxCell id="rVyHELz2HRK5AfnBP9B1-243" value="" style="shape=partialRectangle;connectable=0;fillColor=none;top=0;left=0;bottom=0;right=0;editable=1;overflow=hidden;whiteSpace=wrap;html=1;" vertex="1" parent="rVyHELz2HRK5AfnBP9B1-242">
          <mxGeometry width="30" height="30" as="geometry">
            <mxRectangle width="30" height="30" as="alternateBounds" />
          </mxGeometry>
        </mxCell>
        <mxCell id="rVyHELz2HRK5AfnBP9B1-244" value="Телефон" style="shape=partialRectangle;connectable=0;fillColor=none;top=0;left=0;bottom=0;right=0;align=left;spacingLeft=6;overflow=hidden;whiteSpace=wrap;html=1;" vertex="1" parent="rVyHELz2HRK5AfnBP9B1-242">
          <mxGeometry x="30" width="150" height="30" as="geometry">
            <mxRectangle width="150" height="30" as="alternateBounds" />
          </mxGeometry>
        </mxCell>
        <mxCell id="rVyHELz2HRK5AfnBP9B1-245" value="" style="shape=tableRow;horizontal=0;startSize=0;swimlaneHead=0;swimlaneBody=0;fillColor=none;collapsible=0;dropTarget=0;points=[[0,0.5],[1,0.5]];portConstraint=eastwest;top=0;left=0;right=0;bottom=0;" vertex="1" parent="rVyHELz2HRK5AfnBP9B1-220">
          <mxGeometry y="304" width="180" height="30" as="geometry" />
        </mxCell>
        <mxCell id="rVyHELz2HRK5AfnBP9B1-246" value="" style="shape=partialRectangle;connectable=0;fillColor=none;top=0;left=0;bottom=0;right=0;editable=1;overflow=hidden;whiteSpace=wrap;html=1;" vertex="1" parent="rVyHELz2HRK5AfnBP9B1-245">
          <mxGeometry width="30" height="30" as="geometry">
            <mxRectangle width="30" height="30" as="alternateBounds" />
          </mxGeometry>
        </mxCell>
        <mxCell id="rVyHELz2HRK5AfnBP9B1-247" value="Последний вход (дата и время )" style="shape=partialRectangle;connectable=0;fillColor=none;top=0;left=0;bottom=0;right=0;align=left;spacingLeft=6;overflow=hidden;whiteSpace=wrap;html=1;" vertex="1" parent="rVyHELz2HRK5AfnBP9B1-245">
          <mxGeometry x="30" width="150" height="30" as="geometry">
            <mxRectangle width="150" height="30" as="alternateBounds" />
          </mxGeometry>
        </mxCell>
        <mxCell id="rVyHELz2HRK5AfnBP9B1-248" value="" style="shape=tableRow;horizontal=0;startSize=0;swimlaneHead=0;swimlaneBody=0;fillColor=none;collapsible=0;dropTarget=0;points=[[0,0.5],[1,0.5]];portConstraint=eastwest;top=0;left=0;right=0;bottom=0;" vertex="1" parent="rVyHELz2HRK5AfnBP9B1-220">
          <mxGeometry y="334" width="180" height="30" as="geometry" />
        </mxCell>
        <mxCell id="rVyHELz2HRK5AfnBP9B1-249" value="" style="shape=partialRectangle;connectable=0;fillColor=none;top=0;left=0;bottom=0;right=0;editable=1;overflow=hidden;whiteSpace=wrap;html=1;" vertex="1" parent="rVyHELz2HRK5AfnBP9B1-248">
          <mxGeometry width="30" height="30" as="geometry">
            <mxRectangle width="30" height="30" as="alternateBounds" />
          </mxGeometry>
        </mxCell>
        <mxCell id="rVyHELz2HRK5AfnBP9B1-250" value="Статус (активен/неактивен)" style="shape=partialRectangle;connectable=0;fillColor=none;top=0;left=0;bottom=0;right=0;align=left;spacingLeft=6;overflow=hidden;whiteSpace=wrap;html=1;" vertex="1" parent="rVyHELz2HRK5AfnBP9B1-248">
          <mxGeometry x="30" width="150" height="30" as="geometry">
            <mxRectangle width="150" height="30" as="alternateBounds" />
          </mxGeometry>
        </mxCell>
        <mxCell id="rVyHELz2HRK5AfnBP9B1-251" value="Новости" style="shape=table;startSize=30;container=1;collapsible=1;childLayout=tableLayout;fixedRows=1;rowLines=0;fontStyle=1;align=center;resizeLast=1;html=1;" vertex="1" parent="1">
          <mxGeometry x="299" y="-384" width="180" height="180" as="geometry" />
        </mxCell>
        <mxCell id="rVyHELz2HRK5AfnBP9B1-252" value="" style="shape=tableRow;horizontal=0;startSize=0;swimlaneHead=0;swimlaneBody=0;fillColor=none;collapsible=0;dropTarget=0;points=[[0,0.5],[1,0.5]];portConstraint=eastwest;top=0;left=0;right=0;bottom=1;" vertex="1" parent="rVyHELz2HRK5AfnBP9B1-251">
          <mxGeometry y="30" width="180" height="30" as="geometry" />
        </mxCell>
        <mxCell id="rVyHELz2HRK5AfnBP9B1-253" value="PK" style="shape=partialRectangle;connectable=0;fillColor=none;top=0;left=0;bottom=0;right=0;fontStyle=1;overflow=hidden;whiteSpace=wrap;html=1;" vertex="1" parent="rVyHELz2HRK5AfnBP9B1-252">
          <mxGeometry width="30" height="30" as="geometry">
            <mxRectangle width="30" height="30" as="alternateBounds" />
          </mxGeometry>
        </mxCell>
        <mxCell id="rVyHELz2HRK5AfnBP9B1-254" value="ID Новость" style="shape=partialRectangle;connectable=0;fillColor=none;top=0;left=0;bottom=0;right=0;align=left;spacingLeft=6;fontStyle=5;overflow=hidden;whiteSpace=wrap;html=1;" vertex="1" parent="rVyHELz2HRK5AfnBP9B1-252">
          <mxGeometry x="30" width="150" height="30" as="geometry">
            <mxRectangle width="150" height="30" as="alternateBounds" />
          </mxGeometry>
        </mxCell>
        <mxCell id="rVyHELz2HRK5AfnBP9B1-255" value="" style="shape=tableRow;horizontal=0;startSize=0;swimlaneHead=0;swimlaneBody=0;fillColor=none;collapsible=0;dropTarget=0;points=[[0,0.5],[1,0.5]];portConstraint=eastwest;top=0;left=0;right=0;bottom=0;" vertex="1" parent="rVyHELz2HRK5AfnBP9B1-251">
          <mxGeometry y="60" width="180" height="30" as="geometry" />
        </mxCell>
        <mxCell id="rVyHELz2HRK5AfnBP9B1-256" value="" style="shape=partialRectangle;connectable=0;fillColor=none;top=0;left=0;bottom=0;right=0;editable=1;overflow=hidden;whiteSpace=wrap;html=1;" vertex="1" parent="rVyHELz2HRK5AfnBP9B1-255">
          <mxGeometry width="30" height="30" as="geometry">
            <mxRectangle width="30" height="30" as="alternateBounds" />
          </mxGeometry>
        </mxCell>
        <mxCell id="rVyHELz2HRK5AfnBP9B1-257" value="Заголовок" style="shape=partialRectangle;connectable=0;fillColor=none;top=0;left=0;bottom=0;right=0;align=left;spacingLeft=6;overflow=hidden;whiteSpace=wrap;html=1;" vertex="1" parent="rVyHELz2HRK5AfnBP9B1-255">
          <mxGeometry x="30" width="150" height="30" as="geometry">
            <mxRectangle width="150" height="30" as="alternateBounds" />
          </mxGeometry>
        </mxCell>
        <mxCell id="rVyHELz2HRK5AfnBP9B1-258" value="" style="shape=tableRow;horizontal=0;startSize=0;swimlaneHead=0;swimlaneBody=0;fillColor=none;collapsible=0;dropTarget=0;points=[[0,0.5],[1,0.5]];portConstraint=eastwest;top=0;left=0;right=0;bottom=0;" vertex="1" parent="rVyHELz2HRK5AfnBP9B1-251">
          <mxGeometry y="90" width="180" height="30" as="geometry" />
        </mxCell>
        <mxCell id="rVyHELz2HRK5AfnBP9B1-259" value="" style="shape=partialRectangle;connectable=0;fillColor=none;top=0;left=0;bottom=0;right=0;editable=1;overflow=hidden;whiteSpace=wrap;html=1;" vertex="1" parent="rVyHELz2HRK5AfnBP9B1-258">
          <mxGeometry width="30" height="30" as="geometry">
            <mxRectangle width="30" height="30" as="alternateBounds" />
          </mxGeometry>
        </mxCell>
        <mxCell id="rVyHELz2HRK5AfnBP9B1-260" value="Содержание" style="shape=partialRectangle;connectable=0;fillColor=none;top=0;left=0;bottom=0;right=0;align=left;spacingLeft=6;overflow=hidden;whiteSpace=wrap;html=1;" vertex="1" parent="rVyHELz2HRK5AfnBP9B1-258">
          <mxGeometry x="30" width="150" height="30" as="geometry">
            <mxRectangle width="150" height="30" as="alternateBounds" />
          </mxGeometry>
        </mxCell>
        <mxCell id="rVyHELz2HRK5AfnBP9B1-261" value="" style="shape=tableRow;horizontal=0;startSize=0;swimlaneHead=0;swimlaneBody=0;fillColor=none;collapsible=0;dropTarget=0;points=[[0,0.5],[1,0.5]];portConstraint=eastwest;top=0;left=0;right=0;bottom=0;" vertex="1" parent="rVyHELz2HRK5AfnBP9B1-251">
          <mxGeometry y="120" width="180" height="30" as="geometry" />
        </mxCell>
        <mxCell id="rVyHELz2HRK5AfnBP9B1-262" value="" style="shape=partialRectangle;connectable=0;fillColor=none;top=0;left=0;bottom=0;right=0;editable=1;overflow=hidden;whiteSpace=wrap;html=1;" vertex="1" parent="rVyHELz2HRK5AfnBP9B1-261">
          <mxGeometry width="30" height="30" as="geometry">
            <mxRectangle width="30" height="30" as="alternateBounds" />
          </mxGeometry>
        </mxCell>
        <mxCell id="rVyHELz2HRK5AfnBP9B1-263" value="Дата публикации" style="shape=partialRectangle;connectable=0;fillColor=none;top=0;left=0;bottom=0;right=0;align=left;spacingLeft=6;overflow=hidden;whiteSpace=wrap;html=1;" vertex="1" parent="rVyHELz2HRK5AfnBP9B1-261">
          <mxGeometry x="30" width="150" height="30" as="geometry">
            <mxRectangle width="150" height="30" as="alternateBounds" />
          </mxGeometry>
        </mxCell>
        <mxCell id="rVyHELz2HRK5AfnBP9B1-264" value="" style="shape=tableRow;horizontal=0;startSize=0;swimlaneHead=0;swimlaneBody=0;fillColor=none;collapsible=0;dropTarget=0;points=[[0,0.5],[1,0.5]];portConstraint=eastwest;top=0;left=0;right=0;bottom=0;" vertex="1" parent="rVyHELz2HRK5AfnBP9B1-251">
          <mxGeometry y="150" width="180" height="30" as="geometry" />
        </mxCell>
        <mxCell id="rVyHELz2HRK5AfnBP9B1-265" value="" style="shape=partialRectangle;connectable=0;fillColor=none;top=0;left=0;bottom=0;right=0;editable=1;overflow=hidden;whiteSpace=wrap;html=1;" vertex="1" parent="rVyHELz2HRK5AfnBP9B1-264">
          <mxGeometry width="30" height="30" as="geometry">
            <mxRectangle width="30" height="30" as="alternateBounds" />
          </mxGeometry>
        </mxCell>
        <mxCell id="rVyHELz2HRK5AfnBP9B1-266" value="Автор" style="shape=partialRectangle;connectable=0;fillColor=none;top=0;left=0;bottom=0;right=0;align=left;spacingLeft=6;overflow=hidden;whiteSpace=wrap;html=1;" vertex="1" parent="rVyHELz2HRK5AfnBP9B1-264">
          <mxGeometry x="30" width="150" height="30" as="geometry">
            <mxRectangle width="150" height="30" as="alternateBounds" />
          </mxGeometry>
        </mxCell>
        <mxCell id="rVyHELz2HRK5AfnBP9B1-267" value="Клиент" style="shape=table;startSize=30;container=1;collapsible=1;childLayout=tableLayout;fixedRows=1;rowLines=0;fontStyle=1;align=center;resizeLast=1;html=1;" vertex="1" parent="1">
          <mxGeometry x="-311" y="-42" width="180" height="150" as="geometry" />
        </mxCell>
        <mxCell id="rVyHELz2HRK5AfnBP9B1-268" value="" style="shape=tableRow;horizontal=0;startSize=0;swimlaneHead=0;swimlaneBody=0;fillColor=none;collapsible=0;dropTarget=0;points=[[0,0.5],[1,0.5]];portConstraint=eastwest;top=0;left=0;right=0;bottom=1;" vertex="1" parent="rVyHELz2HRK5AfnBP9B1-267">
          <mxGeometry y="30" width="180" height="30" as="geometry" />
        </mxCell>
        <mxCell id="rVyHELz2HRK5AfnBP9B1-269" value="PK" style="shape=partialRectangle;connectable=0;fillColor=none;top=0;left=0;bottom=0;right=0;fontStyle=1;overflow=hidden;whiteSpace=wrap;html=1;" vertex="1" parent="rVyHELz2HRK5AfnBP9B1-268">
          <mxGeometry width="30" height="30" as="geometry">
            <mxRectangle width="30" height="30" as="alternateBounds" />
          </mxGeometry>
        </mxCell>
        <mxCell id="rVyHELz2HRK5AfnBP9B1-270" value="ID Клиент" style="shape=partialRectangle;connectable=0;fillColor=none;top=0;left=0;bottom=0;right=0;align=left;spacingLeft=6;fontStyle=5;overflow=hidden;whiteSpace=wrap;html=1;" vertex="1" parent="rVyHELz2HRK5AfnBP9B1-268">
          <mxGeometry x="30" width="150" height="30" as="geometry">
            <mxRectangle width="150" height="30" as="alternateBounds" />
          </mxGeometry>
        </mxCell>
        <mxCell id="rVyHELz2HRK5AfnBP9B1-271" value="" style="shape=tableRow;horizontal=0;startSize=0;swimlaneHead=0;swimlaneBody=0;fillColor=none;collapsible=0;dropTarget=0;points=[[0,0.5],[1,0.5]];portConstraint=eastwest;top=0;left=0;right=0;bottom=0;" vertex="1" parent="rVyHELz2HRK5AfnBP9B1-267">
          <mxGeometry y="60" width="180" height="30" as="geometry" />
        </mxCell>
        <mxCell id="rVyHELz2HRK5AfnBP9B1-272" value="" style="shape=partialRectangle;connectable=0;fillColor=none;top=0;left=0;bottom=0;right=0;editable=1;overflow=hidden;whiteSpace=wrap;html=1;" vertex="1" parent="rVyHELz2HRK5AfnBP9B1-271">
          <mxGeometry width="30" height="30" as="geometry">
            <mxRectangle width="30" height="30" as="alternateBounds" />
          </mxGeometry>
        </mxCell>
        <mxCell id="rVyHELz2HRK5AfnBP9B1-273" value="Адрес" style="shape=partialRectangle;connectable=0;fillColor=none;top=0;left=0;bottom=0;right=0;align=left;spacingLeft=6;overflow=hidden;whiteSpace=wrap;html=1;" vertex="1" parent="rVyHELz2HRK5AfnBP9B1-271">
          <mxGeometry x="30" width="150" height="30" as="geometry">
            <mxRectangle width="150" height="30" as="alternateBounds" />
          </mxGeometry>
        </mxCell>
        <mxCell id="rVyHELz2HRK5AfnBP9B1-274" value="" style="shape=tableRow;horizontal=0;startSize=0;swimlaneHead=0;swimlaneBody=0;fillColor=none;collapsible=0;dropTarget=0;points=[[0,0.5],[1,0.5]];portConstraint=eastwest;top=0;left=0;right=0;bottom=0;" vertex="1" parent="rVyHELz2HRK5AfnBP9B1-267">
          <mxGeometry y="90" width="180" height="30" as="geometry" />
        </mxCell>
        <mxCell id="rVyHELz2HRK5AfnBP9B1-275" value="FK" style="shape=partialRectangle;connectable=0;fillColor=none;top=0;left=0;bottom=0;right=0;editable=1;overflow=hidden;whiteSpace=wrap;html=1;" vertex="1" parent="rVyHELz2HRK5AfnBP9B1-274">
          <mxGeometry width="30" height="30" as="geometry">
            <mxRectangle width="30" height="30" as="alternateBounds" />
          </mxGeometry>
        </mxCell>
        <mxCell id="rVyHELz2HRK5AfnBP9B1-276" value="ID Шаблон" style="shape=partialRectangle;connectable=0;fillColor=none;top=0;left=0;bottom=0;right=0;align=left;spacingLeft=6;overflow=hidden;whiteSpace=wrap;html=1;" vertex="1" parent="rVyHELz2HRK5AfnBP9B1-274">
          <mxGeometry x="30" width="150" height="30" as="geometry">
            <mxRectangle width="150" height="30" as="alternateBounds" />
          </mxGeometry>
        </mxCell>
        <mxCell id="rVyHELz2HRK5AfnBP9B1-277" value="" style="shape=tableRow;horizontal=0;startSize=0;swimlaneHead=0;swimlaneBody=0;fillColor=none;collapsible=0;dropTarget=0;points=[[0,0.5],[1,0.5]];portConstraint=eastwest;top=0;left=0;right=0;bottom=0;" vertex="1" parent="rVyHELz2HRK5AfnBP9B1-267">
          <mxGeometry y="120" width="180" height="30" as="geometry" />
        </mxCell>
        <mxCell id="rVyHELz2HRK5AfnBP9B1-278" value="FK" style="shape=partialRectangle;connectable=0;fillColor=none;top=0;left=0;bottom=0;right=0;editable=1;overflow=hidden;whiteSpace=wrap;html=1;" vertex="1" parent="rVyHELz2HRK5AfnBP9B1-277">
          <mxGeometry width="30" height="30" as="geometry">
            <mxRectangle width="30" height="30" as="alternateBounds" />
          </mxGeometry>
        </mxCell>
        <mxCell id="rVyHELz2HRK5AfnBP9B1-279" value="ID Пользователь" style="shape=partialRectangle;connectable=0;fillColor=none;top=0;left=0;bottom=0;right=0;align=left;spacingLeft=6;overflow=hidden;whiteSpace=wrap;html=1;" vertex="1" parent="rVyHELz2HRK5AfnBP9B1-277">
          <mxGeometry x="30" width="150" height="30" as="geometry">
            <mxRectangle width="150" height="30" as="alternateBounds" />
          </mxGeometry>
        </mxCell>
        <mxCell id="rVyHELz2HRK5AfnBP9B1-280" value="Сотрудник" style="shape=table;startSize=30;container=1;collapsible=1;childLayout=tableLayout;fixedRows=1;rowLines=0;fontStyle=1;align=center;resizeLast=1;html=1;" vertex="1" parent="1">
          <mxGeometry x="299" y="-136" width="180" height="210" as="geometry" />
        </mxCell>
        <mxCell id="rVyHELz2HRK5AfnBP9B1-281" value="" style="shape=tableRow;horizontal=0;startSize=0;swimlaneHead=0;swimlaneBody=0;fillColor=none;collapsible=0;dropTarget=0;points=[[0,0.5],[1,0.5]];portConstraint=eastwest;top=0;left=0;right=0;bottom=1;" vertex="1" parent="rVyHELz2HRK5AfnBP9B1-280">
          <mxGeometry y="30" width="180" height="30" as="geometry" />
        </mxCell>
        <mxCell id="rVyHELz2HRK5AfnBP9B1-282" value="PK" style="shape=partialRectangle;connectable=0;fillColor=none;top=0;left=0;bottom=0;right=0;fontStyle=1;overflow=hidden;whiteSpace=wrap;html=1;" vertex="1" parent="rVyHELz2HRK5AfnBP9B1-281">
          <mxGeometry width="30" height="30" as="geometry">
            <mxRectangle width="30" height="30" as="alternateBounds" />
          </mxGeometry>
        </mxCell>
        <mxCell id="rVyHELz2HRK5AfnBP9B1-283" value="ID Сотрудник" style="shape=partialRectangle;connectable=0;fillColor=none;top=0;left=0;bottom=0;right=0;align=left;spacingLeft=6;fontStyle=5;overflow=hidden;whiteSpace=wrap;html=1;" vertex="1" parent="rVyHELz2HRK5AfnBP9B1-281">
          <mxGeometry x="30" width="150" height="30" as="geometry">
            <mxRectangle width="150" height="30" as="alternateBounds" />
          </mxGeometry>
        </mxCell>
        <mxCell id="rVyHELz2HRK5AfnBP9B1-284" value="" style="shape=tableRow;horizontal=0;startSize=0;swimlaneHead=0;swimlaneBody=0;fillColor=none;collapsible=0;dropTarget=0;points=[[0,0.5],[1,0.5]];portConstraint=eastwest;top=0;left=0;right=0;bottom=0;" vertex="1" parent="rVyHELz2HRK5AfnBP9B1-280">
          <mxGeometry y="60" width="180" height="30" as="geometry" />
        </mxCell>
        <mxCell id="rVyHELz2HRK5AfnBP9B1-285" value="" style="shape=partialRectangle;connectable=0;fillColor=none;top=0;left=0;bottom=0;right=0;editable=1;overflow=hidden;whiteSpace=wrap;html=1;" vertex="1" parent="rVyHELz2HRK5AfnBP9B1-284">
          <mxGeometry width="30" height="30" as="geometry">
            <mxRectangle width="30" height="30" as="alternateBounds" />
          </mxGeometry>
        </mxCell>
        <mxCell id="rVyHELz2HRK5AfnBP9B1-286" value="Должность" style="shape=partialRectangle;connectable=0;fillColor=none;top=0;left=0;bottom=0;right=0;align=left;spacingLeft=6;overflow=hidden;whiteSpace=wrap;html=1;" vertex="1" parent="rVyHELz2HRK5AfnBP9B1-284">
          <mxGeometry x="30" width="150" height="30" as="geometry">
            <mxRectangle width="150" height="30" as="alternateBounds" />
          </mxGeometry>
        </mxCell>
        <mxCell id="rVyHELz2HRK5AfnBP9B1-287" value="" style="shape=tableRow;horizontal=0;startSize=0;swimlaneHead=0;swimlaneBody=0;fillColor=none;collapsible=0;dropTarget=0;points=[[0,0.5],[1,0.5]];portConstraint=eastwest;top=0;left=0;right=0;bottom=0;" vertex="1" parent="rVyHELz2HRK5AfnBP9B1-280">
          <mxGeometry y="90" width="180" height="30" as="geometry" />
        </mxCell>
        <mxCell id="rVyHELz2HRK5AfnBP9B1-288" value="" style="shape=partialRectangle;connectable=0;fillColor=none;top=0;left=0;bottom=0;right=0;editable=1;overflow=hidden;whiteSpace=wrap;html=1;" vertex="1" parent="rVyHELz2HRK5AfnBP9B1-287">
          <mxGeometry width="30" height="30" as="geometry">
            <mxRectangle width="30" height="30" as="alternateBounds" />
          </mxGeometry>
        </mxCell>
        <mxCell id="rVyHELz2HRK5AfnBP9B1-289" value="Отдел" style="shape=partialRectangle;connectable=0;fillColor=none;top=0;left=0;bottom=0;right=0;align=left;spacingLeft=6;overflow=hidden;whiteSpace=wrap;html=1;" vertex="1" parent="rVyHELz2HRK5AfnBP9B1-287">
          <mxGeometry x="30" width="150" height="30" as="geometry">
            <mxRectangle width="150" height="30" as="alternateBounds" />
          </mxGeometry>
        </mxCell>
        <mxCell id="rVyHELz2HRK5AfnBP9B1-290" value="" style="shape=tableRow;horizontal=0;startSize=0;swimlaneHead=0;swimlaneBody=0;fillColor=none;collapsible=0;dropTarget=0;points=[[0,0.5],[1,0.5]];portConstraint=eastwest;top=0;left=0;right=0;bottom=0;" vertex="1" parent="rVyHELz2HRK5AfnBP9B1-280">
          <mxGeometry y="120" width="180" height="30" as="geometry" />
        </mxCell>
        <mxCell id="rVyHELz2HRK5AfnBP9B1-291" value="" style="shape=partialRectangle;connectable=0;fillColor=none;top=0;left=0;bottom=0;right=0;editable=1;overflow=hidden;whiteSpace=wrap;html=1;" vertex="1" parent="rVyHELz2HRK5AfnBP9B1-290">
          <mxGeometry width="30" height="30" as="geometry">
            <mxRectangle width="30" height="30" as="alternateBounds" />
          </mxGeometry>
        </mxCell>
        <mxCell id="rVyHELz2HRK5AfnBP9B1-292" value="Стаж" style="shape=partialRectangle;connectable=0;fillColor=none;top=0;left=0;bottom=0;right=0;align=left;spacingLeft=6;overflow=hidden;whiteSpace=wrap;html=1;" vertex="1" parent="rVyHELz2HRK5AfnBP9B1-290">
          <mxGeometry x="30" width="150" height="30" as="geometry">
            <mxRectangle width="150" height="30" as="alternateBounds" />
          </mxGeometry>
        </mxCell>
        <mxCell id="rVyHELz2HRK5AfnBP9B1-293" value="" style="shape=tableRow;horizontal=0;startSize=0;swimlaneHead=0;swimlaneBody=0;fillColor=none;collapsible=0;dropTarget=0;points=[[0,0.5],[1,0.5]];portConstraint=eastwest;top=0;left=0;right=0;bottom=0;" vertex="1" parent="rVyHELz2HRK5AfnBP9B1-280">
          <mxGeometry y="150" width="180" height="30" as="geometry" />
        </mxCell>
        <mxCell id="rVyHELz2HRK5AfnBP9B1-294" value="FK" style="shape=partialRectangle;connectable=0;fillColor=none;top=0;left=0;bottom=0;right=0;editable=1;overflow=hidden;whiteSpace=wrap;html=1;" vertex="1" parent="rVyHELz2HRK5AfnBP9B1-293">
          <mxGeometry width="30" height="30" as="geometry">
            <mxRectangle width="30" height="30" as="alternateBounds" />
          </mxGeometry>
        </mxCell>
        <mxCell id="rVyHELz2HRK5AfnBP9B1-295" value="ID Пользователь" style="shape=partialRectangle;connectable=0;fillColor=none;top=0;left=0;bottom=0;right=0;align=left;spacingLeft=6;overflow=hidden;whiteSpace=wrap;html=1;" vertex="1" parent="rVyHELz2HRK5AfnBP9B1-293">
          <mxGeometry x="30" width="150" height="30" as="geometry">
            <mxRectangle width="150" height="30" as="alternateBounds" />
          </mxGeometry>
        </mxCell>
        <mxCell id="rVyHELz2HRK5AfnBP9B1-296" value="" style="shape=tableRow;horizontal=0;startSize=0;swimlaneHead=0;swimlaneBody=0;fillColor=none;collapsible=0;dropTarget=0;points=[[0,0.5],[1,0.5]];portConstraint=eastwest;top=0;left=0;right=0;bottom=0;" vertex="1" parent="rVyHELz2HRK5AfnBP9B1-280">
          <mxGeometry y="180" width="180" height="30" as="geometry" />
        </mxCell>
        <mxCell id="rVyHELz2HRK5AfnBP9B1-297" value="FK" style="shape=partialRectangle;connectable=0;fillColor=none;top=0;left=0;bottom=0;right=0;editable=1;overflow=hidden;whiteSpace=wrap;html=1;" vertex="1" parent="rVyHELz2HRK5AfnBP9B1-296">
          <mxGeometry width="30" height="30" as="geometry">
            <mxRectangle width="30" height="30" as="alternateBounds" />
          </mxGeometry>
        </mxCell>
        <mxCell id="rVyHELz2HRK5AfnBP9B1-298" value="ID ПО" style="shape=partialRectangle;connectable=0;fillColor=none;top=0;left=0;bottom=0;right=0;align=left;spacingLeft=6;overflow=hidden;whiteSpace=wrap;html=1;" vertex="1" parent="rVyHELz2HRK5AfnBP9B1-296">
          <mxGeometry x="30" width="150" height="30" as="geometry">
            <mxRectangle width="150" height="30" as="alternateBounds" />
          </mxGeometry>
        </mxCell>
        <mxCell id="rVyHELz2HRK5AfnBP9B1-299" value="Шаблон скидок" style="shape=table;startSize=30;container=1;collapsible=1;childLayout=tableLayout;fixedRows=1;rowLines=0;fontStyle=1;align=center;resizeLast=1;html=1;" vertex="1" parent="1">
          <mxGeometry x="-385" y="168" width="180" height="150" as="geometry" />
        </mxCell>
        <mxCell id="rVyHELz2HRK5AfnBP9B1-300" value="" style="shape=tableRow;horizontal=0;startSize=0;swimlaneHead=0;swimlaneBody=0;fillColor=none;collapsible=0;dropTarget=0;points=[[0,0.5],[1,0.5]];portConstraint=eastwest;top=0;left=0;right=0;bottom=1;" vertex="1" parent="rVyHELz2HRK5AfnBP9B1-299">
          <mxGeometry y="30" width="180" height="30" as="geometry" />
        </mxCell>
        <mxCell id="rVyHELz2HRK5AfnBP9B1-301" value="PK" style="shape=partialRectangle;connectable=0;fillColor=none;top=0;left=0;bottom=0;right=0;fontStyle=1;overflow=hidden;whiteSpace=wrap;html=1;" vertex="1" parent="rVyHELz2HRK5AfnBP9B1-300">
          <mxGeometry width="30" height="30" as="geometry">
            <mxRectangle width="30" height="30" as="alternateBounds" />
          </mxGeometry>
        </mxCell>
        <mxCell id="rVyHELz2HRK5AfnBP9B1-302" value="ID Шаблон" style="shape=partialRectangle;connectable=0;fillColor=none;top=0;left=0;bottom=0;right=0;align=left;spacingLeft=6;fontStyle=5;overflow=hidden;whiteSpace=wrap;html=1;" vertex="1" parent="rVyHELz2HRK5AfnBP9B1-300">
          <mxGeometry x="30" width="150" height="30" as="geometry">
            <mxRectangle width="150" height="30" as="alternateBounds" />
          </mxGeometry>
        </mxCell>
        <mxCell id="rVyHELz2HRK5AfnBP9B1-303" value="" style="shape=tableRow;horizontal=0;startSize=0;swimlaneHead=0;swimlaneBody=0;fillColor=none;collapsible=0;dropTarget=0;points=[[0,0.5],[1,0.5]];portConstraint=eastwest;top=0;left=0;right=0;bottom=0;" vertex="1" parent="rVyHELz2HRK5AfnBP9B1-299">
          <mxGeometry y="60" width="180" height="30" as="geometry" />
        </mxCell>
        <mxCell id="rVyHELz2HRK5AfnBP9B1-304" value="" style="shape=partialRectangle;connectable=0;fillColor=none;top=0;left=0;bottom=0;right=0;editable=1;overflow=hidden;whiteSpace=wrap;html=1;" vertex="1" parent="rVyHELz2HRK5AfnBP9B1-303">
          <mxGeometry width="30" height="30" as="geometry">
            <mxRectangle width="30" height="30" as="alternateBounds" />
          </mxGeometry>
        </mxCell>
        <mxCell id="rVyHELz2HRK5AfnBP9B1-305" value="Название&amp;nbsp;" style="shape=partialRectangle;connectable=0;fillColor=none;top=0;left=0;bottom=0;right=0;align=left;spacingLeft=6;overflow=hidden;whiteSpace=wrap;html=1;" vertex="1" parent="rVyHELz2HRK5AfnBP9B1-303">
          <mxGeometry x="30" width="150" height="30" as="geometry">
            <mxRectangle width="150" height="30" as="alternateBounds" />
          </mxGeometry>
        </mxCell>
        <mxCell id="rVyHELz2HRK5AfnBP9B1-306" value="" style="shape=tableRow;horizontal=0;startSize=0;swimlaneHead=0;swimlaneBody=0;fillColor=none;collapsible=0;dropTarget=0;points=[[0,0.5],[1,0.5]];portConstraint=eastwest;top=0;left=0;right=0;bottom=0;" vertex="1" parent="rVyHELz2HRK5AfnBP9B1-299">
          <mxGeometry y="90" width="180" height="30" as="geometry" />
        </mxCell>
        <mxCell id="rVyHELz2HRK5AfnBP9B1-307" value="" style="shape=partialRectangle;connectable=0;fillColor=none;top=0;left=0;bottom=0;right=0;editable=1;overflow=hidden;whiteSpace=wrap;html=1;" vertex="1" parent="rVyHELz2HRK5AfnBP9B1-306">
          <mxGeometry width="30" height="30" as="geometry">
            <mxRectangle width="30" height="30" as="alternateBounds" />
          </mxGeometry>
        </mxCell>
        <mxCell id="rVyHELz2HRK5AfnBP9B1-308" value="Условия" style="shape=partialRectangle;connectable=0;fillColor=none;top=0;left=0;bottom=0;right=0;align=left;spacingLeft=6;overflow=hidden;whiteSpace=wrap;html=1;" vertex="1" parent="rVyHELz2HRK5AfnBP9B1-306">
          <mxGeometry x="30" width="150" height="30" as="geometry">
            <mxRectangle width="150" height="30" as="alternateBounds" />
          </mxGeometry>
        </mxCell>
        <mxCell id="rVyHELz2HRK5AfnBP9B1-309" value="" style="shape=tableRow;horizontal=0;startSize=0;swimlaneHead=0;swimlaneBody=0;fillColor=none;collapsible=0;dropTarget=0;points=[[0,0.5],[1,0.5]];portConstraint=eastwest;top=0;left=0;right=0;bottom=0;" vertex="1" parent="rVyHELz2HRK5AfnBP9B1-299">
          <mxGeometry y="120" width="180" height="30" as="geometry" />
        </mxCell>
        <mxCell id="rVyHELz2HRK5AfnBP9B1-310" value="" style="shape=partialRectangle;connectable=0;fillColor=none;top=0;left=0;bottom=0;right=0;editable=1;overflow=hidden;whiteSpace=wrap;html=1;" vertex="1" parent="rVyHELz2HRK5AfnBP9B1-309">
          <mxGeometry width="30" height="30" as="geometry">
            <mxRectangle width="30" height="30" as="alternateBounds" />
          </mxGeometry>
        </mxCell>
        <mxCell id="rVyHELz2HRK5AfnBP9B1-311" value="Процент скидки" style="shape=partialRectangle;connectable=0;fillColor=none;top=0;left=0;bottom=0;right=0;align=left;spacingLeft=6;overflow=hidden;whiteSpace=wrap;html=1;" vertex="1" parent="rVyHELz2HRK5AfnBP9B1-309">
          <mxGeometry x="30" width="150" height="30" as="geometry">
            <mxRectangle width="150" height="30" as="alternateBounds" />
          </mxGeometry>
        </mxCell>
        <mxCell id="rVyHELz2HRK5AfnBP9B1-312" value="Заказы" style="shape=table;startSize=30;container=1;collapsible=1;childLayout=tableLayout;fixedRows=1;rowLines=0;fontStyle=1;align=center;resizeLast=1;html=1;" vertex="1" parent="1">
          <mxGeometry x="-90" y="282" width="180" height="180" as="geometry" />
        </mxCell>
        <mxCell id="rVyHELz2HRK5AfnBP9B1-313" value="" style="shape=tableRow;horizontal=0;startSize=0;swimlaneHead=0;swimlaneBody=0;fillColor=none;collapsible=0;dropTarget=0;points=[[0,0.5],[1,0.5]];portConstraint=eastwest;top=0;left=0;right=0;bottom=1;" vertex="1" parent="rVyHELz2HRK5AfnBP9B1-312">
          <mxGeometry y="30" width="180" height="30" as="geometry" />
        </mxCell>
        <mxCell id="rVyHELz2HRK5AfnBP9B1-314" value="PK" style="shape=partialRectangle;connectable=0;fillColor=none;top=0;left=0;bottom=0;right=0;fontStyle=1;overflow=hidden;whiteSpace=wrap;html=1;" vertex="1" parent="rVyHELz2HRK5AfnBP9B1-313">
          <mxGeometry width="30" height="30" as="geometry">
            <mxRectangle width="30" height="30" as="alternateBounds" />
          </mxGeometry>
        </mxCell>
        <mxCell id="rVyHELz2HRK5AfnBP9B1-315" value="ID Заказ" style="shape=partialRectangle;connectable=0;fillColor=none;top=0;left=0;bottom=0;right=0;align=left;spacingLeft=6;fontStyle=5;overflow=hidden;whiteSpace=wrap;html=1;" vertex="1" parent="rVyHELz2HRK5AfnBP9B1-313">
          <mxGeometry x="30" width="150" height="30" as="geometry">
            <mxRectangle width="150" height="30" as="alternateBounds" />
          </mxGeometry>
        </mxCell>
        <mxCell id="rVyHELz2HRK5AfnBP9B1-316" value="" style="shape=tableRow;horizontal=0;startSize=0;swimlaneHead=0;swimlaneBody=0;fillColor=none;collapsible=0;dropTarget=0;points=[[0,0.5],[1,0.5]];portConstraint=eastwest;top=0;left=0;right=0;bottom=0;" vertex="1" parent="rVyHELz2HRK5AfnBP9B1-312">
          <mxGeometry y="60" width="180" height="30" as="geometry" />
        </mxCell>
        <mxCell id="rVyHELz2HRK5AfnBP9B1-317" value="FK" style="shape=partialRectangle;connectable=0;fillColor=none;top=0;left=0;bottom=0;right=0;editable=1;overflow=hidden;whiteSpace=wrap;html=1;" vertex="1" parent="rVyHELz2HRK5AfnBP9B1-316">
          <mxGeometry width="30" height="30" as="geometry">
            <mxRectangle width="30" height="30" as="alternateBounds" />
          </mxGeometry>
        </mxCell>
        <mxCell id="rVyHELz2HRK5AfnBP9B1-318" value="ID Клиент" style="shape=partialRectangle;connectable=0;fillColor=none;top=0;left=0;bottom=0;right=0;align=left;spacingLeft=6;overflow=hidden;whiteSpace=wrap;html=1;" vertex="1" parent="rVyHELz2HRK5AfnBP9B1-316">
          <mxGeometry x="30" width="150" height="30" as="geometry">
            <mxRectangle width="150" height="30" as="alternateBounds" />
          </mxGeometry>
        </mxCell>
        <mxCell id="rVyHELz2HRK5AfnBP9B1-319" value="" style="shape=tableRow;horizontal=0;startSize=0;swimlaneHead=0;swimlaneBody=0;fillColor=none;collapsible=0;dropTarget=0;points=[[0,0.5],[1,0.5]];portConstraint=eastwest;top=0;left=0;right=0;bottom=0;" vertex="1" parent="rVyHELz2HRK5AfnBP9B1-312">
          <mxGeometry y="90" width="180" height="30" as="geometry" />
        </mxCell>
        <mxCell id="rVyHELz2HRK5AfnBP9B1-320" value="" style="shape=partialRectangle;connectable=0;fillColor=none;top=0;left=0;bottom=0;right=0;editable=1;overflow=hidden;whiteSpace=wrap;html=1;" vertex="1" parent="rVyHELz2HRK5AfnBP9B1-319">
          <mxGeometry width="30" height="30" as="geometry">
            <mxRectangle width="30" height="30" as="alternateBounds" />
          </mxGeometry>
        </mxCell>
        <mxCell id="rVyHELz2HRK5AfnBP9B1-321" value="Дата заказа" style="shape=partialRectangle;connectable=0;fillColor=none;top=0;left=0;bottom=0;right=0;align=left;spacingLeft=6;overflow=hidden;whiteSpace=wrap;html=1;" vertex="1" parent="rVyHELz2HRK5AfnBP9B1-319">
          <mxGeometry x="30" width="150" height="30" as="geometry">
            <mxRectangle width="150" height="30" as="alternateBounds" />
          </mxGeometry>
        </mxCell>
        <mxCell id="rVyHELz2HRK5AfnBP9B1-322" value="" style="shape=tableRow;horizontal=0;startSize=0;swimlaneHead=0;swimlaneBody=0;fillColor=none;collapsible=0;dropTarget=0;points=[[0,0.5],[1,0.5]];portConstraint=eastwest;top=0;left=0;right=0;bottom=0;" vertex="1" parent="rVyHELz2HRK5AfnBP9B1-312">
          <mxGeometry y="120" width="180" height="30" as="geometry" />
        </mxCell>
        <mxCell id="rVyHELz2HRK5AfnBP9B1-323" value="" style="shape=partialRectangle;connectable=0;fillColor=none;top=0;left=0;bottom=0;right=0;editable=1;overflow=hidden;whiteSpace=wrap;html=1;" vertex="1" parent="rVyHELz2HRK5AfnBP9B1-322">
          <mxGeometry width="30" height="30" as="geometry">
            <mxRectangle width="30" height="30" as="alternateBounds" />
          </mxGeometry>
        </mxCell>
        <mxCell id="rVyHELz2HRK5AfnBP9B1-324" value="Общая сумма" style="shape=partialRectangle;connectable=0;fillColor=none;top=0;left=0;bottom=0;right=0;align=left;spacingLeft=6;overflow=hidden;whiteSpace=wrap;html=1;" vertex="1" parent="rVyHELz2HRK5AfnBP9B1-322">
          <mxGeometry x="30" width="150" height="30" as="geometry">
            <mxRectangle width="150" height="30" as="alternateBounds" />
          </mxGeometry>
        </mxCell>
        <mxCell id="rVyHELz2HRK5AfnBP9B1-325" value="" style="shape=tableRow;horizontal=0;startSize=0;swimlaneHead=0;swimlaneBody=0;fillColor=none;collapsible=0;dropTarget=0;points=[[0,0.5],[1,0.5]];portConstraint=eastwest;top=0;left=0;right=0;bottom=0;" vertex="1" parent="rVyHELz2HRK5AfnBP9B1-312">
          <mxGeometry y="150" width="180" height="30" as="geometry" />
        </mxCell>
        <mxCell id="rVyHELz2HRK5AfnBP9B1-326" value="" style="shape=partialRectangle;connectable=0;fillColor=none;top=0;left=0;bottom=0;right=0;editable=1;overflow=hidden;whiteSpace=wrap;html=1;" vertex="1" parent="rVyHELz2HRK5AfnBP9B1-325">
          <mxGeometry width="30" height="30" as="geometry">
            <mxRectangle width="30" height="30" as="alternateBounds" />
          </mxGeometry>
        </mxCell>
        <mxCell id="rVyHELz2HRK5AfnBP9B1-327" value="Статус заказа" style="shape=partialRectangle;connectable=0;fillColor=none;top=0;left=0;bottom=0;right=0;align=left;spacingLeft=6;overflow=hidden;whiteSpace=wrap;html=1;" vertex="1" parent="rVyHELz2HRK5AfnBP9B1-325">
          <mxGeometry x="30" width="150" height="30" as="geometry">
            <mxRectangle width="150" height="30" as="alternateBounds" />
          </mxGeometry>
        </mxCell>
        <mxCell id="rVyHELz2HRK5AfnBP9B1-328" value="Товары в заказе" style="shape=table;startSize=30;container=1;collapsible=1;childLayout=tableLayout;fixedRows=1;rowLines=0;fontStyle=1;align=center;resizeLast=1;html=1;" vertex="1" parent="1">
          <mxGeometry x="220" y="291" width="180" height="180" as="geometry" />
        </mxCell>
        <mxCell id="rVyHELz2HRK5AfnBP9B1-329" value="" style="shape=tableRow;horizontal=0;startSize=0;swimlaneHead=0;swimlaneBody=0;fillColor=none;collapsible=0;dropTarget=0;points=[[0,0.5],[1,0.5]];portConstraint=eastwest;top=0;left=0;right=0;bottom=1;" vertex="1" parent="rVyHELz2HRK5AfnBP9B1-328">
          <mxGeometry y="30" width="180" height="30" as="geometry" />
        </mxCell>
        <mxCell id="rVyHELz2HRK5AfnBP9B1-330" value="PK" style="shape=partialRectangle;connectable=0;fillColor=none;top=0;left=0;bottom=0;right=0;fontStyle=1;overflow=hidden;whiteSpace=wrap;html=1;" vertex="1" parent="rVyHELz2HRK5AfnBP9B1-329">
          <mxGeometry width="30" height="30" as="geometry">
            <mxRectangle width="30" height="30" as="alternateBounds" />
          </mxGeometry>
        </mxCell>
        <mxCell id="rVyHELz2HRK5AfnBP9B1-331" value="ID Товар" style="shape=partialRectangle;connectable=0;fillColor=none;top=0;left=0;bottom=0;right=0;align=left;spacingLeft=6;fontStyle=5;overflow=hidden;whiteSpace=wrap;html=1;" vertex="1" parent="rVyHELz2HRK5AfnBP9B1-329">
          <mxGeometry x="30" width="150" height="30" as="geometry">
            <mxRectangle width="150" height="30" as="alternateBounds" />
          </mxGeometry>
        </mxCell>
        <mxCell id="rVyHELz2HRK5AfnBP9B1-332" value="" style="shape=tableRow;horizontal=0;startSize=0;swimlaneHead=0;swimlaneBody=0;fillColor=none;collapsible=0;dropTarget=0;points=[[0,0.5],[1,0.5]];portConstraint=eastwest;top=0;left=0;right=0;bottom=0;" vertex="1" parent="rVyHELz2HRK5AfnBP9B1-328">
          <mxGeometry y="60" width="180" height="30" as="geometry" />
        </mxCell>
        <mxCell id="rVyHELz2HRK5AfnBP9B1-333" value="FK" style="shape=partialRectangle;connectable=0;fillColor=none;top=0;left=0;bottom=0;right=0;editable=1;overflow=hidden;whiteSpace=wrap;html=1;" vertex="1" parent="rVyHELz2HRK5AfnBP9B1-332">
          <mxGeometry width="30" height="30" as="geometry">
            <mxRectangle width="30" height="30" as="alternateBounds" />
          </mxGeometry>
        </mxCell>
        <mxCell id="rVyHELz2HRK5AfnBP9B1-334" value="ID заказ" style="shape=partialRectangle;connectable=0;fillColor=none;top=0;left=0;bottom=0;right=0;align=left;spacingLeft=6;overflow=hidden;whiteSpace=wrap;html=1;" vertex="1" parent="rVyHELz2HRK5AfnBP9B1-332">
          <mxGeometry x="30" width="150" height="30" as="geometry">
            <mxRectangle width="150" height="30" as="alternateBounds" />
          </mxGeometry>
        </mxCell>
        <mxCell id="rVyHELz2HRK5AfnBP9B1-335" value="" style="shape=tableRow;horizontal=0;startSize=0;swimlaneHead=0;swimlaneBody=0;fillColor=none;collapsible=0;dropTarget=0;points=[[0,0.5],[1,0.5]];portConstraint=eastwest;top=0;left=0;right=0;bottom=0;" vertex="1" parent="rVyHELz2HRK5AfnBP9B1-328">
          <mxGeometry y="90" width="180" height="30" as="geometry" />
        </mxCell>
        <mxCell id="rVyHELz2HRK5AfnBP9B1-336" value="FK" style="shape=partialRectangle;connectable=0;fillColor=none;top=0;left=0;bottom=0;right=0;editable=1;overflow=hidden;whiteSpace=wrap;html=1;" vertex="1" parent="rVyHELz2HRK5AfnBP9B1-335">
          <mxGeometry width="30" height="30" as="geometry">
            <mxRectangle width="30" height="30" as="alternateBounds" />
          </mxGeometry>
        </mxCell>
        <mxCell id="rVyHELz2HRK5AfnBP9B1-337" value="ID Каталог" style="shape=partialRectangle;connectable=0;fillColor=none;top=0;left=0;bottom=0;right=0;align=left;spacingLeft=6;overflow=hidden;whiteSpace=wrap;html=1;" vertex="1" parent="rVyHELz2HRK5AfnBP9B1-335">
          <mxGeometry x="30" width="150" height="30" as="geometry">
            <mxRectangle width="150" height="30" as="alternateBounds" />
          </mxGeometry>
        </mxCell>
        <mxCell id="rVyHELz2HRK5AfnBP9B1-338" value="" style="shape=tableRow;horizontal=0;startSize=0;swimlaneHead=0;swimlaneBody=0;fillColor=none;collapsible=0;dropTarget=0;points=[[0,0.5],[1,0.5]];portConstraint=eastwest;top=0;left=0;right=0;bottom=0;" vertex="1" parent="rVyHELz2HRK5AfnBP9B1-328">
          <mxGeometry y="120" width="180" height="30" as="geometry" />
        </mxCell>
        <mxCell id="rVyHELz2HRK5AfnBP9B1-339" value="" style="shape=partialRectangle;connectable=0;fillColor=none;top=0;left=0;bottom=0;right=0;editable=1;overflow=hidden;whiteSpace=wrap;html=1;" vertex="1" parent="rVyHELz2HRK5AfnBP9B1-338">
          <mxGeometry width="30" height="30" as="geometry">
            <mxRectangle width="30" height="30" as="alternateBounds" />
          </mxGeometry>
        </mxCell>
        <mxCell id="rVyHELz2HRK5AfnBP9B1-340" value="Количество" style="shape=partialRectangle;connectable=0;fillColor=none;top=0;left=0;bottom=0;right=0;align=left;spacingLeft=6;overflow=hidden;whiteSpace=wrap;html=1;" vertex="1" parent="rVyHELz2HRK5AfnBP9B1-338">
          <mxGeometry x="30" width="150" height="30" as="geometry">
            <mxRectangle width="150" height="30" as="alternateBounds" />
          </mxGeometry>
        </mxCell>
        <mxCell id="rVyHELz2HRK5AfnBP9B1-341" value="" style="shape=tableRow;horizontal=0;startSize=0;swimlaneHead=0;swimlaneBody=0;fillColor=none;collapsible=0;dropTarget=0;points=[[0,0.5],[1,0.5]];portConstraint=eastwest;top=0;left=0;right=0;bottom=0;" vertex="1" parent="rVyHELz2HRK5AfnBP9B1-328">
          <mxGeometry y="150" width="180" height="30" as="geometry" />
        </mxCell>
        <mxCell id="rVyHELz2HRK5AfnBP9B1-342" value="" style="shape=partialRectangle;connectable=0;fillColor=none;top=0;left=0;bottom=0;right=0;editable=1;overflow=hidden;whiteSpace=wrap;html=1;" vertex="1" parent="rVyHELz2HRK5AfnBP9B1-341">
          <mxGeometry width="30" height="30" as="geometry">
            <mxRectangle width="30" height="30" as="alternateBounds" />
          </mxGeometry>
        </mxCell>
        <mxCell id="rVyHELz2HRK5AfnBP9B1-343" value="Цена за единицу" style="shape=partialRectangle;connectable=0;fillColor=none;top=0;left=0;bottom=0;right=0;align=left;spacingLeft=6;overflow=hidden;whiteSpace=wrap;html=1;" vertex="1" parent="rVyHELz2HRK5AfnBP9B1-341">
          <mxGeometry x="30" width="150" height="30" as="geometry">
            <mxRectangle width="150" height="30" as="alternateBounds" />
          </mxGeometry>
        </mxCell>
        <mxCell id="rVyHELz2HRK5AfnBP9B1-344" value="Личный кабинет" style="shape=table;startSize=30;container=1;collapsible=1;childLayout=tableLayout;fixedRows=1;rowLines=0;fontStyle=1;align=center;resizeLast=1;html=1;" vertex="1" parent="1">
          <mxGeometry x="-685" y="-130" width="180" height="189" as="geometry" />
        </mxCell>
        <mxCell id="rVyHELz2HRK5AfnBP9B1-345" value="" style="shape=tableRow;horizontal=0;startSize=0;swimlaneHead=0;swimlaneBody=0;fillColor=none;collapsible=0;dropTarget=0;points=[[0,0.5],[1,0.5]];portConstraint=eastwest;top=0;left=0;right=0;bottom=1;" vertex="1" parent="rVyHELz2HRK5AfnBP9B1-344">
          <mxGeometry y="30" width="180" height="30" as="geometry" />
        </mxCell>
        <mxCell id="rVyHELz2HRK5AfnBP9B1-346" value="PK" style="shape=partialRectangle;connectable=0;fillColor=none;top=0;left=0;bottom=0;right=0;fontStyle=1;overflow=hidden;whiteSpace=wrap;html=1;" vertex="1" parent="rVyHELz2HRK5AfnBP9B1-345">
          <mxGeometry width="30" height="30" as="geometry">
            <mxRectangle width="30" height="30" as="alternateBounds" />
          </mxGeometry>
        </mxCell>
        <mxCell id="rVyHELz2HRK5AfnBP9B1-347" value="ID Кабинет" style="shape=partialRectangle;connectable=0;fillColor=none;top=0;left=0;bottom=0;right=0;align=left;spacingLeft=6;fontStyle=5;overflow=hidden;whiteSpace=wrap;html=1;" vertex="1" parent="rVyHELz2HRK5AfnBP9B1-345">
          <mxGeometry x="30" width="150" height="30" as="geometry">
            <mxRectangle width="150" height="30" as="alternateBounds" />
          </mxGeometry>
        </mxCell>
        <mxCell id="rVyHELz2HRK5AfnBP9B1-348" value="" style="shape=tableRow;horizontal=0;startSize=0;swimlaneHead=0;swimlaneBody=0;fillColor=none;collapsible=0;dropTarget=0;points=[[0,0.5],[1,0.5]];portConstraint=eastwest;top=0;left=0;right=0;bottom=0;" vertex="1" parent="rVyHELz2HRK5AfnBP9B1-344">
          <mxGeometry y="60" width="180" height="30" as="geometry" />
        </mxCell>
        <mxCell id="rVyHELz2HRK5AfnBP9B1-349" value="FK" style="shape=partialRectangle;connectable=0;fillColor=none;top=0;left=0;bottom=0;right=0;editable=1;overflow=hidden;whiteSpace=wrap;html=1;" vertex="1" parent="rVyHELz2HRK5AfnBP9B1-348">
          <mxGeometry width="30" height="30" as="geometry">
            <mxRectangle width="30" height="30" as="alternateBounds" />
          </mxGeometry>
        </mxCell>
        <mxCell id="rVyHELz2HRK5AfnBP9B1-350" value="ID Пользователь" style="shape=partialRectangle;connectable=0;fillColor=none;top=0;left=0;bottom=0;right=0;align=left;spacingLeft=6;overflow=hidden;whiteSpace=wrap;html=1;" vertex="1" parent="rVyHELz2HRK5AfnBP9B1-348">
          <mxGeometry x="30" width="150" height="30" as="geometry">
            <mxRectangle width="150" height="30" as="alternateBounds" />
          </mxGeometry>
        </mxCell>
        <mxCell id="rVyHELz2HRK5AfnBP9B1-351" value="" style="shape=tableRow;horizontal=0;startSize=0;swimlaneHead=0;swimlaneBody=0;fillColor=none;collapsible=0;dropTarget=0;points=[[0,0.5],[1,0.5]];portConstraint=eastwest;top=0;left=0;right=0;bottom=0;" vertex="1" parent="rVyHELz2HRK5AfnBP9B1-344">
          <mxGeometry y="90" width="180" height="30" as="geometry" />
        </mxCell>
        <mxCell id="rVyHELz2HRK5AfnBP9B1-352" value="" style="shape=partialRectangle;connectable=0;fillColor=none;top=0;left=0;bottom=0;right=0;editable=1;overflow=hidden;whiteSpace=wrap;html=1;" vertex="1" parent="rVyHELz2HRK5AfnBP9B1-351">
          <mxGeometry width="30" height="30" as="geometry">
            <mxRectangle width="30" height="30" as="alternateBounds" />
          </mxGeometry>
        </mxCell>
        <mxCell id="rVyHELz2HRK5AfnBP9B1-353" value="Дата регистрации" style="shape=partialRectangle;connectable=0;fillColor=none;top=0;left=0;bottom=0;right=0;align=left;spacingLeft=6;overflow=hidden;whiteSpace=wrap;html=1;" vertex="1" parent="rVyHELz2HRK5AfnBP9B1-351">
          <mxGeometry x="30" width="150" height="30" as="geometry">
            <mxRectangle width="150" height="30" as="alternateBounds" />
          </mxGeometry>
        </mxCell>
        <mxCell id="rVyHELz2HRK5AfnBP9B1-354" value="" style="shape=tableRow;horizontal=0;startSize=0;swimlaneHead=0;swimlaneBody=0;fillColor=none;collapsible=0;dropTarget=0;points=[[0,0.5],[1,0.5]];portConstraint=eastwest;top=0;left=0;right=0;bottom=0;" vertex="1" parent="rVyHELz2HRK5AfnBP9B1-344">
          <mxGeometry y="120" width="180" height="39" as="geometry" />
        </mxCell>
        <mxCell id="rVyHELz2HRK5AfnBP9B1-355" value="" style="shape=partialRectangle;connectable=0;fillColor=none;top=0;left=0;bottom=0;right=0;editable=1;overflow=hidden;whiteSpace=wrap;html=1;" vertex="1" parent="rVyHELz2HRK5AfnBP9B1-354">
          <mxGeometry width="30" height="39" as="geometry">
            <mxRectangle width="30" height="39" as="alternateBounds" />
          </mxGeometry>
        </mxCell>
        <mxCell id="rVyHELz2HRK5AfnBP9B1-356" value="Дата и время последнего изменения профиля" style="shape=partialRectangle;connectable=0;fillColor=none;top=0;left=0;bottom=0;right=0;align=left;spacingLeft=6;overflow=hidden;whiteSpace=wrap;html=1;" vertex="1" parent="rVyHELz2HRK5AfnBP9B1-354">
          <mxGeometry x="30" width="150" height="39" as="geometry">
            <mxRectangle width="150" height="39" as="alternateBounds" />
          </mxGeometry>
        </mxCell>
        <mxCell id="rVyHELz2HRK5AfnBP9B1-357" value="" style="shape=tableRow;horizontal=0;startSize=0;swimlaneHead=0;swimlaneBody=0;fillColor=none;collapsible=0;dropTarget=0;points=[[0,0.5],[1,0.5]];portConstraint=eastwest;top=0;left=0;right=0;bottom=0;" vertex="1" parent="rVyHELz2HRK5AfnBP9B1-344">
          <mxGeometry y="159" width="180" height="30" as="geometry" />
        </mxCell>
        <mxCell id="rVyHELz2HRK5AfnBP9B1-358" value="FK" style="shape=partialRectangle;connectable=0;fillColor=none;top=0;left=0;bottom=0;right=0;editable=1;overflow=hidden;whiteSpace=wrap;html=1;" vertex="1" parent="rVyHELz2HRK5AfnBP9B1-357">
          <mxGeometry width="30" height="30" as="geometry">
            <mxRectangle width="30" height="30" as="alternateBounds" />
          </mxGeometry>
        </mxCell>
        <mxCell id="rVyHELz2HRK5AfnBP9B1-359" value="ID Заказ" style="shape=partialRectangle;connectable=0;fillColor=none;top=0;left=0;bottom=0;right=0;align=left;spacingLeft=6;overflow=hidden;whiteSpace=wrap;html=1;" vertex="1" parent="rVyHELz2HRK5AfnBP9B1-357">
          <mxGeometry x="30" width="150" height="30" as="geometry">
            <mxRectangle width="150" height="30" as="alternateBounds" />
          </mxGeometry>
        </mxCell>
        <mxCell id="rVyHELz2HRK5AfnBP9B1-360" value="Каталог паровозиков" style="shape=table;startSize=30;container=1;collapsible=1;childLayout=tableLayout;fixedRows=1;rowLines=0;fontStyle=1;align=center;resizeLast=1;html=1;" vertex="1" parent="1">
          <mxGeometry x="481" y="291" width="180" height="210" as="geometry" />
        </mxCell>
        <mxCell id="rVyHELz2HRK5AfnBP9B1-361" value="" style="shape=tableRow;horizontal=0;startSize=0;swimlaneHead=0;swimlaneBody=0;fillColor=none;collapsible=0;dropTarget=0;points=[[0,0.5],[1,0.5]];portConstraint=eastwest;top=0;left=0;right=0;bottom=1;" vertex="1" parent="rVyHELz2HRK5AfnBP9B1-360">
          <mxGeometry y="30" width="180" height="30" as="geometry" />
        </mxCell>
        <mxCell id="rVyHELz2HRK5AfnBP9B1-362" value="PK" style="shape=partialRectangle;connectable=0;fillColor=none;top=0;left=0;bottom=0;right=0;fontStyle=1;overflow=hidden;whiteSpace=wrap;html=1;" vertex="1" parent="rVyHELz2HRK5AfnBP9B1-361">
          <mxGeometry width="30" height="30" as="geometry">
            <mxRectangle width="30" height="30" as="alternateBounds" />
          </mxGeometry>
        </mxCell>
        <mxCell id="rVyHELz2HRK5AfnBP9B1-363" value="ID Каталог" style="shape=partialRectangle;connectable=0;fillColor=none;top=0;left=0;bottom=0;right=0;align=left;spacingLeft=6;fontStyle=5;overflow=hidden;whiteSpace=wrap;html=1;" vertex="1" parent="rVyHELz2HRK5AfnBP9B1-361">
          <mxGeometry x="30" width="150" height="30" as="geometry">
            <mxRectangle width="150" height="30" as="alternateBounds" />
          </mxGeometry>
        </mxCell>
        <mxCell id="rVyHELz2HRK5AfnBP9B1-364" value="" style="shape=tableRow;horizontal=0;startSize=0;swimlaneHead=0;swimlaneBody=0;fillColor=none;collapsible=0;dropTarget=0;points=[[0,0.5],[1,0.5]];portConstraint=eastwest;top=0;left=0;right=0;bottom=0;" vertex="1" parent="rVyHELz2HRK5AfnBP9B1-360">
          <mxGeometry y="60" width="180" height="30" as="geometry" />
        </mxCell>
        <mxCell id="rVyHELz2HRK5AfnBP9B1-365" value="" style="shape=partialRectangle;connectable=0;fillColor=none;top=0;left=0;bottom=0;right=0;editable=1;overflow=hidden;whiteSpace=wrap;html=1;" vertex="1" parent="rVyHELz2HRK5AfnBP9B1-364">
          <mxGeometry width="30" height="30" as="geometry">
            <mxRectangle width="30" height="30" as="alternateBounds" />
          </mxGeometry>
        </mxCell>
        <mxCell id="rVyHELz2HRK5AfnBP9B1-366" value="Название" style="shape=partialRectangle;connectable=0;fillColor=none;top=0;left=0;bottom=0;right=0;align=left;spacingLeft=6;overflow=hidden;whiteSpace=wrap;html=1;" vertex="1" parent="rVyHELz2HRK5AfnBP9B1-364">
          <mxGeometry x="30" width="150" height="30" as="geometry">
            <mxRectangle width="150" height="30" as="alternateBounds" />
          </mxGeometry>
        </mxCell>
        <mxCell id="rVyHELz2HRK5AfnBP9B1-367" value="" style="shape=tableRow;horizontal=0;startSize=0;swimlaneHead=0;swimlaneBody=0;fillColor=none;collapsible=0;dropTarget=0;points=[[0,0.5],[1,0.5]];portConstraint=eastwest;top=0;left=0;right=0;bottom=0;" vertex="1" parent="rVyHELz2HRK5AfnBP9B1-360">
          <mxGeometry y="90" width="180" height="30" as="geometry" />
        </mxCell>
        <mxCell id="rVyHELz2HRK5AfnBP9B1-368" value="" style="shape=partialRectangle;connectable=0;fillColor=none;top=0;left=0;bottom=0;right=0;editable=1;overflow=hidden;whiteSpace=wrap;html=1;" vertex="1" parent="rVyHELz2HRK5AfnBP9B1-367">
          <mxGeometry width="30" height="30" as="geometry">
            <mxRectangle width="30" height="30" as="alternateBounds" />
          </mxGeometry>
        </mxCell>
        <mxCell id="rVyHELz2HRK5AfnBP9B1-369" value="Описание" style="shape=partialRectangle;connectable=0;fillColor=none;top=0;left=0;bottom=0;right=0;align=left;spacingLeft=6;overflow=hidden;whiteSpace=wrap;html=1;" vertex="1" parent="rVyHELz2HRK5AfnBP9B1-367">
          <mxGeometry x="30" width="150" height="30" as="geometry">
            <mxRectangle width="150" height="30" as="alternateBounds" />
          </mxGeometry>
        </mxCell>
        <mxCell id="rVyHELz2HRK5AfnBP9B1-370" value="" style="shape=tableRow;horizontal=0;startSize=0;swimlaneHead=0;swimlaneBody=0;fillColor=none;collapsible=0;dropTarget=0;points=[[0,0.5],[1,0.5]];portConstraint=eastwest;top=0;left=0;right=0;bottom=0;" vertex="1" parent="rVyHELz2HRK5AfnBP9B1-360">
          <mxGeometry y="120" width="180" height="30" as="geometry" />
        </mxCell>
        <mxCell id="rVyHELz2HRK5AfnBP9B1-371" value="" style="shape=partialRectangle;connectable=0;fillColor=none;top=0;left=0;bottom=0;right=0;editable=1;overflow=hidden;whiteSpace=wrap;html=1;" vertex="1" parent="rVyHELz2HRK5AfnBP9B1-370">
          <mxGeometry width="30" height="30" as="geometry">
            <mxRectangle width="30" height="30" as="alternateBounds" />
          </mxGeometry>
        </mxCell>
        <mxCell id="rVyHELz2HRK5AfnBP9B1-372" value="Цена" style="shape=partialRectangle;connectable=0;fillColor=none;top=0;left=0;bottom=0;right=0;align=left;spacingLeft=6;overflow=hidden;whiteSpace=wrap;html=1;" vertex="1" parent="rVyHELz2HRK5AfnBP9B1-370">
          <mxGeometry x="30" width="150" height="30" as="geometry">
            <mxRectangle width="150" height="30" as="alternateBounds" />
          </mxGeometry>
        </mxCell>
        <mxCell id="rVyHELz2HRK5AfnBP9B1-373" value="" style="shape=tableRow;horizontal=0;startSize=0;swimlaneHead=0;swimlaneBody=0;fillColor=none;collapsible=0;dropTarget=0;points=[[0,0.5],[1,0.5]];portConstraint=eastwest;top=0;left=0;right=0;bottom=0;" vertex="1" parent="rVyHELz2HRK5AfnBP9B1-360">
          <mxGeometry y="150" width="180" height="30" as="geometry" />
        </mxCell>
        <mxCell id="rVyHELz2HRK5AfnBP9B1-374" value="" style="shape=partialRectangle;connectable=0;fillColor=none;top=0;left=0;bottom=0;right=0;editable=1;overflow=hidden;whiteSpace=wrap;html=1;" vertex="1" parent="rVyHELz2HRK5AfnBP9B1-373">
          <mxGeometry width="30" height="30" as="geometry">
            <mxRectangle width="30" height="30" as="alternateBounds" />
          </mxGeometry>
        </mxCell>
        <mxCell id="rVyHELz2HRK5AfnBP9B1-375" value="Наличие" style="shape=partialRectangle;connectable=0;fillColor=none;top=0;left=0;bottom=0;right=0;align=left;spacingLeft=6;overflow=hidden;whiteSpace=wrap;html=1;" vertex="1" parent="rVyHELz2HRK5AfnBP9B1-373">
          <mxGeometry x="30" width="150" height="30" as="geometry">
            <mxRectangle width="150" height="30" as="alternateBounds" />
          </mxGeometry>
        </mxCell>
        <mxCell id="rVyHELz2HRK5AfnBP9B1-376" value="" style="shape=tableRow;horizontal=0;startSize=0;swimlaneHead=0;swimlaneBody=0;fillColor=none;collapsible=0;dropTarget=0;points=[[0,0.5],[1,0.5]];portConstraint=eastwest;top=0;left=0;right=0;bottom=0;" vertex="1" parent="rVyHELz2HRK5AfnBP9B1-360">
          <mxGeometry y="180" width="180" height="30" as="geometry" />
        </mxCell>
        <mxCell id="rVyHELz2HRK5AfnBP9B1-377" value="FK" style="shape=partialRectangle;connectable=0;fillColor=none;top=0;left=0;bottom=0;right=0;editable=1;overflow=hidden;whiteSpace=wrap;html=1;" vertex="1" parent="rVyHELz2HRK5AfnBP9B1-376">
          <mxGeometry width="30" height="30" as="geometry">
            <mxRectangle width="30" height="30" as="alternateBounds" />
          </mxGeometry>
        </mxCell>
        <mxCell id="rVyHELz2HRK5AfnBP9B1-378" value="ID модель" style="shape=partialRectangle;connectable=0;fillColor=none;top=0;left=0;bottom=0;right=0;align=left;spacingLeft=6;overflow=hidden;whiteSpace=wrap;html=1;" vertex="1" parent="rVyHELz2HRK5AfnBP9B1-376">
          <mxGeometry x="30" width="150" height="30" as="geometry">
            <mxRectangle width="150" height="30" as="alternateBounds" />
          </mxGeometry>
        </mxCell>
        <mxCell id="rVyHELz2HRK5AfnBP9B1-379" value="Персоналии сотрудников" style="shape=table;startSize=30;container=1;collapsible=1;childLayout=tableLayout;fixedRows=1;rowLines=0;fontStyle=1;align=center;resizeLast=1;html=1;" vertex="1" parent="1">
          <mxGeometry x="579" y="-136" width="180" height="120" as="geometry" />
        </mxCell>
        <mxCell id="rVyHELz2HRK5AfnBP9B1-380" value="" style="shape=tableRow;horizontal=0;startSize=0;swimlaneHead=0;swimlaneBody=0;fillColor=none;collapsible=0;dropTarget=0;points=[[0,0.5],[1,0.5]];portConstraint=eastwest;top=0;left=0;right=0;bottom=1;" vertex="1" parent="rVyHELz2HRK5AfnBP9B1-379">
          <mxGeometry y="30" width="180" height="30" as="geometry" />
        </mxCell>
        <mxCell id="rVyHELz2HRK5AfnBP9B1-381" value="PK" style="shape=partialRectangle;connectable=0;fillColor=none;top=0;left=0;bottom=0;right=0;fontStyle=1;overflow=hidden;whiteSpace=wrap;html=1;" vertex="1" parent="rVyHELz2HRK5AfnBP9B1-380">
          <mxGeometry width="30" height="30" as="geometry">
            <mxRectangle width="30" height="30" as="alternateBounds" />
          </mxGeometry>
        </mxCell>
        <mxCell id="rVyHELz2HRK5AfnBP9B1-382" value="ID Профиль" style="shape=partialRectangle;connectable=0;fillColor=none;top=0;left=0;bottom=0;right=0;align=left;spacingLeft=6;fontStyle=5;overflow=hidden;whiteSpace=wrap;html=1;" vertex="1" parent="rVyHELz2HRK5AfnBP9B1-380">
          <mxGeometry x="30" width="150" height="30" as="geometry">
            <mxRectangle width="150" height="30" as="alternateBounds" />
          </mxGeometry>
        </mxCell>
        <mxCell id="rVyHELz2HRK5AfnBP9B1-383" value="" style="shape=tableRow;horizontal=0;startSize=0;swimlaneHead=0;swimlaneBody=0;fillColor=none;collapsible=0;dropTarget=0;points=[[0,0.5],[1,0.5]];portConstraint=eastwest;top=0;left=0;right=0;bottom=0;" vertex="1" parent="rVyHELz2HRK5AfnBP9B1-379">
          <mxGeometry y="60" width="180" height="30" as="geometry" />
        </mxCell>
        <mxCell id="rVyHELz2HRK5AfnBP9B1-384" value="FK" style="shape=partialRectangle;connectable=0;fillColor=none;top=0;left=0;bottom=0;right=0;editable=1;overflow=hidden;whiteSpace=wrap;html=1;" vertex="1" parent="rVyHELz2HRK5AfnBP9B1-383">
          <mxGeometry width="30" height="30" as="geometry">
            <mxRectangle width="30" height="30" as="alternateBounds" />
          </mxGeometry>
        </mxCell>
        <mxCell id="rVyHELz2HRK5AfnBP9B1-385" value="ID Сотрудник" style="shape=partialRectangle;connectable=0;fillColor=none;top=0;left=0;bottom=0;right=0;align=left;spacingLeft=6;overflow=hidden;whiteSpace=wrap;html=1;" vertex="1" parent="rVyHELz2HRK5AfnBP9B1-383">
          <mxGeometry x="30" width="150" height="30" as="geometry">
            <mxRectangle width="150" height="30" as="alternateBounds" />
          </mxGeometry>
        </mxCell>
        <mxCell id="rVyHELz2HRK5AfnBP9B1-386" value="" style="shape=tableRow;horizontal=0;startSize=0;swimlaneHead=0;swimlaneBody=0;fillColor=none;collapsible=0;dropTarget=0;points=[[0,0.5],[1,0.5]];portConstraint=eastwest;top=0;left=0;right=0;bottom=0;" vertex="1" parent="rVyHELz2HRK5AfnBP9B1-379">
          <mxGeometry y="90" width="180" height="30" as="geometry" />
        </mxCell>
        <mxCell id="rVyHELz2HRK5AfnBP9B1-387" value="" style="shape=partialRectangle;connectable=0;fillColor=none;top=0;left=0;bottom=0;right=0;editable=1;overflow=hidden;whiteSpace=wrap;html=1;" vertex="1" parent="rVyHELz2HRK5AfnBP9B1-386">
          <mxGeometry width="30" height="30" as="geometry">
            <mxRectangle width="30" height="30" as="alternateBounds" />
          </mxGeometry>
        </mxCell>
        <mxCell id="rVyHELz2HRK5AfnBP9B1-388" value="Биография" style="shape=partialRectangle;connectable=0;fillColor=none;top=0;left=0;bottom=0;right=0;align=left;spacingLeft=6;overflow=hidden;whiteSpace=wrap;html=1;" vertex="1" parent="rVyHELz2HRK5AfnBP9B1-386">
          <mxGeometry x="30" width="150" height="30" as="geometry">
            <mxRectangle width="150" height="30" as="alternateBounds" />
          </mxGeometry>
        </mxCell>
        <mxCell id="rVyHELz2HRK5AfnBP9B1-389" value="Экономическое ПО" style="shape=table;startSize=30;container=1;collapsible=1;childLayout=tableLayout;fixedRows=1;rowLines=0;fontStyle=1;align=center;resizeLast=1;html=1;" vertex="1" parent="1">
          <mxGeometry x="376" y="95" width="180" height="172.4375" as="geometry" />
        </mxCell>
        <mxCell id="rVyHELz2HRK5AfnBP9B1-390" value="" style="shape=tableRow;horizontal=0;startSize=0;swimlaneHead=0;swimlaneBody=0;fillColor=none;collapsible=0;dropTarget=0;points=[[0,0.5],[1,0.5]];portConstraint=eastwest;top=0;left=0;right=0;bottom=1;" vertex="1" parent="rVyHELz2HRK5AfnBP9B1-389">
          <mxGeometry y="30" width="180" height="30" as="geometry" />
        </mxCell>
        <mxCell id="rVyHELz2HRK5AfnBP9B1-391" value="PK" style="shape=partialRectangle;connectable=0;fillColor=none;top=0;left=0;bottom=0;right=0;fontStyle=1;overflow=hidden;whiteSpace=wrap;html=1;" vertex="1" parent="rVyHELz2HRK5AfnBP9B1-390">
          <mxGeometry width="30" height="30" as="geometry">
            <mxRectangle width="30" height="30" as="alternateBounds" />
          </mxGeometry>
        </mxCell>
        <mxCell id="rVyHELz2HRK5AfnBP9B1-392" value="ID ПО" style="shape=partialRectangle;connectable=0;fillColor=none;top=0;left=0;bottom=0;right=0;align=left;spacingLeft=6;fontStyle=5;overflow=hidden;whiteSpace=wrap;html=1;" vertex="1" parent="rVyHELz2HRK5AfnBP9B1-390">
          <mxGeometry x="30" width="150" height="30" as="geometry">
            <mxRectangle width="150" height="30" as="alternateBounds" />
          </mxGeometry>
        </mxCell>
        <mxCell id="rVyHELz2HRK5AfnBP9B1-393" value="" style="shape=tableRow;horizontal=0;startSize=0;swimlaneHead=0;swimlaneBody=0;fillColor=none;collapsible=0;dropTarget=0;points=[[0,0.5],[1,0.5]];portConstraint=eastwest;top=0;left=0;right=0;bottom=0;" vertex="1" parent="rVyHELz2HRK5AfnBP9B1-389">
          <mxGeometry y="60" width="180" height="41" as="geometry" />
        </mxCell>
        <mxCell id="rVyHELz2HRK5AfnBP9B1-394" value="" style="shape=partialRectangle;connectable=0;fillColor=none;top=0;left=0;bottom=0;right=0;editable=1;overflow=hidden;whiteSpace=wrap;html=1;" vertex="1" parent="rVyHELz2HRK5AfnBP9B1-393">
          <mxGeometry width="30" height="41" as="geometry">
            <mxRectangle width="30" height="41" as="alternateBounds" />
          </mxGeometry>
        </mxCell>
        <mxCell id="rVyHELz2HRK5AfnBP9B1-395" value="Название" style="shape=partialRectangle;connectable=0;fillColor=none;top=0;left=0;bottom=0;right=0;align=left;spacingLeft=6;overflow=hidden;whiteSpace=wrap;html=1;" vertex="1" parent="rVyHELz2HRK5AfnBP9B1-393">
          <mxGeometry x="30" width="150" height="41" as="geometry">
            <mxRectangle width="150" height="41" as="alternateBounds" />
          </mxGeometry>
        </mxCell>
        <mxCell id="rVyHELz2HRK5AfnBP9B1-396" value="" style="shape=tableRow;horizontal=0;startSize=0;swimlaneHead=0;swimlaneBody=0;fillColor=none;collapsible=0;dropTarget=0;points=[[0,0.5],[1,0.5]];portConstraint=eastwest;top=0;left=0;right=0;bottom=0;" vertex="1" parent="rVyHELz2HRK5AfnBP9B1-389">
          <mxGeometry y="101" width="180" height="30" as="geometry" />
        </mxCell>
        <mxCell id="rVyHELz2HRK5AfnBP9B1-397" value="" style="shape=partialRectangle;connectable=0;fillColor=none;top=0;left=0;bottom=0;right=0;editable=1;overflow=hidden;whiteSpace=wrap;html=1;" vertex="1" parent="rVyHELz2HRK5AfnBP9B1-396">
          <mxGeometry width="30" height="30" as="geometry">
            <mxRectangle width="30" height="30" as="alternateBounds" />
          </mxGeometry>
        </mxCell>
        <mxCell id="rVyHELz2HRK5AfnBP9B1-398" value="Статус(активно/неактивно)" style="shape=partialRectangle;connectable=0;fillColor=none;top=0;left=0;bottom=0;right=0;align=left;spacingLeft=6;overflow=hidden;whiteSpace=wrap;html=1;" vertex="1" parent="rVyHELz2HRK5AfnBP9B1-396">
          <mxGeometry x="30" width="150" height="30" as="geometry">
            <mxRectangle width="150" height="30" as="alternateBounds" />
          </mxGeometry>
        </mxCell>
        <mxCell id="rVyHELz2HRK5AfnBP9B1-399" value="" style="shape=tableRow;horizontal=0;startSize=0;swimlaneHead=0;swimlaneBody=0;fillColor=none;collapsible=0;dropTarget=0;points=[[0,0.5],[1,0.5]];portConstraint=eastwest;top=0;left=0;right=0;bottom=0;" vertex="1" parent="rVyHELz2HRK5AfnBP9B1-389">
          <mxGeometry y="131" width="180" height="41" as="geometry" />
        </mxCell>
        <mxCell id="rVyHELz2HRK5AfnBP9B1-400" value="" style="shape=partialRectangle;connectable=0;fillColor=none;top=0;left=0;bottom=0;right=0;editable=1;overflow=hidden;whiteSpace=wrap;html=1;" vertex="1" parent="rVyHELz2HRK5AfnBP9B1-399">
          <mxGeometry width="30" height="41" as="geometry">
            <mxRectangle width="30" height="41" as="alternateBounds" />
          </mxGeometry>
        </mxCell>
        <mxCell id="rVyHELz2HRK5AfnBP9B1-401" value="Дата последнего обновления" style="shape=partialRectangle;connectable=0;fillColor=none;top=0;left=0;bottom=0;right=0;align=left;spacingLeft=6;overflow=hidden;whiteSpace=wrap;html=1;" vertex="1" parent="rVyHELz2HRK5AfnBP9B1-399">
          <mxGeometry x="30" width="150" height="41" as="geometry">
            <mxRectangle width="150" height="41" as="alternateBounds" />
          </mxGeometry>
        </mxCell>
        <mxCell id="rVyHELz2HRK5AfnBP9B1-402" value="Администратор" style="shape=table;startSize=30;container=1;collapsible=1;childLayout=tableLayout;fixedRows=1;rowLines=0;fontStyle=1;align=center;resizeLast=1;html=1;" vertex="1" parent="1">
          <mxGeometry x="-52" y="-569" width="180" height="176" as="geometry" />
        </mxCell>
        <mxCell id="rVyHELz2HRK5AfnBP9B1-403" value="" style="shape=tableRow;horizontal=0;startSize=0;swimlaneHead=0;swimlaneBody=0;fillColor=none;collapsible=0;dropTarget=0;points=[[0,0.5],[1,0.5]];portConstraint=eastwest;top=0;left=0;right=0;bottom=1;" vertex="1" parent="rVyHELz2HRK5AfnBP9B1-402">
          <mxGeometry y="30" width="180" height="30" as="geometry" />
        </mxCell>
        <mxCell id="rVyHELz2HRK5AfnBP9B1-404" value="PK" style="shape=partialRectangle;connectable=0;fillColor=none;top=0;left=0;bottom=0;right=0;fontStyle=1;overflow=hidden;whiteSpace=wrap;html=1;" vertex="1" parent="rVyHELz2HRK5AfnBP9B1-403">
          <mxGeometry width="30" height="30" as="geometry">
            <mxRectangle width="30" height="30" as="alternateBounds" />
          </mxGeometry>
        </mxCell>
        <mxCell id="rVyHELz2HRK5AfnBP9B1-405" value="ID Администратор" style="shape=partialRectangle;connectable=0;fillColor=none;top=0;left=0;bottom=0;right=0;align=left;spacingLeft=6;fontStyle=5;overflow=hidden;whiteSpace=wrap;html=1;" vertex="1" parent="rVyHELz2HRK5AfnBP9B1-403">
          <mxGeometry x="30" width="150" height="30" as="geometry">
            <mxRectangle width="150" height="30" as="alternateBounds" />
          </mxGeometry>
        </mxCell>
        <mxCell id="rVyHELz2HRK5AfnBP9B1-406" value="" style="shape=tableRow;horizontal=0;startSize=0;swimlaneHead=0;swimlaneBody=0;fillColor=none;collapsible=0;dropTarget=0;points=[[0,0.5],[1,0.5]];portConstraint=eastwest;top=0;left=0;right=0;bottom=0;" vertex="1" parent="rVyHELz2HRK5AfnBP9B1-402">
          <mxGeometry y="60" width="180" height="30" as="geometry" />
        </mxCell>
        <mxCell id="rVyHELz2HRK5AfnBP9B1-407" value="FK" style="shape=partialRectangle;connectable=0;fillColor=none;top=0;left=0;bottom=0;right=0;editable=1;overflow=hidden;whiteSpace=wrap;html=1;" vertex="1" parent="rVyHELz2HRK5AfnBP9B1-406">
          <mxGeometry width="30" height="30" as="geometry">
            <mxRectangle width="30" height="30" as="alternateBounds" />
          </mxGeometry>
        </mxCell>
        <mxCell id="rVyHELz2HRK5AfnBP9B1-408" value="ID Пользователь" style="shape=partialRectangle;connectable=0;fillColor=none;top=0;left=0;bottom=0;right=0;align=left;spacingLeft=6;overflow=hidden;whiteSpace=wrap;html=1;" vertex="1" parent="rVyHELz2HRK5AfnBP9B1-406">
          <mxGeometry x="30" width="150" height="30" as="geometry">
            <mxRectangle width="150" height="30" as="alternateBounds" />
          </mxGeometry>
        </mxCell>
        <mxCell id="rVyHELz2HRK5AfnBP9B1-409" value="" style="shape=tableRow;horizontal=0;startSize=0;swimlaneHead=0;swimlaneBody=0;fillColor=none;collapsible=0;dropTarget=0;points=[[0,0.5],[1,0.5]];portConstraint=eastwest;top=0;left=0;right=0;bottom=0;" vertex="1" parent="rVyHELz2HRK5AfnBP9B1-402">
          <mxGeometry y="90" width="180" height="86" as="geometry" />
        </mxCell>
        <mxCell id="rVyHELz2HRK5AfnBP9B1-410" value="" style="shape=partialRectangle;connectable=0;fillColor=none;top=0;left=0;bottom=0;right=0;editable=1;overflow=hidden;whiteSpace=wrap;html=1;" vertex="1" parent="rVyHELz2HRK5AfnBP9B1-409">
          <mxGeometry width="30" height="86" as="geometry">
            <mxRectangle width="30" height="86" as="alternateBounds" />
          </mxGeometry>
        </mxCell>
        <mxCell id="rVyHELz2HRK5AfnBP9B1-411" value="Описание обязанностей(Управление учетными записями/ контроль качества контента)" style="shape=partialRectangle;connectable=0;fillColor=none;top=0;left=0;bottom=0;right=0;align=left;spacingLeft=6;overflow=hidden;whiteSpace=wrap;html=1;" vertex="1" parent="rVyHELz2HRK5AfnBP9B1-409">
          <mxGeometry x="30" width="150" height="86" as="geometry">
            <mxRectangle width="150" height="86" as="alternateBounds" />
          </mxGeometry>
        </mxCell>
        <mxCell id="rVyHELz2HRK5AfnBP9B1-412" style="edgeStyle=orthogonalEdgeStyle;rounded=0;orthogonalLoop=1;jettySize=auto;html=1;exitX=1;exitY=0.5;exitDx=0;exitDy=0;entryX=0;entryY=0.5;entryDx=0;entryDy=0;fontSize=12;startSize=8;endSize=8;startArrow=ERmandOne;startFill=0;endArrow=ERmany;endFill=0;" edge="1" parent="1" source="rVyHELz2HRK5AfnBP9B1-221" target="rVyHELz2HRK5AfnBP9B1-293">
          <mxGeometry relative="1" as="geometry" />
        </mxCell>
        <mxCell id="rVyHELz2HRK5AfnBP9B1-413" style="edgeStyle=orthogonalEdgeStyle;rounded=0;orthogonalLoop=1;jettySize=auto;html=1;exitX=0;exitY=0.5;exitDx=0;exitDy=0;entryX=0;entryY=0.5;entryDx=0;entryDy=0;fontSize=12;startSize=8;endSize=8;endArrow=ERmany;endFill=0;" edge="1" parent="1" source="rVyHELz2HRK5AfnBP9B1-221" target="rVyHELz2HRK5AfnBP9B1-277">
          <mxGeometry relative="1" as="geometry">
            <Array as="points">
              <mxPoint x="-77" y="-257" />
              <mxPoint x="-77" y="-208" />
              <mxPoint x="-439" y="-208" />
              <mxPoint x="-439" y="93" />
            </Array>
          </mxGeometry>
        </mxCell>
        <mxCell id="rVyHELz2HRK5AfnBP9B1-414" style="edgeStyle=orthogonalEdgeStyle;rounded=0;orthogonalLoop=1;jettySize=auto;html=1;exitX=0;exitY=0.5;exitDx=0;exitDy=0;entryX=0;entryY=0.5;entryDx=0;entryDy=0;fontSize=12;startSize=8;endSize=8;endArrow=ERmany;endFill=0;startArrow=ERmandOne;startFill=0;" edge="1" parent="1" source="rVyHELz2HRK5AfnBP9B1-281" target="rVyHELz2HRK5AfnBP9B1-252">
          <mxGeometry relative="1" as="geometry" />
        </mxCell>
        <mxCell id="rVyHELz2HRK5AfnBP9B1-415" style="edgeStyle=orthogonalEdgeStyle;rounded=0;orthogonalLoop=1;jettySize=auto;html=1;exitX=1;exitY=0.5;exitDx=0;exitDy=0;entryX=0;entryY=0.5;entryDx=0;entryDy=0;fontSize=12;startSize=8;endSize=8;startArrow=ERmandOne;startFill=0;endArrow=ERmandOne;endFill=0;" edge="1" parent="1" source="rVyHELz2HRK5AfnBP9B1-281" target="rVyHELz2HRK5AfnBP9B1-383">
          <mxGeometry relative="1" as="geometry" />
        </mxCell>
        <mxCell id="rVyHELz2HRK5AfnBP9B1-416" style="edgeStyle=orthogonalEdgeStyle;rounded=0;orthogonalLoop=1;jettySize=auto;html=1;exitX=1;exitY=0.5;exitDx=0;exitDy=0;entryX=0;entryY=0.5;entryDx=0;entryDy=0;fontSize=12;startSize=8;endSize=8;startArrow=ERmandOne;startFill=0;endArrow=ERmany;endFill=0;" edge="1" parent="1" source="rVyHELz2HRK5AfnBP9B1-268" target="rVyHELz2HRK5AfnBP9B1-316">
          <mxGeometry relative="1" as="geometry" />
        </mxCell>
        <mxCell id="rVyHELz2HRK5AfnBP9B1-417" style="edgeStyle=orthogonalEdgeStyle;rounded=0;orthogonalLoop=1;jettySize=auto;html=1;exitX=1;exitY=0.5;exitDx=0;exitDy=0;entryX=0;entryY=0.5;entryDx=0;entryDy=0;fontSize=12;startSize=8;endSize=8;startArrow=ERmandOne;startFill=0;endArrow=ERmany;endFill=0;" edge="1" parent="1" source="rVyHELz2HRK5AfnBP9B1-313" target="rVyHELz2HRK5AfnBP9B1-332">
          <mxGeometry relative="1" as="geometry" />
        </mxCell>
        <mxCell id="rVyHELz2HRK5AfnBP9B1-418" style="edgeStyle=none;curved=1;rounded=0;orthogonalLoop=1;jettySize=auto;html=1;exitX=0;exitY=0.5;exitDx=0;exitDy=0;entryX=1;entryY=0.5;entryDx=0;entryDy=0;fontSize=12;startSize=8;endSize=8;startArrow=ERmandOne;startFill=0;endArrow=ERmany;endFill=0;" edge="1" parent="1" source="rVyHELz2HRK5AfnBP9B1-361" target="rVyHELz2HRK5AfnBP9B1-329">
          <mxGeometry relative="1" as="geometry" />
        </mxCell>
        <mxCell id="rVyHELz2HRK5AfnBP9B1-419" style="edgeStyle=orthogonalEdgeStyle;rounded=0;orthogonalLoop=1;jettySize=auto;html=1;exitX=0;exitY=0.5;exitDx=0;exitDy=0;entryX=1;entryY=0.5;entryDx=0;entryDy=0;fontSize=12;startSize=8;endSize=8;startArrow=ERmandOne;startFill=0;endArrow=ERmany;endFill=0;" edge="1" parent="1" source="rVyHELz2HRK5AfnBP9B1-427" target="rVyHELz2HRK5AfnBP9B1-376">
          <mxGeometry relative="1" as="geometry" />
        </mxCell>
        <mxCell id="rVyHELz2HRK5AfnBP9B1-420" style="edgeStyle=orthogonalEdgeStyle;rounded=0;orthogonalLoop=1;jettySize=auto;html=1;exitX=0;exitY=0.5;exitDx=0;exitDy=0;entryX=0;entryY=0.5;entryDx=0;entryDy=0;fontSize=12;startSize=8;endSize=8;startArrow=ERmandOne;startFill=0;endArrow=ERmany;endFill=0;" edge="1" parent="1" source="rVyHELz2HRK5AfnBP9B1-300" target="rVyHELz2HRK5AfnBP9B1-274">
          <mxGeometry relative="1" as="geometry" />
        </mxCell>
        <mxCell id="rVyHELz2HRK5AfnBP9B1-421" style="edgeStyle=orthogonalEdgeStyle;rounded=0;orthogonalLoop=1;jettySize=auto;html=1;exitX=0;exitY=0.5;exitDx=0;exitDy=0;entryX=0;entryY=0.5;entryDx=0;entryDy=0;fontSize=12;startSize=8;endSize=8;startArrow=ERmandOne;startFill=0;endArrow=ERmany;endFill=0;" edge="1" parent="1" source="rVyHELz2HRK5AfnBP9B1-390" target="rVyHELz2HRK5AfnBP9B1-296">
          <mxGeometry relative="1" as="geometry" />
        </mxCell>
        <mxCell id="rVyHELz2HRK5AfnBP9B1-422" style="edgeStyle=orthogonalEdgeStyle;rounded=0;orthogonalLoop=1;jettySize=auto;html=1;exitX=0;exitY=0.5;exitDx=0;exitDy=0;entryX=0;entryY=0.5;entryDx=0;entryDy=0;fontSize=12;startSize=8;endSize=8;startArrow=ERmandOne;startFill=0;endArrow=ERmandOne;endFill=0;" edge="1" parent="1" source="rVyHELz2HRK5AfnBP9B1-221" target="rVyHELz2HRK5AfnBP9B1-348">
          <mxGeometry relative="1" as="geometry">
            <Array as="points">
              <mxPoint x="-770" y="-256" />
              <mxPoint x="-770" y="-55" />
            </Array>
          </mxGeometry>
        </mxCell>
        <mxCell id="rVyHELz2HRK5AfnBP9B1-423" style="edgeStyle=orthogonalEdgeStyle;rounded=0;orthogonalLoop=1;jettySize=auto;html=1;exitX=0;exitY=0.5;exitDx=0;exitDy=0;entryX=0;entryY=0.5;entryDx=0;entryDy=0;fontSize=12;startSize=8;endSize=8;startArrow=ERmandOne;startFill=0;endArrow=ERmany;endFill=0;" edge="1" parent="1" source="rVyHELz2HRK5AfnBP9B1-221" target="rVyHELz2HRK5AfnBP9B1-403">
          <mxGeometry relative="1" as="geometry" />
        </mxCell>
        <mxCell id="rVyHELz2HRK5AfnBP9B1-424" style="edgeStyle=orthogonalEdgeStyle;rounded=0;orthogonalLoop=1;jettySize=auto;html=1;exitX=0;exitY=0.5;exitDx=0;exitDy=0;entryX=0;entryY=0.5;entryDx=0;entryDy=0;fontSize=12;startSize=8;endSize=8;endArrow=ERmandOne;endFill=0;startArrow=ERmany;startFill=0;" edge="1" parent="1" source="rVyHELz2HRK5AfnBP9B1-313" target="rVyHELz2HRK5AfnBP9B1-357">
          <mxGeometry relative="1" as="geometry" />
        </mxCell>
        <mxCell id="rVyHELz2HRK5AfnBP9B1-425" value="ER-модель" style="text;html=1;align=center;verticalAlign=middle;resizable=0;points=[];autosize=1;strokeColor=none;fillColor=none;fontSize=16;" vertex="1" parent="1">
          <mxGeometry x="-893.5" y="-645.5" width="100" height="31" as="geometry" />
        </mxCell>
        <mxCell id="rVyHELz2HRK5AfnBP9B1-426" value="3D-модель" style="shape=table;startSize=30;container=1;collapsible=1;childLayout=tableLayout;fixedRows=1;rowLines=0;fontStyle=1;align=center;resizeLast=1;html=1;" vertex="1" parent="1">
          <mxGeometry x="816" y="158" width="180" height="154" as="geometry" />
        </mxCell>
        <mxCell id="rVyHELz2HRK5AfnBP9B1-427" value="" style="shape=tableRow;horizontal=0;startSize=0;swimlaneHead=0;swimlaneBody=0;fillColor=none;collapsible=0;dropTarget=0;points=[[0,0.5],[1,0.5]];portConstraint=eastwest;top=0;left=0;right=0;bottom=1;" vertex="1" parent="rVyHELz2HRK5AfnBP9B1-426">
          <mxGeometry y="30" width="180" height="30" as="geometry" />
        </mxCell>
        <mxCell id="rVyHELz2HRK5AfnBP9B1-428" value="PK" style="shape=partialRectangle;connectable=0;fillColor=none;top=0;left=0;bottom=0;right=0;fontStyle=1;overflow=hidden;whiteSpace=wrap;html=1;" vertex="1" parent="rVyHELz2HRK5AfnBP9B1-427">
          <mxGeometry width="30" height="30" as="geometry">
            <mxRectangle width="30" height="30" as="alternateBounds" />
          </mxGeometry>
        </mxCell>
        <mxCell id="rVyHELz2HRK5AfnBP9B1-429" value="ID Модель" style="shape=partialRectangle;connectable=0;fillColor=none;top=0;left=0;bottom=0;right=0;align=left;spacingLeft=6;fontStyle=5;overflow=hidden;whiteSpace=wrap;html=1;" vertex="1" parent="rVyHELz2HRK5AfnBP9B1-427">
          <mxGeometry x="30" width="150" height="30" as="geometry">
            <mxRectangle width="150" height="30" as="alternateBounds" />
          </mxGeometry>
        </mxCell>
        <mxCell id="rVyHELz2HRK5AfnBP9B1-430" value="" style="shape=tableRow;horizontal=0;startSize=0;swimlaneHead=0;swimlaneBody=0;fillColor=none;collapsible=0;dropTarget=0;points=[[0,0.5],[1,0.5]];portConstraint=eastwest;top=0;left=0;right=0;bottom=0;" vertex="1" parent="rVyHELz2HRK5AfnBP9B1-426">
          <mxGeometry y="60" width="180" height="34" as="geometry" />
        </mxCell>
        <mxCell id="rVyHELz2HRK5AfnBP9B1-431" value="" style="shape=partialRectangle;connectable=0;fillColor=none;top=0;left=0;bottom=0;right=0;editable=1;overflow=hidden;whiteSpace=wrap;html=1;" vertex="1" parent="rVyHELz2HRK5AfnBP9B1-430">
          <mxGeometry width="30" height="34" as="geometry">
            <mxRectangle width="30" height="34" as="alternateBounds" />
          </mxGeometry>
        </mxCell>
        <mxCell id="rVyHELz2HRK5AfnBP9B1-432" value="Дата и время создания модели" style="shape=partialRectangle;connectable=0;fillColor=none;top=0;left=0;bottom=0;right=0;align=left;spacingLeft=6;overflow=hidden;whiteSpace=wrap;html=1;" vertex="1" parent="rVyHELz2HRK5AfnBP9B1-430">
          <mxGeometry x="30" width="150" height="34" as="geometry">
            <mxRectangle width="150" height="34" as="alternateBounds" />
          </mxGeometry>
        </mxCell>
        <mxCell id="rVyHELz2HRK5AfnBP9B1-433" value="" style="shape=tableRow;horizontal=0;startSize=0;swimlaneHead=0;swimlaneBody=0;fillColor=none;collapsible=0;dropTarget=0;points=[[0,0.5],[1,0.5]];portConstraint=eastwest;top=0;left=0;right=0;bottom=0;" vertex="1" parent="rVyHELz2HRK5AfnBP9B1-426">
          <mxGeometry y="94" width="180" height="30" as="geometry" />
        </mxCell>
        <mxCell id="rVyHELz2HRK5AfnBP9B1-434" value="" style="shape=partialRectangle;connectable=0;fillColor=none;top=0;left=0;bottom=0;right=0;editable=1;overflow=hidden;whiteSpace=wrap;html=1;" vertex="1" parent="rVyHELz2HRK5AfnBP9B1-433">
          <mxGeometry width="30" height="30" as="geometry">
            <mxRectangle width="30" height="30" as="alternateBounds" />
          </mxGeometry>
        </mxCell>
        <mxCell id="rVyHELz2HRK5AfnBP9B1-435" value="Материалы" style="shape=partialRectangle;connectable=0;fillColor=none;top=0;left=0;bottom=0;right=0;align=left;spacingLeft=6;overflow=hidden;whiteSpace=wrap;html=1;" vertex="1" parent="rVyHELz2HRK5AfnBP9B1-433">
          <mxGeometry x="30" width="150" height="30" as="geometry">
            <mxRectangle width="150" height="30" as="alternateBounds" />
          </mxGeometry>
        </mxCell>
        <mxCell id="rVyHELz2HRK5AfnBP9B1-436" value="" style="shape=tableRow;horizontal=0;startSize=0;swimlaneHead=0;swimlaneBody=0;fillColor=none;collapsible=0;dropTarget=0;points=[[0,0.5],[1,0.5]];portConstraint=eastwest;top=0;left=0;right=0;bottom=0;" vertex="1" parent="rVyHELz2HRK5AfnBP9B1-426">
          <mxGeometry y="124" width="180" height="30" as="geometry" />
        </mxCell>
        <mxCell id="rVyHELz2HRK5AfnBP9B1-437" value="" style="shape=partialRectangle;connectable=0;fillColor=none;top=0;left=0;bottom=0;right=0;editable=1;overflow=hidden;whiteSpace=wrap;html=1;" vertex="1" parent="rVyHELz2HRK5AfnBP9B1-436">
          <mxGeometry width="30" height="30" as="geometry">
            <mxRectangle width="30" height="30" as="alternateBounds" />
          </mxGeometry>
        </mxCell>
        <mxCell id="rVyHELz2HRK5AfnBP9B1-438" value="Размеры модели" style="shape=partialRectangle;connectable=0;fillColor=none;top=0;left=0;bottom=0;right=0;align=left;spacingLeft=6;overflow=hidden;whiteSpace=wrap;html=1;" vertex="1" parent="rVyHELz2HRK5AfnBP9B1-436">
          <mxGeometry x="30" width="150" height="30" as="geometry">
            <mxRectangle width="150" height="30" as="alternateBounds" />
          </mxGeometry>
        </mxCell>
      </root>
    </mxGraphModel>
  </diagram>
</mxfile>
